<?xml version="1.0" encoding="utf-8"?>
<!-- Generator: Adobe Illustrator 23.0.1, SVG Export Plug-In . SVG Version: 6.00 Build 0)  -->
<svg version="1.1" id="Layer_1" xmlns="http://www.w3.org/2000/svg" xmlns:xlink="http://www.w3.org/1999/xlink" x="0px" y="0px"
	 viewBox="0 0 12 12" style="enable-background:new 0 0 12 12;" xml:space="preserve">
<style type="text/css">
	.st0{fill-rule:evenodd;clip-rule:evenodd;fill:url(#SVGID_1_);}
</style>
<linearGradient id="SVGID_1_" gradientUnits="userSpaceOnUse" x1="6.1902" y1="12.0378" x2="5.8823" y2="1.0478">
	<stop  offset="0" style="stop-color:#12C2E9"/>
	<stop  offset="0.5" style="stop-color:#C471ED"/>
	<stop  offset="1" style="stop-color:#F64F59"/>
</linearGradient>
<path class="st0" d="M4.3,0.8c0.2,0.1,0.2,0.3,0.1,0.5c0,0,0,0,0,0L2.5,4.5h6.9L7.6,1.3c-0.1-0.2,0-0.4,0.1-0.5
	c0.2-0.1,0.4,0,0.5,0.1l2.1,3.6h1.3c0.2,0,0.4,0.2,0.4,0.4v0.8C12,5.8,11.8,6,11.6,6H0.4C0.2,6,0,5.8,0,5.6V4.9
	c0-0.2,0.2-0.4,0.4-0.4h1.3l2.1-3.6C3.9,0.8,4.1,0.7,4.3,0.8C4.3,0.8,4.3,0.8,4.3,0.8L4.3,0.8z M2.5,11.3L1.4,6.8H0.7l1.1,4.8
	C1.9,11.8,2.1,12,2.4,12h7.2c0.3,0,0.5-0.2,0.5-0.4l1.1-4.8h-0.7l-1.1,4.5H2.5L2.5,11.3z"/>
</svg>
