<?xml version="1.0" encoding="utf-8"?>
<!-- Generator: Adobe Illustrator 23.0.1, SVG Export Plug-In . SVG Version: 6.00 Build 0)  -->
<svg version="1.1" id="Layer_1" xmlns="http://www.w3.org/2000/svg" xmlns:xlink="http://www.w3.org/1999/xlink" x="0px" y="0px"
	 viewBox="0 0 12 12" style="enable-background:new 0 0 12 12;" xml:space="preserve">
<style type="text/css">
	.st0{fill-rule:evenodd;clip-rule:evenodd;fill:url(#SVGID_1_);}
</style>
<linearGradient id="SVGID_1_" gradientUnits="userSpaceOnUse" x1="6.0364" y1="11.9823" x2="5.9653" y2="4.030671e-02">
	<stop  offset="0" style="stop-color:#12C2E9"/>
	<stop  offset="0.5" style="stop-color:#C471ED"/>
	<stop  offset="1" style="stop-color:#F64F59"/>
</linearGradient>
<path class="st0" d="M6.1,0.8c-0.1,0-0.2,0-0.3,0L1.4,2.6l1.8,0.7l4.6-1.8C7.8,1.5,6.1,0.8,6.1,0.8z M8.8,1.9L4.2,3.8L6,4.5l4.6-1.8
	L8.8,1.9z M11.3,3.2L6.4,5.1v5.9l4.9-1.9V3.2L11.3,3.2z M5.6,11.1V5.1L0.8,3.2v5.9C0.8,9.1,5.6,11.1,5.6,11.1z M5.6,0.1
	C5.9,0,6.1,0,6.4,0.1l5.3,2.1C11.9,2.3,12,2.5,12,2.6v6.5c0,0.3-0.2,0.6-0.5,0.7L6.1,12C6,12,6,12,5.9,12L0.5,9.8
	C0.2,9.7,0,9.4,0,9.1V2.6c0-0.2,0.1-0.3,0.2-0.3L5.6,0.1z"/>
</svg>
