<?xml version="1.0" encoding="utf-8"?>
<!-- Generator: Adobe Illustrator 23.0.1, SVG Export Plug-In . SVG Version: 6.00 Build 0)  -->
<svg version="1.1" id="Layer_1" xmlns="http://www.w3.org/2000/svg" xmlns:xlink="http://www.w3.org/1999/xlink" x="0px" y="0px"
	 viewBox="0 0 12 12" style="enable-background:new 0 0 12 12;" xml:space="preserve">
<style type="text/css">
	.st0{fill:url(#SVGID_1_);}
	.st1{fill:url(#SVGID_2_);}
	.st2{fill:url(#SVGID_3_);}
	.st3{fill:url(#SVGID_4_);}
	.st4{fill:url(#SVGID_5_);}
	.st5{fill:url(#SVGID_6_);}
</style>
<g>
	<linearGradient id="SVGID_1_" gradientUnits="userSpaceOnUse" x1="6.2617" y1="12.0596" x2="5.6458" y2="5.106631e-02">
		<stop  offset="0" style="stop-color:#12C2E9"/>
		<stop  offset="0.5" style="stop-color:#C471ED"/>
		<stop  offset="1" style="stop-color:#F64F59"/>
	</linearGradient>
	<path class="st0" d="M9.8,3.4v7.1c0,0.4-0.3,0.8-0.8,0.8H3c-0.4,0-0.8-0.3-0.8-0.8v-9c0-0.4,0.3-0.8,0.8-0.8h4.1V0H3
		C2.2,0,1.5,0.7,1.5,1.5v9C1.5,11.3,2.2,12,3,12h6c0.8,0,1.5-0.7,1.5-1.5V3.4H9.8z"/>
	<linearGradient id="SVGID_2_" gradientUnits="userSpaceOnUse" x1="9.278" y1="11.9049" x2="8.6622" y2="-0.1036">
		<stop  offset="0" style="stop-color:#12C2E9"/>
		<stop  offset="0.5" style="stop-color:#C471ED"/>
		<stop  offset="1" style="stop-color:#F64F59"/>
	</linearGradient>
	<path class="st1" d="M7.1,2.3c0,0.6,0.5,1.1,1.1,1.1h1.5h0.8L7.1,0v0.8V2.3z"/>
	<linearGradient id="SVGID_3_" gradientUnits="userSpaceOnUse" x1="4.8002" y1="12.1345" x2="4.1843" y2="0.126">
		<stop  offset="0" style="stop-color:#12C2E9"/>
		<stop  offset="0.5" style="stop-color:#C471ED"/>
		<stop  offset="1" style="stop-color:#F64F59"/>
	</linearGradient>
	<path class="st2" d="M3.4,3h1.9c0.2,0,0.4-0.2,0.4-0.4S5.5,2.3,5.3,2.3H3.4C3.2,2.3,3,2.4,3,2.6S3.2,3,3.4,3z"/>
	<linearGradient id="SVGID_4_" gradientUnits="userSpaceOnUse" x1="6.3298" y1="12.0561" x2="5.714" y2="4.757236e-02">
		<stop  offset="0" style="stop-color:#12C2E9"/>
		<stop  offset="0.5" style="stop-color:#C471ED"/>
		<stop  offset="1" style="stop-color:#F64F59"/>
	</linearGradient>
	<path class="st3" d="M3.4,6h5.3C8.8,6,9,5.8,9,5.6S8.8,5.3,8.6,5.3H3.4C3.2,5.3,3,5.4,3,5.6S3.2,6,3.4,6z"/>
	<linearGradient id="SVGID_5_" gradientUnits="userSpaceOnUse" x1="6.138" y1="12.0659" x2="5.5222" y2="5.740842e-02">
		<stop  offset="0" style="stop-color:#12C2E9"/>
		<stop  offset="0.5" style="stop-color:#C471ED"/>
		<stop  offset="1" style="stop-color:#F64F59"/>
	</linearGradient>
	<path class="st4" d="M3.4,9.8h5.3C8.8,9.8,9,9.6,9,9.4S8.8,9,8.6,9H3.4C3.2,9,3,9.2,3,9.4S3.2,9.8,3.4,9.8z"/>
	<linearGradient id="SVGID_6_" gradientUnits="userSpaceOnUse" x1="6.2339" y1="12.061" x2="5.6181" y2="5.249039e-02">
		<stop  offset="0" style="stop-color:#12C2E9"/>
		<stop  offset="0.5" style="stop-color:#C471ED"/>
		<stop  offset="1" style="stop-color:#F64F59"/>
	</linearGradient>
	<path class="st5" d="M3.4,7.9h5.3C8.8,7.9,9,7.7,9,7.5S8.8,7.1,8.6,7.1H3.4C3.2,7.1,3,7.3,3,7.5S3.2,7.9,3.4,7.9z"/>
</g>
</svg>
