<?xml version="1.0" encoding="utf-8"?>
<!-- Generator: Adobe Illustrator 23.0.1, SVG Export Plug-In . SVG Version: 6.00 Build 0)  -->
<svg version="1.1" id="Layer_1" xmlns="http://www.w3.org/2000/svg" xmlns:xlink="http://www.w3.org/1999/xlink" x="0px" y="0px"
	 viewBox="0 0 12 12" style="enable-background:new 0 0 12 12;" xml:space="preserve">
<style type="text/css">
	.st0{fill-rule:evenodd;clip-rule:evenodd;fill:url(#SVGID_1_);}
	.st1{fill-rule:evenodd;clip-rule:evenodd;fill:url(#SVGID_2_);}
</style>
<linearGradient id="SVGID_1_" gradientUnits="userSpaceOnUse" x1="6.0671" y1="11.2742" x2="5.8776" y2="1.1605">
	<stop  offset="0" style="stop-color:#12C2E9"/>
	<stop  offset="0.5" style="stop-color:#C471ED"/>
	<stop  offset="1" style="stop-color:#F64F59"/>
</linearGradient>
<path class="st0" d="M1.5,10.1V5.3h0.8v4.9c0,0.2,0.2,0.4,0.4,0.4h6.8c0.2,0,0.4-0.2,0.4-0.4V5.3h0.8v4.9c0,0.6-0.5,1.1-1.1,1.1H2.6
	C2,11.3,1.5,10.7,1.5,10.1z M9.8,1.9v2.6L8.3,3V1.9c0-0.2,0.2-0.4,0.4-0.4h0.8C9.6,1.5,9.8,1.7,9.8,1.9z"/>
<linearGradient id="SVGID_2_" gradientUnits="userSpaceOnUse" x1="6.0918" y1="11.2738" x2="5.9023" y2="1.1601">
	<stop  offset="0" style="stop-color:#12C2E9"/>
	<stop  offset="0.5" style="stop-color:#C471ED"/>
	<stop  offset="1" style="stop-color:#F64F59"/>
</linearGradient>
<path class="st1" d="M5.5,1.1c0.3-0.3,0.8-0.3,1.1,0l5,5c0.1,0.1,0.1,0.4,0,0.5s-0.4,0.1-0.5,0l-5-5l-5,5c-0.1,0.1-0.4,0.1-0.5,0
	s-0.1-0.4,0-0.5L5.5,1.1z"/>
</svg>
