<?xml version="1.0" encoding="utf-8"?>
<!-- Generator: Adobe Illustrator 23.0.1, SVG Export Plug-In . SVG Version: 6.00 Build 0)  -->
<svg version="1.1" id="Layer_1" xmlns="http://www.w3.org/2000/svg" xmlns:xlink="http://www.w3.org/1999/xlink" x="0px" y="0px"
	 viewBox="0 0 12 12" style="enable-background:new 0 0 12 12;" xml:space="preserve">
<style type="text/css">
	.st0{fill:url(#SVGID_1_);}
	.st1{fill:url(#SVGID_2_);}
	.st2{fill-rule:evenodd;clip-rule:evenodd;fill:url(#SVGID_3_);}
</style>
<linearGradient id="SVGID_1_" gradientUnits="userSpaceOnUse" x1="6.1572" y1="11.9597" x2="5.8492" y2="0.2827">
	<stop  offset="0" style="stop-color:#12C2E9"/>
	<stop  offset="0.5" style="stop-color:#C471ED"/>
	<stop  offset="1" style="stop-color:#F64F59"/>
</linearGradient>
<path class="st0" d="M2.3,0h7.5c0.8,0,1.5,0.7,1.5,1.5v9c0,0.8-0.7,1.5-1.5,1.5H2.3c-0.8,0-1.5-0.7-1.5-1.5V9.8h0.8v0.8
	c0,0.4,0.3,0.8,0.8,0.8h7.5c0.4,0,0.8-0.3,0.8-0.8v-9c0-0.4-0.3-0.8-0.8-0.8H2.3c-0.4,0-0.8,0.3-0.8,0.8v0.8H0.8V1.5
	C0.8,0.7,1.4,0,2.3,0z"/>
<linearGradient id="SVGID_2_" gradientUnits="userSpaceOnUse" x1="1.2757" y1="12.0884" x2="0.9677" y2="0.4115">
	<stop  offset="0" style="stop-color:#12C2E9"/>
	<stop  offset="0.5" style="stop-color:#C471ED"/>
	<stop  offset="1" style="stop-color:#F64F59"/>
</linearGradient>
<path class="st1" d="M0.8,3.8V3.4C0.8,3.2,0.9,3,1.1,3s0.4,0.2,0.4,0.4v0.4h0.4c0.2,0,0.4,0.2,0.4,0.4S2.1,4.5,1.9,4.5H0.4
	C0.2,4.5,0,4.3,0,4.1s0.2-0.4,0.4-0.4H0.8z M0.8,6V5.6c0-0.2,0.2-0.4,0.4-0.4s0.4,0.2,0.4,0.4V6h0.4c0.2,0,0.4,0.2,0.4,0.4
	S2.1,6.8,1.9,6.8H0.4C0.2,6.8,0,6.6,0,6.4S0.2,6,0.4,6H0.8z M0.8,8.3V7.9c0-0.2,0.2-0.4,0.4-0.4s0.4,0.2,0.4,0.4v0.4h0.4
	c0.2,0,0.4,0.2,0.4,0.4S2.1,9,1.9,9H0.4C0.2,9,0,8.8,0,8.6s0.2-0.4,0.4-0.4H0.8z"/>
<linearGradient id="SVGID_3_" gradientUnits="userSpaceOnUse" x1="6.2251" y1="14.1629" x2="5.8101" y2="-1.576">
	<stop  offset="0" style="stop-color:#12C2E9"/>
	<stop  offset="0.5" style="stop-color:#C471ED"/>
	<stop  offset="1" style="stop-color:#F64F59"/>
</linearGradient>
<path class="st2" d="M3,8.7c0-0.3,0.2-0.5,0.5-0.5h2C5.8,8.2,6,8.4,6,8.7c0,0.3-0.2,0.5-0.5,0.5h-2C3.2,9.2,3,8.9,3,8.7z M3,6.6
	c0-0.3,0.2-0.5,0.5-0.5h5.1C8.8,6.1,9,6.4,9,6.6c0,0.3-0.2,0.5-0.5,0.5H3.5C3.2,7.1,3,6.9,3,6.6z M3,4.6c0-0.3,0.2-0.5,0.5-0.5h5.1
	C8.8,4.1,9,4.3,9,4.6c0,0.3-0.2,0.5-0.5,0.5H3.5C3.2,5.1,3,4.9,3,4.6z M3,2.6c0-0.3,0.2-0.5,0.5-0.5h5.1C8.8,2.1,9,2.3,9,2.6
	S8.8,3.1,8.5,3.1H3.5C3.2,3.1,3,2.9,3,2.6z"/>
</svg>
