<?xml version="1.0" encoding="utf-8"?>
<!-- Generator: Adobe Illustrator 23.0.1, SVG Export Plug-In . SVG Version: 6.00 Build 0)  -->
<svg version="1.1" id="Layer_1" xmlns="http://www.w3.org/2000/svg" xmlns:xlink="http://www.w3.org/1999/xlink" x="0px" y="0px"
	 viewBox="0 0 12 12" style="enable-background:new 0 0 12 12;" xml:space="preserve">
<style type="text/css">
	.st0{fill-rule:evenodd;clip-rule:evenodd;fill:url(#SVGID_1_);}
	.st1{fill-rule:evenodd;clip-rule:evenodd;fill:url(#SVGID_2_);}
</style>
<linearGradient id="SVGID_1_" gradientUnits="userSpaceOnUse" x1="5.9993" y1="10.8371" x2="5.9993" y2="1.3335">
	<stop  offset="0" style="stop-color:#12C2E9"/>
	<stop  offset="0.5" style="stop-color:#C471ED"/>
	<stop  offset="1" style="stop-color:#F64F59"/>
</linearGradient>
<path class="st0" d="M2.4,6L0.2,7.2C0,7.3-0.1,7.5,0,7.7c0,0.1,0.1,0.1,0.2,0.2l5.6,3c0.1,0.1,0.2,0.1,0.4,0l5.6-3
	C12,7.7,12.1,7.5,12,7.3c0-0.1-0.1-0.1-0.2-0.2L9.6,6L8.8,6.4l2,1.1L6,10.1L1.2,7.5l2-1.1L2.4,6L2.4,6z"/>
<linearGradient id="SVGID_2_" gradientUnits="userSpaceOnUse" x1="6" y1="10.8371" x2="6" y2="1.3335">
	<stop  offset="0" style="stop-color:#12C2E9"/>
	<stop  offset="0.5" style="stop-color:#C471ED"/>
	<stop  offset="1" style="stop-color:#F64F59"/>
</linearGradient>
<path class="st1" d="M5.8,1.2c0.1-0.1,0.2-0.1,0.4,0l5.6,3C12,4.3,12.1,4.5,12,4.7c0,0.1-0.1,0.1-0.2,0.2l-5.6,3
	c-0.1,0.1-0.2,0.1-0.4,0l-5.6-3C0,4.7-0.1,4.5,0,4.3c0-0.1,0.1-0.1,0.2-0.2L5.8,1.2z M1.2,4.5L6,7.1l4.8-2.6L6,1.9L1.2,4.5L1.2,4.5z
	"/>
</svg>
