<?xml version="1.0" encoding="utf-8"?>
<!-- Generator: Adobe Illustrator 23.0.1, SVG Export Plug-In . SVG Version: 6.00 Build 0)  -->
<svg version="1.1" id="Layer_1" xmlns="http://www.w3.org/2000/svg" xmlns:xlink="http://www.w3.org/1999/xlink" x="0px" y="0px"
	 viewBox="0 0 12 12" style="enable-background:new 0 0 12 12;" xml:space="preserve">
<style type="text/css">
	.st0{fill:url(#SVGID_1_);}
	.st1{fill:url(#SVGID_2_);}
</style>
<linearGradient id="SVGID_1_" gradientUnits="userSpaceOnUse" x1="4.4874" y1="11.2799" x2="4.2702" y2="0.3273">
	<stop  offset="0" style="stop-color:#12C2E9"/>
	<stop  offset="0.5" style="stop-color:#C471ED"/>
	<stop  offset="1" style="stop-color:#F64F59"/>
</linearGradient>
<path class="st0" d="M2.8,4.7L1.4,6c-1.2,1.2-1.2,3,0,4.2s3,1.2,4.2,0l0,0l1.8-1.8c1.2-1.2,1.2-3,0-4.2C7.2,4,6.9,3.8,6.6,3.7L6,4.2
	C5.9,4.3,5.9,4.4,5.8,4.4c1,0.3,1.6,1.4,1.3,2.4C7.1,7.2,6.9,7.5,6.7,7.7L4.9,9.5c-0.8,0.8-2,0.8-2.8,0s-0.8-2,0-2.8l0.8-0.8
	C2.8,5.5,2.7,5.1,2.8,4.7L2.8,4.7z"/>
<linearGradient id="SVGID_2_" gradientUnits="userSpaceOnUse" x1="7.7356" y1="11.2155" x2="7.5184" y2="0.2629">
	<stop  offset="0" style="stop-color:#12C2E9"/>
	<stop  offset="0.5" style="stop-color:#C471ED"/>
	<stop  offset="1" style="stop-color:#F64F59"/>
</linearGradient>
<path class="st1" d="M4.6,2.8C3.5,4,3.5,5.9,4.6,7c0.2,0.2,0.5,0.4,0.8,0.6l0.8-0.8c-1-0.3-1.7-1.4-1.4-2.4c0.1-0.3,0.3-0.6,0.5-0.9
	l1.8-1.8c0.8-0.8,2-0.8,2.8,0s0.8,2,0,2.8l0,0L9.1,5.3c0.1,0.4,0.2,0.8,0.1,1.3l1.3-1.3c1.2-1.2,1.2-3,0-4.2s-3-1.2-4.2,0L4.6,2.8z"
	/>
</svg>
