<?xml version="1.0" encoding="utf-8"?>
<!-- Generator: Adobe Illustrator 23.0.1, SVG Export Plug-In . SVG Version: 6.00 Build 0)  -->
<svg version="1.1" id="Layer_1" xmlns="http://www.w3.org/2000/svg" xmlns:xlink="http://www.w3.org/1999/xlink" x="0px" y="0px"
	 viewBox="0 0 12 12" style="enable-background:new 0 0 12 12;" xml:space="preserve">
<style type="text/css">
	.st0{fill-rule:evenodd;clip-rule:evenodd;fill:url(#SVGID_1_);}
</style>
<linearGradient id="SVGID_1_" gradientUnits="userSpaceOnUse" x1="6.0124" y1="11.4575" x2="5.8693" y2="0.8105">
	<stop  offset="0" style="stop-color:#12C2E9"/>
	<stop  offset="0.5" style="stop-color:#C471ED"/>
	<stop  offset="1" style="stop-color:#F64F59"/>
</linearGradient>
<path class="st0" d="M7.8,3.3c0,1-0.8,1.8-1.8,1.8S4.2,4.3,4.2,3.3S5,1.5,6,1.5S7.8,2.3,7.8,3.3z M6,6c1.5,0,2.7-1.2,2.7-2.7
	S7.5,0.6,6,0.6S3.3,1.8,3.3,3.3S4.5,6,6,6z M11.4,10.5c0,0.9-0.9,0.9-0.9,0.9H1.5c0,0-0.9,0-0.9-0.9S1.5,6.9,6,6.9
	S11.4,9.6,11.4,10.5z M10.5,10.5c0-0.2-0.1-0.9-0.8-1.5C9.2,8.4,8.1,7.8,6,7.8C3.9,7.8,2.8,8.4,2.2,9c-0.6,0.6-0.8,1.3-0.8,1.5H10.5
	z"/>
</svg>
