<?xml version="1.0" encoding="utf-8"?>
<!-- Generator: Adobe Illustrator 23.0.1, SVG Export Plug-In . SVG Version: 6.00 Build 0)  -->
<svg version="1.1" id="Layer_1" xmlns="http://www.w3.org/2000/svg" xmlns:xlink="http://www.w3.org/1999/xlink" x="0px" y="0px"
	 viewBox="0 0 12 12" style="enable-background:new 0 0 12 12;" xml:space="preserve">
<style type="text/css">
	.st0{fill-rule:evenodd;clip-rule:evenodd;fill:url(#SVGID_1_);}
	.st1{fill-rule:evenodd;clip-rule:evenodd;fill:url(#SVGID_2_);}
</style>
<linearGradient id="SVGID_1_" gradientUnits="userSpaceOnUse" x1="5.9097" y1="12.0272" x2="6.0361" y2="0.2034">
	<stop  offset="0" style="stop-color:#12C2E9"/>
	<stop  offset="0.5" style="stop-color:#C471ED"/>
	<stop  offset="1" style="stop-color:#F64F59"/>
</linearGradient>
<path class="st0" d="M4,1.2C3.2,1.4,2.5,1.6,1.8,1.8C1.6,1.9,1.5,2,1.5,2.1C1.1,5.2,2.1,7.5,3.3,9c0.6,0.8,1.2,1.3,1.8,1.7
	c0.3,0.2,0.5,0.3,0.7,0.4c0.1,0,0.2,0.1,0.2,0.1c0,0,0.1,0,0.1,0c0,0,0,0,0.1,0c0.1,0,0.1,0,0.2-0.1C6.5,11,6.7,10.9,7,10.7
	c0.7-0.5,1.3-1,1.8-1.7c1.2-1.5,2.2-3.8,1.7-6.9c0-0.1-0.1-0.3-0.3-0.3C9.7,1.7,8.9,1.4,8,1.2C7.2,1,6.4,0.8,6,0.8
	C5.6,0.8,4.8,1,4,1.2z M3.7,0.4C4.6,0.2,5.5,0,6,0c0.5,0,1.4,0.2,2.3,0.4C9,0.6,9.7,0.8,10.5,1.1c0.4,0.1,0.7,0.5,0.8,0.9
	c0.5,3.4-0.6,5.8-1.9,7.5c-0.5,0.7-1.2,1.3-1.9,1.8c-0.3,0.2-0.5,0.3-0.8,0.5C6.4,11.9,6.2,12,6,12s-0.4-0.1-0.6-0.2
	c-0.3-0.1-0.6-0.3-0.8-0.5c-0.7-0.5-1.4-1.1-1.9-1.8C1.3,7.9,0.3,5.4,0.7,2c0.1-0.4,0.4-0.8,0.8-0.9C2.3,0.8,3,0.6,3.7,0.4z"/>
<linearGradient id="SVGID_2_" gradientUnits="userSpaceOnUse" x1="6.1293" y1="12.0295" x2="6.2556" y2="0.2057">
	<stop  offset="0" style="stop-color:#12C2E9"/>
	<stop  offset="0.5" style="stop-color:#C471ED"/>
	<stop  offset="1" style="stop-color:#F64F59"/>
</linearGradient>
<path class="st1" d="M8.3,4.5c0.2,0.2,0.2,0.4,0,0.6c0,0,0,0,0,0L5.9,7.5c-0.2,0.2-0.4,0.2-0.6,0c0,0,0,0,0,0L4.1,6.3
	C4,6.1,4,5.9,4.1,5.7c0.2-0.2,0.4-0.2,0.6,0l0.9,0.9l2.1-2.1C7.9,4.4,8.1,4.4,8.3,4.5C8.3,4.5,8.3,4.5,8.3,4.5z"/>
</svg>
