<?xml version="1.0" encoding="utf-8"?>
<!-- Generator: Adobe Illustrator 23.0.1, SVG Export Plug-In . SVG Version: 6.00 Build 0)  -->
<svg version="1.1" id="Layer_1" xmlns="http://www.w3.org/2000/svg" xmlns:xlink="http://www.w3.org/1999/xlink" x="0px" y="0px"
	 viewBox="0 0 12 12" style="enable-background:new 0 0 12 12;" xml:space="preserve">
<style type="text/css">
	.st0{fill:url(#SVGID_1_);}
	.st1{fill:url(#SVGID_2_);}
	.st2{fill:url(#SVGID_3_);}
</style>
<linearGradient id="SVGID_1_" gradientUnits="userSpaceOnUse" x1="5.992" y1="12.0188" x2="6.0069" y2="6.482005e-02">
	<stop  offset="0" style="stop-color:#12C2E9"/>
	<stop  offset="5.600001e-02" style="stop-color:#19BFE9"/>
	<stop  offset="0.137" style="stop-color:#2DB6EA"/>
	<stop  offset="0.235" style="stop-color:#4DA7EA"/>
	<stop  offset="0.344" style="stop-color:#7993EB"/>
	<stop  offset="0.462" style="stop-color:#B279ED"/>
	<stop  offset="0.497" style="stop-color:#C471ED"/>
	<stop  offset="1" style="stop-color:#F64F59"/>
</linearGradient>
<path class="st0" d="M7,8.8C7,8.9,6.9,9,6.8,9H5.2C5.1,9,5,8.9,5,8.8c0-0.1,0.1-0.2,0.2-0.2h1.6C6.9,8.6,7,8.7,7,8.8z M4,5.8h1V8
	c0,0.1,0.1,0.2,0.2,0.2h1.6C6.9,8.2,7,8.1,7,8V5.8h1c0.1,0,0.2-0.1,0.2-0.2c0,0,0-0.1,0-0.1l-2-2.4C6.1,3,6,3,5.9,3c0,0,0,0,0,0
	l-2,2.4c-0.1,0.1-0.1,0.2,0,0.3C3.9,5.8,3.9,5.8,4,5.8z M6,3.5l1.6,1.9H6.8c-0.1,0-0.2,0.1-0.2,0.2v2.2H5.4V5.6
	c0-0.1-0.1-0.2-0.2-0.2H4.4L6,3.5z"/>
<linearGradient id="SVGID_2_" gradientUnits="userSpaceOnUse" x1="5.9925" y1="12.0188" x2="6.0074" y2="6.482067e-02">
	<stop  offset="0" style="stop-color:#12C2E9"/>
	<stop  offset="0.5" style="stop-color:#C471ED"/>
	<stop  offset="1" style="stop-color:#F64F59"/>
</linearGradient>
<path class="st1" d="M9.8,3.4v7.1c0,0.4-0.3,0.8-0.8,0.8H3c-0.4,0-0.8-0.3-0.8-0.8v-9c0-0.4,0.3-0.8,0.8-0.8h4.1V0H3
	C2.2,0,1.5,0.7,1.5,1.5v9C1.5,11.3,2.2,12,3,12h6c0.8,0,1.5-0.7,1.5-1.5V3.4H9.8z"/>
<linearGradient id="SVGID_3_" gradientUnits="userSpaceOnUse" x1="8.7872" y1="12.0222" x2="8.802" y2="6.829229e-02">
	<stop  offset="0" style="stop-color:#12C2E9"/>
	<stop  offset="0.5" style="stop-color:#C471ED"/>
	<stop  offset="1" style="stop-color:#F64F59"/>
</linearGradient>
<path class="st2" d="M7.1,2.3c0,0.6,0.5,1.1,1.1,1.1h1.5h0.8L7.1,0v0.8V2.3z"/>
</svg>
