<?xml version="1.0" standalone="no"?>
<!DOCTYPE svg PUBLIC "-//W3C//DTD SVG 20010904//EN"
 "http://www.w3.org/TR/2001/REC-SVG-20010904/DTD/svg10.dtd">
<svg version="1.0" xmlns="http://www.w3.org/2000/svg"
 width="246.000000pt" height="246.000000pt" viewBox="0 0 246.000000 246.000000"
 preserveAspectRatio="xMidYMid meet">
<metadata>
Created by potrace 1.11, written by Peter Selinger 2001-2013
</metadata>
<g transform="translate(0.000000,246.000000) scale(0.100000,-0.100000)"
fill="#000000" stroke="none">
<path d="M955 2430 c-127 -32 -189 -55 -300 -113 -296 -154 -524 -443 -612
-777 -34 -129 -43 -388 -19 -529 75 -432 393 -799 816 -942 254 -87 559 -84
811 7 65 24 76 25 116 13 33 -9 53 -9 82 -1 56 17 121 68 121 94 l0 22 16 -22
c18 -27 54 -30 54 -4 -1 9 -7 28 -14 42 -13 23 -12 25 27 43 54 23 107 64 107
81 0 27 -33 26 -82 -1 -28 -15 -58 -37 -67 -49 -16 -21 -16 -20 -53 40 -31 51
-34 61 -20 64 29 5 127 76 130 94 6 31 -48 22 -106 -17 -28 -20 -52 -41 -52
-48 0 -6 -12 3 -26 21 -30 38 -54 42 -54 8 0 -16 -7 -26 -22 -30 -41 -11 -118
-66 -139 -99 -14 -23 -19 -45 -17 -80 l3 -47 -51 -20 c-259 -96 -554 -86 -816
29 -270 119 -493 352 -596 624 -32 86 -81 291 -71 301 2 3 47 12 99 20 209 34
237 58 265 228 5 35 51 88 76 88 5 0 9 -82 9 -195 l0 -195 40 0 c48 0 52 6
106 145 l39 99 3 -114 c3 -124 6 -130 59 -130 23 0 37 7 47 23 8 12 46 109 86
216 51 138 68 197 60 205 -23 23 -46 -15 -100 -162 l-55 -152 -3 160 -2 160
-35 0 c-44 0 -50 -10 -111 -188 l-49 -143 -3 165 -2 166 -26 0 c-53 0 -115
-24 -155 -59 -38 -34 -42 -41 -48 -105 -7 -63 -11 -72 -42 -98 -42 -35 -144
-68 -212 -68 l-50 0 6 108 c15 270 118 503 307 693 262 264 616 394 938 345
371 -57 702 -288 861 -604 41 -81 86 -217 104 -314 14 -72 13 -78 -2 -78 -47
0 -132 -38 -219 -98 -101 -69 -174 -101 -229 -102 -41 0 -41 -1 -3 183 17 80
30 150 30 156 0 6 -11 11 -24 11 -35 0 -76 -17 -76 -32 0 -7 -5 -30 -11 -50
-9 -36 -12 -38 -50 -38 -78 0 -118 -41 -139 -142 -7 -39 -19 -63 -33 -73 -46
-32 -47 -23 -7 158 40 181 40 181 -7 174 -20 -4 -42 -12 -49 -19 -11 -12 -55
-198 -70 -295 -10 -63 13 -93 69 -93 23 0 52 7 64 15 21 14 24 14 43 -5 24
-24 76 -26 108 -5 19 14 24 14 46 0 20 -14 36 -14 112 -5 106 13 170 40 250
106 84 68 150 96 237 99 40 2 75 4 80 4 23 3 -14 216 -60 346 -122 339 -391
613 -728 741 -143 53 -265 74 -440 73 -141 0 -173 -4 -270 -29z m825 -1107 c0
-26 -40 -167 -49 -176 -9 -9 -16 -6 -30 12 -18 24 -18 26 2 85 11 34 24 67 30
74 10 13 47 17 47 5z"/>
<path d="M1049 1367 c-45 -30 -69 -81 -76 -165 -5 -66 -4 -72 20 -96 20 -20
36 -26 70 -26 55 0 80 23 118 106 46 101 60 97 34 -11 -23 -95 -23 -97 32 -93
l47 3 23 110 c15 71 29 115 40 123 15 10 19 9 25 -8 8 -22 37 -27 56 -8 7 7
12 27 12 44 l0 33 -95 0 -96 0 -6 -29 c-10 -51 -53 -66 -53 -19 0 57 -88 78
-151 36z m85 -49 c-8 -26 -8 -29 1 -78 12 -61 -54 -121 -74 -67 -10 25 28 144
51 158 22 15 30 10 22 -13z"/>
</g>
</svg>
