<?xml version="1.0" standalone="no"?>
<!DOCTYPE svg PUBLIC "-//W3C//DTD SVG 20010904//EN"
 "http://www.w3.org/TR/2001/REC-SVG-20010904/DTD/svg10.dtd">
<svg version="1.0" xmlns="http://www.w3.org/2000/svg"
 width="700.000000pt" height="700.000000pt" viewBox="0 0 700.000000 700.000000"
 preserveAspectRatio="xMidYMid meet">
<metadata>
Created by potrace 1.11, written by Peter Selinger 2001-2013
</metadata>
<g transform="translate(0.000000,700.000000) scale(0.100000,-0.100000)"
fill="#000000" stroke="none">
<path d="M0 3500 l0 -3500 3500 0 3500 0 0 3500 0 3500 -3500 0 -3500 0 0
-3500z m3925 2980 c354 -53 632 -142 947 -302 930 -473 1543 -1386 1633 -2431
l7 -78 -189 3 c-159 3 -197 0 -248 -15 -116 -36 -198 -84 -350 -206 -230 -185
-383 -252 -630 -272 -66 -5 -145 -12 -176 -15 -53 -5 -59 -4 -93 26 -20 18
-36 38 -36 46 0 21 -14 17 -41 -12 -46 -49 -109 -79 -169 -79 -72 0 -117 27
-150 87 l-25 46 -45 -41 c-68 -61 -141 -91 -202 -84 -90 11 -138 64 -138 152
0 28 38 221 83 430 l82 380 98 14 c53 8 100 11 104 8 3 -4 -31 -183 -76 -399
-45 -216 -81 -405 -81 -420 0 -54 74 -64 137 -19 39 28 40 32 47 100 21 208
106 366 230 425 70 33 140 41 196 22 24 -8 45 -14 47 -13 1 2 13 57 27 122 14
66 28 130 31 141 4 19 16 23 105 34 56 7 102 11 104 9 2 -2 -32 -173 -76 -379
-93 -439 -95 -454 -77 -476 11 -14 27 -16 94 -11 195 15 358 93 630 299 149
113 309 180 467 195 l68 6 -6 41 c-76 548 -257 984 -584 1406 -94 121 -317
345 -440 442 -399 316 -834 505 -1340 583 -142 22 -474 31 -625 16 -650 -62
-1217 -319 -1679 -761 -540 -516 -856 -1243 -856 -1966 l0 -123 47 -7 c74 -11
230 3 338 31 184 47 334 134 375 221 22 43 22 50 10 114 -7 39 -10 84 -6 106
32 171 269 333 487 334 l66 0 6 -182 c4 -99 7 -294 7 -431 0 -138 3 -247 8
-243 4 4 72 197 152 429 l145 422 92 3 93 3 2 -431 3 -430 154 430 154 430 49
0 c43 0 49 -2 44 -17 -4 -10 -93 -250 -200 -533 l-193 -515 -101 -3 -102 -3
-2 361 -3 361 -141 -358 -141 -358 -102 -3 -101 -3 0 491 0 491 -22 -7 c-47
-14 -99 -45 -134 -81 -57 -57 -74 -107 -85 -251 -7 -95 -15 -138 -31 -172 -84
-173 -407 -300 -766 -300 l-92 0 6 -57 c68 -661 339 -1236 799 -1699 361 -363
810 -617 1305 -738 245 -61 342 -71 660 -71 303 0 372 7 614 61 103 23 394
114 425 133 12 8 12 16 1 55 -19 69 -9 180 23 241 35 68 81 109 221 194 170
103 152 111 303 -134 249 -406 237 -383 225 -411 -12 -25 -137 -111 -240 -164
-110 -57 -222 -58 -325 -2 l-47 25 -93 -36 c-684 -271 -1408 -288 -2097 -52
-775 266 -1427 861 -1764 1611 -540 1197 -235 2616 748 3483 488 431 1072 685
1726 750 155 16 533 5 695 -19z m-599 -2631 c45 -21 84 -81 84 -130 0 -54 11
-69 46 -69 45 0 83 19 89 44 3 12 11 53 18 91 l12 70 103 3 103 3 -7 -37 -7
-36 42 26 c23 15 63 31 90 38 101 23 167 -49 126 -136 -38 -79 -125 -82 -150
-6 -15 44 -44 50 -89 19 -33 -23 -33 -23 -90 -293 -32 -149 -60 -279 -62 -288
-5 -16 -19 -18 -105 -18 -54 0 -99 1 -99 3 0 1 22 107 49 235 40 193 45 232
32 226 -9 -3 -35 -13 -58 -21 -37 -13 -43 -19 -48 -51 -33 -199 -135 -347
-263 -383 -58 -16 -153 -6 -196 20 -68 43 -97 158 -77 306 16 112 39 180 86
250 86 128 256 190 371 134z m2222 -2131 c22 -22 13 -56 -20 -81 -18 -13 -100
-66 -182 -117 -116 -72 -150 -89 -158 -79 -32 49 -40 72 -27 80 8 4 86 53 174
108 158 99 190 112 213 89z m-519 -85 c11 -10 117 -177 236 -371 152 -249 214
-359 210 -372 -9 -28 -44 -36 -65 -14 -37 38 -440 705 -440 727 0 22 16 47 31
47 4 0 16 -8 28 -17z m732 -273 c24 -13 25 -61 2 -82 -29 -24 -336 -213 -342
-210 -3 1 -16 20 -29 41 l-22 38 177 111 c98 61 182 112 186 112 5 0 17 -5 28
-10z"/>
<path d="M4750 3754 c-33 -24 -46 -40 -76 -97 -61 -116 -86 -335 -44 -377 27
-27 82 -26 115 3 23 19 32 49 77 245 27 123 47 226 44 229 -3 3 -24 7 -48 10
-31 3 -50 -1 -68 -13z"/>
<path d="M3167 3756 c-45 -44 -84 -146 -104 -266 -25 -155 -4 -210 81 -210 36
0 50 6 75 30 34 34 67 115 77 188 6 45 4 51 -15 57 -49 15 -52 107 -6 144 29
22 31 38 9 69 -24 35 -75 30 -117 -12z"/>
</g>
</svg>
