<?xml version="1.0"?>
<svg xmlns="http://www.w3.org/2000/svg" xmlns:xlink="http://www.w3.org/1999/xlink" id="Gradient" viewBox="0 0 512 512" width="512" height="512"><defs><linearGradient id="linear-gradient" x1="256" y1="496" x2="256" y2="16" gradientUnits="userSpaceOnUse"><stop offset="0" stop-color="#27c1e6"/><stop offset="0.5" stop-color="#c275e9"/><stop offset="1" stop-color="#f2515d"/></linearGradient></defs><path d="M192,88a8,8,0,1,1-8-8A8,8,0,0,1,192,88Zm32-32a8,8,0,1,0,8,8A8,8,0,0,0,224,56Zm80,0a8,8,0,1,0,8,8A8,8,0,0,0,304,56ZM264,80a8,8,0,1,0,8,8A8,8,0,0,0,264,80Zm80,0a8,8,0,1,0,8,8A8,8,0,0,0,344,80ZM461.657,266.343a8,8,0,0,1,1.932,8.187,42,42,0,0,1-9.932,15.127A47.957,47.957,0,0,1,432,301.978V312a23.864,23.864,0,0,1-6.117,16.015A23.905,23.905,0,0,1,432,344v40h8a8,8,0,0,1,8,8v32a72.081,72.081,0,0,1-72,72H152a72.081,72.081,0,0,1-72-72V392a8,8,0,0,1,8-8h8V344a23.9,23.9,0,0,1,6.131-16A23.9,23.9,0,0,1,96,312v-8c-19.269,0-31.114-7.8-37.657-14.343a42,42,0,0,1-9.932-15.127,8,8,0,0,1,1.932-8.187l22.628-22.627A39.734,39.734,0,0,1,101.254,232H112V216h-8a8,8,0,0,1-8-8V184H88a8,8,0,0,1-8-8V136A120.136,120.136,0,0,1,200,16H328A120.136,120.136,0,0,1,448,136v40a8,8,0,0,1-8,8h-8v24a8,8,0,0,1-8,8h-8v16.351a39.7,39.7,0,0,1,23.029,11.364ZM400,216H296v16H400Zm16-32H232v16H416ZM96,168H432V136A104.118,104.118,0,0,0,328,32H200A104.118,104.118,0,0,0,96,136Zm16,16v16H216V184Zm16,48H280V216H128ZM112,384h50.555l-38.4-48H120a8.009,8.009,0,0,0-8,8Zm232-48H144.645l49.839,62.3Zm88,64H232l-36.924,15.385A8,8,0,0,1,185.753,413l-10.4-13H96v24a56.064,56.064,0,0,0,56,56H376a56.064,56.064,0,0,0,56-56Zm-16-16V344a8.009,8.009,0,0,0-8-8H385.6L270.4,384Zm0-80c-19.269,0-31.114-7.8-37.657-14.343q-1.266-1.267-2.343-2.525-1.078,1.254-2.343,2.525C367.114,296.2,355.269,304,336,304s-31.114-7.8-37.657-14.343q-1.266-1.267-2.343-2.525-1.078,1.254-2.343,2.525C287.114,296.2,275.269,304,256,304s-31.114-7.8-37.657-14.343q-1.266-1.267-2.343-2.525-1.078,1.254-2.343,2.525C207.114,296.2,195.269,304,176,304s-31.114-7.8-37.657-14.343q-1.266-1.267-2.343-2.525-1.078,1.254-2.343,2.525A47.957,47.957,0,0,1,112,301.978V312a8.009,8.009,0,0,0,8,8H408a7.981,7.981,0,0,0,8-8Zm30.25-30.436-18.534-18.535A23.849,23.849,0,0,0,410.745,248H101.254a23.846,23.846,0,0,0-16.97,7.029L65.744,273.57C69.315,279.035,77.927,288,96,288c25.934,0,32.349-18.345,32.411-18.53a8,8,0,0,1,15.178,0C143.834,270.153,150.5,288,176,288c25.934,0,32.349-18.345,32.411-18.53a8,8,0,0,1,15.178,0C223.834,270.153,230.5,288,256,288s32.166-17.847,32.437-18.607a7.981,7.981,0,0,1,15.152.077C303.834,270.153,310.5,288,336,288s32.166-17.847,32.437-18.607a7.981,7.981,0,0,1,15.152.077C383.834,270.153,390.5,288,416,288,434.048,288,442.662,279.059,446.25,273.564Z" style="fill:url(#linear-gradient)"/></svg>
