<?xml version="1.0" encoding="utf-8"?>
<!-- Generator: Adobe Illustrator 23.0.1, SVG Export Plug-In . SVG Version: 6.00 Build 0)  -->
<svg version="1.1" id="Layer_1" xmlns:sketch="http://www.bohemiancoding.com/sketch/ns"
	 xmlns="http://www.w3.org/2000/svg" xmlns:xlink="http://www.w3.org/1999/xlink" x="0px" y="0px" viewBox="0 0 366 133"
	 style="enable-background:new 0 0 366 133;" xml:space="preserve">
<style type="text/css">
	.st0{filter:url(#Adobe_OpacityMaskFilter);}
	.st1{fill-rule:evenodd;clip-rule:evenodd;fill:#FFFFFF;}
	.st2{mask:url(#mask-2_1_);fill-rule:evenodd;clip-rule:evenodd;fill:url(#Shape_1_);}
	.st3{fill-rule:evenodd;clip-rule:evenodd;fill:#FCB61A;}
	.st4{fill:none;}
</style>
<title>Greggs2014</title>
<desc>Created with Sketch.</desc>
<g id="Page-1" sketch:type="MSPage">
	<g id="Clipped" sketch:type="MSLayerGroup">
		<g id="SVGID_1_">
		</g>
		<defs>
			<filter id="Adobe_OpacityMaskFilter" filterUnits="userSpaceOnUse" x="-14.5" y="-62.6" width="395.3" height="210.3">
				<feColorMatrix  type="matrix" values="1 0 0 0 0  0 1 0 0 0  0 0 1 0 0  0 0 0 1 0"/>
			</filter>
		</defs>
		<mask maskUnits="userSpaceOnUse" x="-14.5" y="-62.6" width="395.3" height="210.3" id="mask-2_1_">
			<g class="st0">
				<path id="path-1_1_" class="st1" d="M8.3,0C3.7,0,0,3.7,0,8.3v68.5c0,4.6,3.7,8.3,8.3,8.3H358c4.6,0,8.3-3.7,8.3-8.3V8.3
					c0-4.6-3.7-8.3-8.3-8.3H8.3L8.3,0z"/>
			</g>
		</mask>
		
			<linearGradient id="Shape_1_" gradientUnits="userSpaceOnUse" x1="-327.1348" y1="576.5379" x2="-326.206" y2="576.2301" gradientTransform="matrix(395.3 0 0 -210.3 129315.8984 121256.0938)">
			<stop  offset="0" style="stop-color:#00548E"/>
			<stop  offset="0.1731" style="stop-color:#005A94"/>
			<stop  offset="0.4044" style="stop-color:#0069A5"/>
			<stop  offset="0.6688" style="stop-color:#0083C1"/>
			<stop  offset="0.9557" style="stop-color:#00A7E7"/>
			<stop  offset="1" style="stop-color:#00ADEE"/>
		</linearGradient>
		<path id="Shape" sketch:type="MSShapeGroup" class="st2" d="M11-62.6L380.8,2.6l-25.6,145.1L-14.5,82.5L11-62.6z"/>
	</g>
	<path sketch:type="MSShapeGroup" class="st3" d="M39.1,35.6c0,1.7-1.3,3-3,3H22.6c-1.7,0-3-1.3-3-3V22.3c0-1.7,1.3-3,3-3h13.5
		c1.7,0,3,1.3,3,3V35.6L39.1,35.6z"/>
	<path sketch:type="MSShapeGroup" class="st3" d="M66.5,35.6c0,1.7-1.3,3-3,3H50c-1.7,0-3-1.3-3-3V22.3c0-1.7,1.3-3,3-3h13.5
		c1.7,0,3,1.3,3,3V35.6L66.5,35.6z"/>
	<path sketch:type="MSShapeGroup" class="st3" d="M39.1,62.8c0,1.7-1.3,3-3,3H22.6c-1.7,0-3-1.3-3-3V49.5c0-1.7,1.3-3,3-3h13.5
		c1.7,0,3,1.3,3,3V62.8L39.1,62.8z"/>
	<path sketch:type="MSShapeGroup" class="st3" d="M66.5,62.8c0,1.7-1.3,3-3,3H50c-1.7,0-3-1.3-3-3V49.5c0-1.7,1.3-3,3-3h13.5
		c1.7,0,3,1.3,3,3V62.8L66.5,62.8z"/>
	<path sketch:type="MSShapeGroup" class="st1" d="M128.6,61.1c-5.5,2.9-11.7,4.5-18.7,4.5c-13.9,0-23.8-9.4-23.8-23.5
		c0-14.5,9.9-23.9,23.8-23.9c6.9,0,13.1,1.5,17.8,5.7l-5.9,6c-2.9-2.8-7.3-4.4-11.8-4.4c-9.3,0-15.5,7.1-15.5,16.1
		c0,9.6,6.2,16.8,15.5,16.8c4.1,0,7.8-0.8,10.6-2.4V45.3h-9.2V38h17.3L128.6,61.1L128.6,61.1z"/>
	<path sketch:type="MSShapeGroup" class="st1" d="M138.1,19.3h15.7c8.7,0,16.8,2.8,16.8,13c0,6.5-3.8,11.3-10.5,12.3l12,20h-9.7
		L152,45.3h-5.9v19.1h-8V19.3L138.1,19.3z M152.4,38.4c4.5,0,9.8-0.4,9.8-6.3c0-5.4-5-6-9.1-6h-6.9v12.3H152.4L152.4,38.4z"/>
	<path sketch:type="MSShapeGroup" class="st1" d="M179.4,19.3h29.9v7.3h-21.9v11.1h20.7v7.2h-20.7v12.3h23v7.3h-31V19.3z"/>
	<path sketch:type="MSShapeGroup" class="st1" d="M258.7,61.1c-5.5,2.9-11.7,4.5-18.7,4.5c-13.9,0-23.8-9.4-23.8-23.5
		c0-14.5,9.9-23.9,23.8-23.9c6.9,0,13.1,1.5,17.8,5.7l-5.9,6c-2.9-2.8-7.3-4.4-11.8-4.4c-9.3,0-15.5,7.1-15.5,16.1
		c0,9.6,6.2,16.8,15.5,16.8c4.1,0,7.8-0.8,10.6-2.4V45.3h-9.2V38h17.3L258.7,61.1L258.7,61.1z"/>
	<path sketch:type="MSShapeGroup" class="st1" d="M308.7,61.1c-5.5,2.9-11.7,4.5-18.7,4.5c-13.9,0-23.9-9.4-23.9-23.5
		c0-14.5,9.9-23.9,23.9-23.9c6.9,0,13.1,1.5,17.8,5.7l-5.9,6c-2.9-2.8-7.3-4.4-11.8-4.4c-9.3,0-15.5,7.1-15.5,16.1
		c0,9.6,6.2,16.8,15.5,16.8c4.1,0,7.8-0.8,10.6-2.4V45.3h-9.2V38h17.3L308.7,61.1L308.7,61.1z"/>
	<path sketch:type="MSShapeGroup" class="st1" d="M340.6,29c-1.7-2.4-4.8-3.6-7.9-3.6c-3.7,0-7.4,1.7-7.4,5.8
		c0,9.1,21.4,3.9,21.4,20c0,9.7-7.6,14.4-16.5,14.4c-5.6,0-11.1-1.7-14.8-6.1l6.1-5.9c2,3,5.4,4.7,8.9,4.7c3.7,0,7.9-2,7.9-6.2
		c0-9.9-21.4-4.2-21.4-20.3c0-9.3,8.3-13.7,16.6-13.7c4.7,0,9.4,1.3,12.9,4.7L340.6,29L340.6,29z"/>
	<path sketch:type="MSShapeGroup" class="st1" d="M26.4,126.2h-2.7l-0.6-4.7h-8.3l-2.5,4.7H9.7l10-18.3h-1.9l0.4-1.8h5.2L26.4,126.2
		L26.4,126.2z M22.9,119.7l-1.2-9.1c-0.1-0.4-0.1-0.9-0.1-1.3v-1c-0.2,0.7-0.6,1.8-0.9,2.4l-4.9,9.1h7.1V119.7z"/>
	<path sketch:type="MSShapeGroup" class="st1" d="M35.9,104.3L32,123c-0.1,0.4-0.1,0.8-0.1,1c0,0.4,0.3,0.6,0.7,0.6
		c0.4,0,1.1-0.2,1.4-0.4l-0.4,1.7c-0.5,0.3-1.4,0.6-2.1,0.6c-1.4,0-2.3-0.7-2.3-2c0-0.3,0.1-0.9,0.2-1.4l3.6-16.8h-2l0.4-1.8h4.5
		V104.3z"/>
	<path sketch:type="MSShapeGroup" class="st1" d="M57.2,110.7l-8.1,15.5h-1.9l-1.1-9.2l-5.1,9.2h-1.9l-2-15.5h2.5l1.1,9.9
		c0.1,0.8,0.2,2,0.2,2.9c0.3-0.9,0.9-2,1.4-2.9l3.5-6.5l-0.4-3.3h2.3l1,9.9c0.1,0.9,0.1,2,0.1,2.9c0.3-0.9,0.8-2.2,1.2-2.9l5.1-9.8
		h2.1V110.7z"/>
	<path sketch:type="MSShapeGroup" class="st1" d="M71.1,110.7l-2.6,12.2c-0.1,0.4-0.2,0.7-0.2,1c0,0.4,0.3,0.6,0.7,0.6
		s1.1-0.2,1.5-0.4l-0.4,1.7c-0.5,0.3-1.4,0.6-2.1,0.6c-1.4,0-2.2-0.8-2.2-1.9c-0.8,1.1-2.6,2.1-4.5,2.1c-3.1,0-5-2.1-5-5.4
		c0-5.4,4.4-10.6,10.1-10.6c1.1,0,2.3,0.3,3.1,0.7L71.1,110.7L71.1,110.7z M68.3,112.5c-0.4-0.3-1.2-0.4-1.8-0.4
		c-4.1,0-7.6,4.5-7.6,8.8c0,2.4,1.1,3.7,3,3.7c1.3,0,2.4-0.6,3.2-1.5c0.8-1,1.4-2.5,1.8-4.6L68.3,112.5L68.3,112.5z"/>
	<path sketch:type="MSShapeGroup" class="st1" d="M87.8,110.7l-3.1,14.4c-0.5,2.4-1.2,4-2.3,5.3c-1.3,1.5-3.5,2.5-6.1,2.5
		c-3.2,0-5.5-1.6-5.5-4c0-1.9,1.4-3.1,3.7-3.6c-0.9-0.7-1.4-1.7-1.4-3c0-0.8,0.2-1.7,0.4-3l1.9-8.7h2.5l-1.9,9.1
		c-0.2,0.9-0.3,1.6-0.3,2.3s0.2,1.4,0.7,1.8c0.4,0.4,1.1,0.6,2,0.6c1.4,0,2.8-0.8,3.6-1.8c0.9-1.2,1.4-3,1.9-5l1.5-6.9H87.8
		L87.8,110.7z M82.4,124.3c-1,1.2-2.6,1.8-4.7,2c-3,0.3-4.6,0.8-4.6,2.6c0,1.4,1.4,2.4,3.3,2.4c1.5,0,3-0.6,3.8-1.5
		c0.9-1,1.5-2.3,1.8-3.9L82.4,124.3L82.4,124.3z"/>
	<path sketch:type="MSShapeGroup" class="st1" d="M100.1,112.9c-1-0.4-2.3-0.8-3.6-0.8c-2.3,0-3.8,1.1-3.8,2.5
		c0,1.2,1.2,1.9,2.7,2.7c2.6,1.3,3.9,2.3,3.9,4.3c0,3.3-3.1,4.8-6.5,4.8c-1.6,0-3.5-0.4-4.7-1.2l0.4-1.8c1.1,0.8,2.8,1.3,4.4,1.3
		c2.4,0,4-1.1,4-2.7c0-1.3-1-1.9-3.1-2.9c-1.8-0.9-3.4-1.9-3.4-4.1c0-1.2,0.6-2.4,1.7-3.2c1.1-0.9,2.7-1.3,4.6-1.3
		c1.3,0,3,0.3,3.8,0.8L100.1,112.9L100.1,112.9z"/>
	<path sketch:type="MSShapeGroup" class="st1" d="M123.6,106l-0.4,1.8h-8.9l-1.6,7.2h7.3l-0.4,1.8h-7.2l-2,9.4h-2.7L112,106H123.6z"
		/>
	<path sketch:type="MSShapeGroup" class="st1" d="M131.8,112.6c-0.2,0-0.6-0.1-0.9-0.1c-1.1,0-2,0.4-2.6,1.1c-1.1,1.2-1.7,3.3-2.3,6
		l-1.4,6.5H122l2.9-13.6h-2.1l0.4-1.8h3.8v2.3c1-1.6,2.5-2.6,4.3-2.6c0.3,0,0.8,0,1,0.1L131.8,112.6L131.8,112.6z"/>
	<path sketch:type="MSShapeGroup" class="st1" d="M137.6,120c-1,0-2.4-0.2-3.3-0.5c-0.1,0.3-0.1,0.8-0.1,1.2c0,2.5,1.2,3.9,3.8,3.9
		c1.8,0,4-0.8,5.2-1.6l-0.4,2c-1.3,0.8-3.4,1.4-5.3,1.4c-3.5,0-5.7-2-5.7-5.5c0-3,1.3-6,3.4-8c1.5-1.4,3.6-2.5,5.7-2.5
		c2.4,0,4.5,1.2,4.5,3.8C145.3,117.3,142.4,120,137.6,120 M140.7,112.2c-1,0-2,0.4-2.9,1c-1.5,1.1-2.7,3-3.2,4.7
		c0.7,0.3,2,0.4,2.9,0.4c3.3,0,5.4-1.6,5.4-4C142.9,113,142.1,112.2,140.7,112.2"/>
	<path sketch:type="MSShapeGroup" class="st1" d="M157.5,112.9c-1-0.4-2.3-0.8-3.6-0.8c-2.3,0-3.8,1.1-3.8,2.5
		c0,1.2,1.2,1.9,2.7,2.7c2.5,1.3,3.9,2.3,3.9,4.3c0,3.3-3.1,4.8-6.5,4.8c-1.6,0-3.5-0.4-4.7-1.2l0.4-1.8c1.1,0.8,2.8,1.3,4.4,1.3
		c2.4,0,4-1.1,4-2.7c0-1.3-1-1.9-3.1-2.9c-1.8-0.9-3.4-1.9-3.4-4.1c0-1.2,0.6-2.4,1.7-3.2c1.1-0.9,2.7-1.3,4.6-1.3
		c1.3,0,3,0.3,3.8,0.8L157.5,112.9L157.5,112.9z"/>
	<path sketch:type="MSShapeGroup" class="st1" d="M173,125.9c-0.5,0.3-1.3,0.6-2.1,0.6c-1.1,0-2.2-0.6-2.2-2c0-0.5,0.1-1.2,0.2-1.7
		l1.2-5.7c0.2-0.9,0.3-1.6,0.3-2.3c0-0.7-0.2-1.4-0.7-1.8c-0.4-0.4-1.1-0.6-2-0.6c-1.4,0-2.8,0.8-3.6,1.8c-0.9,1.2-1.4,3-1.9,5
		l-1.5,6.9h-2.5l4.7-21.8h2.5l-1.8,8.2c1-1.2,2.7-2.1,4.6-2.1c2.6,0,4.7,1.4,4.7,4c0,0.8-0.2,1.7-0.4,3l-1.2,5.5
		c-0.1,0.4-0.2,0.7-0.2,1c0,0.4,0.3,0.6,0.7,0.6c0.4,0,1.1-0.2,1.4-0.4L173,125.9L173,125.9z"/>
	<path sketch:type="MSShapeGroup" class="st1" d="M177.8,126.3c-0.7,0-1.2-0.5-1.2-1.2c0-1,0.9-1.9,1.9-1.9c0.7,0,1.3,0.5,1.3,1.2
		C179.8,125.4,178.8,126.3,177.8,126.3"/>
	<path sketch:type="MSShapeGroup" class="st1" d="M203.6,126.2h-2.7l-0.6-4.7H192l-2.5,4.7h-2.6l10-18.3H195l0.4-1.8h5.2
		L203.6,126.2L203.6,126.2z M200,119.7l-1.2-9.1c-0.1-0.4-0.1-0.9-0.1-1.3v-1c-0.2,0.7-0.6,1.8-0.9,2.4l-4.9,9.1h7.1V119.7z"/>
	<path sketch:type="MSShapeGroup" class="st1" d="M213.1,104.3l-4,18.6c-0.1,0.4-0.1,0.8-0.1,1c0,0.4,0.3,0.6,0.7,0.6
		c0.4,0,1.1-0.2,1.4-0.4l-0.4,1.7c-0.5,0.3-1.4,0.6-2.1,0.6c-1.4,0-2.3-0.7-2.3-2c0-0.3,0.1-0.9,0.2-1.4l3.6-16.8H208l0.4-1.8
		L213.1,104.3L213.1,104.3z"/>
	<path sketch:type="MSShapeGroup" class="st1" d="M234.4,110.7l-8.1,15.5h-1.9l-1.1-9.2l-5.1,9.2h-1.9l-2-15.5h2.5l1.1,9.9
		c0.1,0.8,0.2,2,0.2,2.9c0.3-0.9,0.9-2,1.4-2.9l3.5-6.5l-0.4-3.3h2.3l1,9.9c0.1,0.9,0.1,2,0.1,2.9c0.3-0.9,0.8-2.2,1.2-2.9l5.1-9.8
		h2.1V110.7z"/>
	<path sketch:type="MSShapeGroup" class="st1" d="M248.3,110.7l-2.6,12.2c-0.1,0.4-0.2,0.7-0.2,1c0,0.4,0.3,0.6,0.7,0.6
		c0.4,0,1.1-0.2,1.5-0.4l-0.3,1.7c-0.5,0.3-1.4,0.6-2.1,0.6c-1.4,0-2.2-0.8-2.2-1.9c-0.8,1.1-2.6,2.1-4.5,2.1c-3.1,0-5-2.1-5-5.4
		c0-5.4,4.4-10.6,10.1-10.6c1.1,0,2.3,0.3,3.1,0.7L248.3,110.7L248.3,110.7z M245.4,112.5c-0.4-0.3-1.2-0.4-1.8-0.4
		c-4.1,0-7.6,4.5-7.6,8.8c0,2.4,1.1,3.7,3,3.7c1.3,0,2.4-0.6,3.2-1.5c0.8-1,1.4-2.5,1.8-4.6L245.4,112.5L245.4,112.5z"/>
	<path sketch:type="MSShapeGroup" class="st1" d="M265,110.7l-3.1,14.4c-0.5,2.4-1.2,4-2.3,5.3c-1.3,1.5-3.5,2.5-6.1,2.5
		c-3.2,0-5.5-1.6-5.5-4c0-1.9,1.4-3.1,3.7-3.6c-0.9-0.7-1.4-1.7-1.4-3c0-0.8,0.2-1.7,0.4-3l1.9-8.7h2.5l-1.9,9.1
		c-0.2,0.9-0.3,1.6-0.3,2.3s0.2,1.4,0.7,1.8c0.4,0.4,1.1,0.6,2,0.6c1.4,0,2.8-0.8,3.6-1.8c0.9-1.2,1.4-3,1.9-5l1.5-6.9H265
		L265,110.7z M259.6,124.3c-1,1.2-2.6,1.8-4.7,2c-3,0.3-4.6,0.8-4.6,2.6c0,1.4,1.4,2.4,3.3,2.4c1.5,0,3-0.6,3.8-1.5
		c0.9-1,1.5-2.3,1.8-3.9L259.6,124.3L259.6,124.3z"/>
	<path sketch:type="MSShapeGroup" class="st1" d="M277.3,112.9c-1-0.4-2.3-0.8-3.6-0.8c-2.3,0-3.8,1.1-3.8,2.5
		c0,1.2,1.2,1.9,2.7,2.7c2.6,1.3,3.9,2.3,3.9,4.3c0,3.3-3.1,4.8-6.5,4.8c-1.6,0-3.5-0.4-4.7-1.2l0.4-1.8c1.1,0.8,2.8,1.3,4.4,1.3
		c2.4,0,4-1.1,4-2.7c0-1.3-1-1.9-3.1-2.9c-1.7-0.9-3.4-1.9-3.4-4.1c0-1.2,0.6-2.4,1.7-3.2c1.1-0.9,2.7-1.3,4.6-1.3
		c1.3,0,3,0.3,3.8,0.8L277.3,112.9L277.3,112.9z"/>
	<path sketch:type="MSShapeGroup" class="st1" d="M301.5,106l-0.4,1.8h-5.9l-3.9,18.4h-2.7l3.9-18.4h-5.9l0.4-1.8H301.5z"/>
	<path sketch:type="MSShapeGroup" class="st1" d="M312.6,110.7l-2.6,12.2c-0.1,0.4-0.2,0.7-0.2,1c0,0.4,0.3,0.6,0.7,0.6
		s1.1-0.2,1.5-0.4l-0.4,1.7c-0.5,0.3-1.4,0.6-2.1,0.6c-1.4,0-2.2-0.8-2.2-1.9c-0.8,1.1-2.6,2.1-4.5,2.1c-3.1,0-5-2.1-5-5.4
		c0-5.4,4.4-10.6,10.1-10.6c1.1,0,2.3,0.3,3.1,0.7L312.6,110.7L312.6,110.7z M309.8,112.5c-0.4-0.3-1.2-0.4-1.8-0.4
		c-4.1,0-7.6,4.5-7.6,8.8c0,2.4,1.1,3.7,3,3.7c1.3,0,2.4-0.6,3.2-1.5c0.8-1,1.4-2.5,1.8-4.6L309.8,112.5L309.8,112.5z"/>
	<path sketch:type="MSShapeGroup" class="st1" d="M325.4,112.9c-1-0.4-2.3-0.8-3.6-0.8c-2.3,0-3.8,1.1-3.8,2.5
		c0,1.2,1.2,1.9,2.7,2.7c2.6,1.3,3.9,2.3,3.9,4.3c0,3.3-3.1,4.8-6.5,4.8c-1.6,0-3.5-0.4-4.7-1.2l0.4-1.8c1.1,0.8,2.8,1.3,4.4,1.3
		c2.4,0,4-1.1,4-2.7c0-1.3-1-1.9-3.1-2.9c-1.8-0.9-3.4-1.9-3.4-4.1c0-1.2,0.6-2.4,1.7-3.2c1.1-0.9,2.7-1.3,4.6-1.3
		c1.3,0,3,0.3,3.8,0.8L325.4,112.9L325.4,112.9z"/>
	<path sketch:type="MSShapeGroup" class="st1" d="M336.3,110.7l-0.4,1.8h-3.7l-1.9,9.1c-0.1,0.4-0.2,1-0.2,1.3
		c0,1.1,0.7,1.7,1.8,1.7c1,0,2.1-0.4,2.8-0.9l-0.4,1.8c-0.9,0.5-2.1,0.9-3.2,0.9c-2.1,0-3.6-1.1-3.6-3.2c0-0.5,0.1-1.2,0.3-2
		l1.9-8.8h-2.3l0.4-1.8h2.3l0.9-4l2.6-0.8l-1.1,4.9H336.3L336.3,110.7z"/>
	<path sketch:type="MSShapeGroup" class="st1" d="M352.3,110.7l-3.1,14.4c-0.5,2.4-1.2,4-2.3,5.3c-1.3,1.5-3.5,2.5-6.1,2.5
		c-3.2,0-5.5-1.6-5.5-4c0-1.9,1.4-3.1,3.7-3.6c-0.9-0.7-1.4-1.7-1.4-3c0-0.8,0.2-1.7,0.4-3l1.9-8.7h2.5l-1.9,9.1
		c-0.2,0.9-0.3,1.6-0.3,2.3s0.2,1.4,0.7,1.8c0.4,0.4,1.1,0.6,2,0.6c1.4,0,2.8-0.8,3.6-1.8c0.9-1.2,1.4-3,1.9-5l1.5-6.9H352.3
		L352.3,110.7z M346.9,124.3c-1,1.2-2.6,1.8-4.7,2c-3,0.3-4.6,0.8-4.6,2.6c0,1.4,1.4,2.4,3.3,2.4c1.5,0,3-0.6,3.8-1.5
		c0.9-1,1.5-2.3,1.9-3.9L346.9,124.3L346.9,124.3z"/>
	<path sketch:type="MSShapeGroup" class="st1" d="M354.5,126.3c-0.7,0-1.2-0.5-1.2-1.2c0-1,0.9-1.9,1.9-1.9c0.7,0,1.3,0.5,1.3,1.2
		C356.4,125.4,355.4,126.3,354.5,126.3"/>
	<path sketch:type="MSShapeGroup" class="st1" d="M358,105.8l-0.1,0.7h-1.2l-0.7,3.3h-1l0.7-3.3h-1.2l0.1-0.7H358L358,105.8z
		 M362.4,105.8l-0.8,4h-0.8l0.5-2.3l-1.5,2.3h-0.5l-0.5-2.3l-0.5,2.3h-0.8l0.8-4h0.9l0.7,2.6l1.7-2.6H362.4L362.4,105.8z"/>
	<rect id="Rectangle-path" sketch:type="MSShapeGroup" class="st4" width="366.2" height="132.9">
	</rect>
</g>
</svg>
