<?xml version="1.0" encoding="utf-8"?>
<!-- Generator: Adobe Illustrator 23.0.1, SVG Export Plug-In . SVG Version: 6.00 Build 0)  -->
<svg version="1.1" id="Layer_1" xmlns="http://www.w3.org/2000/svg" xmlns:xlink="http://www.w3.org/1999/xlink" x="0px" y="0px"
	 viewBox="0 0 100 100" style="enable-background:new 0 0 100 100;" xml:space="preserve">
<style type="text/css">
	.st0{fill-rule:evenodd;clip-rule:evenodd;fill:#FCB61A;}
</style>
<path class="st0" d="M42.4,37.2c0,3.2-2.4,5.6-5.6,5.6H11.3c-3.2,0-5.6-2.4-5.6-5.6v-25c0-3.2,2.4-5.6,5.6-5.6h25.4
	c3.2,0,5.6,2.4,5.6,5.6V37.2L42.4,37.2z"/>
<path class="st0" d="M93.9,37.2c0,3.2-2.4,5.6-5.6,5.6H62.9c-3.2,0-5.6-2.4-5.6-5.6v-25c0-3.2,2.4-5.6,5.6-5.6h25.4
	c3.2,0,5.6,2.4,5.6,5.6V37.2L93.9,37.2z"/>
<path class="st0" d="M42.4,88.4c0,3.2-2.4,5.6-5.6,5.6H11.3c-3.2,0-5.6-2.4-5.6-5.6v-25c0-3.2,2.4-5.6,5.6-5.6h25.4
	c3.2,0,5.6,2.4,5.6,5.6V88.4L42.4,88.4z"/>
<path class="st0" d="M93.9,88.4c0,3.2-2.4,5.6-5.6,5.6H62.9c-3.2,0-5.6-2.4-5.6-5.6v-25c0-3.2,2.4-5.6,5.6-5.6h25.4
	c3.2,0,5.6,2.4,5.6,5.6V88.4L93.9,88.4z"/>
</svg>
