<?xml version="1.0"?>
<svg xmlns="http://www.w3.org/2000/svg" xmlns:xlink="http://www.w3.org/1999/xlink" id="Gradient" viewBox="0 0 512 512" width="512" height="512"><defs><linearGradient id="linear-gradient" x1="256" y1="496" x2="256" y2="16.001" gradientUnits="userSpaceOnUse"><stop offset="0" stop-color="#12c2e9"/><stop offset="0.5" stop-color="#c471ed"/><stop offset="1" stop-color="#f64f59"/></linearGradient></defs><path d="M493.126,97.858a8,8,0,0,0-6.557-1.729l-176,32A8,8,0,0,0,304,136V272.581A56,56,0,1,0,352,328V166.938l96-13.714v87.357A56,56,0,1,0,496,296V104A8,8,0,0,0,493.126,97.858ZM296,368a40,40,0,1,1,40-40A40.045,40.045,0,0,1,296,368Zm144-32a40,40,0,1,1,40-40A40.045,40.045,0,0,1,440,336Zm40-79.138a56.251,56.251,0,0,0-16-11.448V144a8,8,0,0,0-9.132-7.919l-112,16A8,8,0,0,0,336,160V288.862a56.251,56.251,0,0,0-16-11.448V142.677l160-29.091ZM205.029,17.779a8,8,0,0,0-6.7-1.6l-112,24A8,8,0,0,0,80,48V192.581A56,56,0,1,0,128,248V80.566L201.772,63.8A8,8,0,0,0,208,56V24A8,8,0,0,0,205.029,17.779ZM72,288a40,40,0,1,1,40-40A40.045,40.045,0,0,1,72,288ZM192,49.614,118.228,66.379A8,8,0,0,0,112,74.18V208.862a56.251,56.251,0,0,0-16-11.448V54.467L192,33.9ZM296,304a24,24,0,1,0,24,24A24.027,24.027,0,0,0,296,304Zm0,32a8,8,0,1,1,8-8A8.009,8.009,0,0,1,296,336Zm144-64a24,24,0,1,0,24,24A24.027,24.027,0,0,0,440,272Zm0,32a8,8,0,1,1,8-8A8.009,8.009,0,0,1,440,304ZM72,224a24,24,0,1,0,24,24A24.027,24.027,0,0,0,72,224Zm0,32a8,8,0,1,1,8-8A8.009,8.009,0,0,1,72,256ZM208,440V264a8,8,0,0,0-8-8H168a8,8,0,0,0-8,8V384.581A56,56,0,1,0,208,440ZM176,272h16V400.862a56.251,56.251,0,0,0-16-11.448ZM112,440a40,40,0,1,1,40,40A40.045,40.045,0,0,1,112,440Zm64,0a24,24,0,1,0-24,24A24.027,24.027,0,0,0,176,440Zm-32,0a8,8,0,1,1,8,8A8.009,8.009,0,0,1,144,440Z" style="fill:url(#linear-gradient)"/></svg>
