<svg id="Gradient" height="512" viewBox="0 0 512 512" width="512" xmlns="http://www.w3.org/2000/svg" xmlns:xlink="http://www.w3.org/1999/xlink"><linearGradient id="linear-gradient" gradientUnits="userSpaceOnUse" x1="256" x2="256" y1="392" y2="120"><stop offset="0" stop-color="#12c2e9"/><stop offset=".5" stop-color="#c471ed"/><stop offset="1" stop-color="#f64f59"/></linearGradient><path d="m472 120h-432a24.028 24.028 0 0 0 -24 24v80a8 8 0 0 0 8 8 24 24 0 0 1 0 48 8 8 0 0 0 -8 8v80a24.028 24.028 0 0 0 24 24h432a24.028 24.028 0 0 0 24-24v-80a8 8 0 0 0 -8-8 24 24 0 0 1 0-48 8 8 0 0 0 8-8v-80a24.028 24.028 0 0 0 -24-24zm8 96.8a40.005 40.005 0 0 0 0 78.392v72.808a8.009 8.009 0 0 1 -8 8h-432a8.009 8.009 0 0 1 -8-8v-72.8a40.005 40.005 0 0 0 0-78.4v-72.8a8.009 8.009 0 0 1 8-8h432a8.009 8.009 0 0 1 8 8zm-128-32.8h16v16h-16zm0 32h16v16h-16zm0 32h16v16h-16zm0 32h16v16h-16zm0 32h16v16h-16zm0 32h16v16h-16zm0-192h16v16h-16zm-121.344 84.438-32 48a8 8 0 1 1 -13.312-8.876l32-48a8 8 0 0 1 13.312 8.876zm-46.656-4.438a8 8 0 1 1 8 8 8 8 0 0 1 -8-8zm48 48a8 8 0 1 1 -8-8 8 8 0 0 1 8 8zm54.958-49.655c-.662-2.04-.422-5.574-.19-8.99.441-6.507.942-13.884-3.53-20.029-4.509-6.2-12.031-8.075-18.075-9.584-3.29-.821-6.692-1.672-8.372-2.893-1.631-1.188-3.461-4.128-5.232-6.973-3.315-5.324-7.44-11.951-14.816-14.346-7.126-2.312-13.928.418-19.927 2.828-3.232 1.3-6.573 2.642-8.816 2.642s-5.584-1.343-8.816-2.642c-6-2.41-12.8-5.141-19.927-2.828-7.375 2.4-11.5 9.022-14.815 14.346-1.771 2.844-3.6 5.784-5.233 6.972-1.68 1.222-5.082 2.072-8.372 2.894-6.044 1.509-13.566 3.387-18.074 9.582-4.473 6.146-3.972 13.523-3.53 20.03.232 3.417.472 6.951-.191 8.991-.6 1.835-2.789 4.437-4.91 6.954-4.069 4.826-9.132 10.833-9.132 18.701s5.063 13.874 9.131 18.7c2.121 2.517 4.314 5.119 4.911 6.955.662 2.04.422 5.574.19 8.99-.441 6.507-.942 13.884 3.53 20.029 4.509 6.2 12.031 8.075 18.075 9.584 3.29.821 6.692 1.672 8.372 2.893 1.631 1.188 3.461 4.128 5.232 6.973 3.315 5.324 7.44 11.951 14.816 14.346 7.126 2.311 13.927-.419 19.927-2.828 3.232-1.3 6.573-2.642 8.816-2.642s5.584 1.343 8.816 2.642c4.4 1.765 9.221 3.7 14.29 3.7a18.119 18.119 0 0 0 5.637-.876c7.375-2.4 11.5-9.022 14.815-14.346 1.771-2.844 3.6-5.784 5.233-6.972 1.68-1.222 5.082-2.072 8.372-2.894 6.044-1.509 13.566-3.387 18.074-9.582 4.473-6.146 3.972-13.523 3.53-20.03-.232-3.417-.472-6.951.191-8.991.6-1.835 2.789-4.437 4.91-6.954 4.069-4.822 9.132-10.829 9.132-18.697s-5.063-13.874-9.131-18.7c-2.121-2.517-4.314-5.119-4.911-6.955zm-7.323 34.045c-2.968 3.52-6.332 7.511-7.895 12.324-1.617 4.98-1.255 10.311-.936 15.015.232 3.413.549 8.085-.5 9.532-1.089 1.495-5.483 2.593-9.014 3.474-4.553 1.137-9.714 2.425-13.912 5.481-4.151 3.021-6.939 7.5-9.4 11.452-1.939 3.115-4.353 6.992-6.173 7.583-1.6.529-5.892-1.2-9.021-2.456-4.427-1.779-9.445-3.8-14.781-3.8s-10.354 2.016-14.781 3.8c-3.129 1.257-7.416 2.987-9.022 2.456-1.82-.591-4.234-4.468-6.173-7.583-2.46-3.952-5.249-8.432-9.4-11.453-4.2-3.055-9.358-4.343-13.91-5.481-3.531-.881-7.926-1.979-9.015-3.475-1.053-1.446-.735-6.118-.5-9.53.32-4.7.681-10.035-.936-15.014-1.562-4.815-4.926-8.8-7.894-12.326-2.397-2.836-5.372-6.366-5.372-8.389s2.975-5.554 5.365-8.39c2.968-3.52 6.332-7.511 7.895-12.324 1.617-4.98 1.255-10.311.936-15.015-.232-3.413-.549-8.085.5-9.532 1.089-1.5 5.483-2.593 9.014-3.474 4.553-1.137 9.714-2.425 13.912-5.481 4.151-3.021 6.939-7.5 9.4-11.452 1.939-3.115 4.353-6.992 6.173-7.583 1.606-.525 5.892 1.2 9.021 2.456 4.43 1.779 9.448 3.795 14.784 3.795s10.354-2.016 14.781-3.795c3.13-1.257 7.419-2.982 9.022-2.456 1.82.591 4.234 4.468 6.173 7.583 2.46 3.952 5.249 8.432 9.4 11.453 4.2 3.055 9.358 4.343 13.91 5.481 3.531.881 7.926 1.979 9.015 3.475 1.053 1.446.735 6.118.5 9.53-.32 4.7-.681 10.035.936 15.014 1.562 4.815 4.926 8.805 7.894 12.326 2.39 2.836 5.365 6.366 5.365 8.389s-2.971 5.554-5.361 8.39z" fill="url(#linear-gradient)"/></svg>