<svg height="480pt" viewBox="-56 0 480 480" width="480pt" xmlns="http://www.w3.org/2000/svg" xmlns:xlink="http://www.w3.org/1999/xlink"><linearGradient id="a" gradientUnits="userSpaceOnUse" x1="184" x2="184" y1="552" y2="-77.336"><stop offset="0" stop-color="#12c2e9"/><stop offset=".5" stop-color="#c471ed"/><stop offset="1" stop-color="#f64f59"/></linearGradient><g fill="url(#a)"><path d="m24 0c-13.253906 0-24 10.746094-24 24v432c0 13.253906 10.746094 24 24 24h320c13.253906 0 24-10.746094 24-24v-432c0-13.253906-10.746094-24-24-24zm328 24v432c0 4.417969-3.582031 8-8 8h-320c-4.417969 0-8-3.582031-8-8v-432c0-4.417969 3.582031-8 8-8h320c4.417969 0 8 3.582031 8 8zm0 0"/><path d="m112 256h144c4.417969 0 8-3.582031 8-8v-128c0-4.417969-3.582031-8-8-8h-17.753906l-6.484375-25.9375c-.558594-2.242188-2.0625-4.136719-4.121094-5.1875-2.058594-1.054688-4.46875-1.167969-6.617187-.308594l-37.023438 14.816406-37.023438-14.816406c-2.148437-.859375-4.558593-.746094-6.617187.308594-2.058594 1.050781-3.5625 2.945312-4.121094 5.1875l-6.484375 25.9375h-17.753906c-4.417969 0-8 3.582031-8 8v128c0 4.417969 3.582031 8 8 8zm136-16h-40v-32h40zm0-48h-40v-16h40zm-16-64h16v32h-40v-32zm-40-18.585938 26.464844-10.582031 3.289062 13.167969h-29.753906zm0 18.585938v112h-16v-112zm-42.464844-29.167969 26.464844 10.582031v2.585938h-29.753906zm-29.535156 29.167969h40v32h-40zm0 48h40v16h-40zm0 32h40v32h-40zm0 0"/><path d="m296 336h-224c-4.417969 0-8 3.582031-8 8s3.582031 8 8 8h224c4.417969 0 8-3.582031 8-8s-3.582031-8-8-8zm0 0"/><path d="m296 384h-224c-4.417969 0-8 3.582031-8 8s3.582031 8 8 8h224c4.417969 0 8-3.582031 8-8s-3.582031-8-8-8zm0 0"/><path d="m144 288c-4.417969 0-8 3.582031-8 8s3.582031 8 8 8h80c4.417969 0 8-3.582031 8-8s-3.582031-8-8-8zm0 0"/></g></svg>