<?xml version="1.0" encoding="utf-8"?>
<!-- Generator: Adobe Illustrator 23.0.1, SVG Export Plug-In . SVG Version: 6.00 Build 0)  -->
<svg version="1.1" id="Layer_1" xmlns="http://www.w3.org/2000/svg" xmlns:xlink="http://www.w3.org/1999/xlink" x="0px" y="0px"
	 viewBox="0 0 100 100" style="enable-background:new 0 0 100 100;" xml:space="preserve">
<style type="text/css">
	.st0{fill:#96C31E;}
	.st1{fill:#F5F5F5;}
</style>
<path class="st0" d="M26.51,44.08c0.09-5.34,0.77-10.56,2.15-15.76c2.13-8.03,6.8-13.34,14.74-15.99c5.72-1.91,6.29-3.39,4.48-9.25
	c-0.29-0.92-1.42-1.85,0.08-2.7c1.01-0.58,2-0.48,3.05,0.01c3.07,1.44,3.8,4.38,4.09,7.2c0.31,3,1.81,4.57,4.27,5.9
	c10.53,5.72,13.58,13.44,9.93,25.21c-2.43,7.84-5.72,15.4-6.88,23.63c-1.45,10.25-1.51,20.32,2.48,30.1
	c0.9,2.21,1.28,4.54-0.56,6.41c-1.96,1.98-4.43,1.07-6.4,0.13c-10.99-5.25-18.8-13.81-24.43-24.43
	C28.47,65.02,26.82,54.69,26.51,44.08z"/>
<path class="st1" d="M46.75,39.91c-1.98,0.08-3.73-0.33-4.73-2.26c-0.41-0.8-0.54-1.65-0.13-2.5c0.2-0.41,0.5-0.72,1.02-0.63
	c0.49,0.08,0.54,0.47,0.58,0.88c0.2,1.71,0.84,2.32,2.54,2.45c1.48,0.11,2.94-0.8,3.63-2.25c0.59-1.24,0.28-2.71-0.74-3.83
	c-0.62-0.69-1.48-0.63-2.25-0.88c-0.52-0.17-1.21-0.2-1.28-0.9c-0.06-0.58,0.45-0.95,0.91-1.16c0.86-0.39,1.44-1.04,2.05-1.72
	c0.88-0.97,1.08-2.35,0.39-3.15c-0.62-0.71-2.3-0.78-3.27-0.13c-0.25,0.17-0.44,0.43-0.7,0.57c-0.53,0.29-1.13,0.64-1.61-0.03
	c-0.43-0.58-0.21-1.15,0.24-1.64c0.38-0.42,0.81-0.87,1.38-0.92c2.45-0.23,4.92-0.56,7.12,1.02c1.38,1,2.21,2.25,2.24,4.01
	c0.02,1.03-0.28,1.83-1.16,2.44c-0.76,0.52-0.85,1.19-0.05,1.79c1.56,1.16,2.11,2.79,1.79,4.57c-0.35,2.03-1.93,3.08-3.79,3.64
	C49.6,39.72,48.19,39.99,46.75,39.91z"/>
</svg>
