<?xml version="1.0" encoding="utf-8"?>
<!-- Generator: Adobe Illustrator 23.0.1, SVG Export Plug-In . SVG Version: 6.00 Build 0)  -->
<svg version="1.1" id="Layer_1" xmlns="http://www.w3.org/2000/svg" xmlns:xlink="http://www.w3.org/1999/xlink" x="0px" y="0px"
	 viewBox="0 0 1200 500" style="enable-background:new 0 0 1200 500;" xml:space="preserve">
<style type="text/css">
	.st0{fill:#1D1B28;}
	.st1{fill:#FFFFFF;}
	.st2{fill:url(#SVGID_1_);}
	.st3{fill:url(#SVGID_2_);}
	.st4{fill:url(#SVGID_3_);}
	.st5{fill:url(#SVGID_4_);}
	.st6{fill:url(#SVGID_5_);}
	.st7{fill:url(#SVGID_6_);}
	.st8{fill:url(#SVGID_7_);}
	.st9{fill:url(#SVGID_8_);}
	.st10{fill:url(#SVGID_9_);}
	.st11{fill:url(#SVGID_10_);}
	.st12{fill:url(#SVGID_11_);}
	.st13{fill:url(#SVGID_12_);}
</style>
<g>
	<rect class="st0" width="1200" height="500"/>
</g>
<g>
	<path class="st1" d="M431.8,97.66c-1.72,0-3.24-0.32-4.58-0.98c-1.34-0.65-2.46-1.51-3.37-2.57c-0.91-1.07-1.6-2.3-2.07-3.71
		c-0.47-1.4-0.7-2.86-0.7-4.37c0-2.11,0.45-4.15,1.37-6.12c0.91-1.98,2.14-3.73,3.69-5.26c1.55-1.53,3.34-2.76,5.38-3.69
		c2.04-0.92,4.18-1.38,6.42-1.38c1.72,0,3.24,0.33,4.56,0.98c1.33,0.65,2.44,1.52,3.33,2.59c0.9,1.08,1.58,2.31,2.05,3.71
		c0.47,1.39,0.7,2.84,0.7,4.35c0,2.08-0.46,4.11-1.36,6.08c-0.91,1.98-2.13,3.73-3.67,5.27c-1.53,1.53-3.31,2.77-5.34,3.71
		C436.17,97.19,434.04,97.66,431.8,97.66z M433.28,90.91c1.25,0,2.34-0.29,3.28-0.88s1.72-1.33,2.36-2.22
		c0.64-0.9,1.11-1.89,1.42-2.96c0.31-1.08,0.47-2.13,0.47-3.14c0-0.73-0.08-1.42-0.25-2.07c-0.17-0.65-0.43-1.22-0.78-1.72
		c-0.35-0.49-0.81-0.88-1.38-1.17c-0.57-0.29-1.25-0.43-2.03-0.43c-1.22,0-2.3,0.29-3.24,0.86c-0.94,0.57-1.72,1.3-2.34,2.18
		c-0.62,0.88-1.1,1.87-1.42,2.94c-0.33,1.08-0.49,2.13-0.49,3.14c0,0.73,0.08,1.42,0.25,2.07c0.17,0.65,0.43,1.23,0.78,1.74
		c0.35,0.51,0.81,0.91,1.37,1.21C431.83,90.76,432.5,90.91,433.28,90.91z"/>
	<path class="st1" d="M460.12,97.66c-1.69,0-3.14-0.24-4.35-0.72c-1.21-0.48-2.19-1.15-2.94-2.01c-0.75-0.86-1.31-1.87-1.66-3.02
		c-0.35-1.16-0.53-2.41-0.53-3.76c0-1.33,0.16-2.72,0.47-4.17l3.04-14.23h7.6l-3.04,14.23c-0.21,1.04-0.31,1.96-0.31,2.77
		c0,1.22,0.24,2.22,0.72,3c0.48,0.78,1.29,1.17,2.44,1.17c0.78,0,1.48-0.19,2.11-0.58c0.62-0.39,1.18-0.9,1.68-1.54
		c0.49-0.64,0.9-1.37,1.23-2.2c0.32-0.83,0.59-1.7,0.8-2.61l3.04-14.23h7.6l-3.04,14.23c-0.42,1.92-1.04,3.72-1.87,5.4
		c-0.83,1.68-1.87,3.13-3.12,4.35c-1.25,1.22-2.7,2.18-4.35,2.89C463.98,97.31,462.14,97.66,460.12,97.66z"/>
	<path class="st1" d="M476.46,97.42l5.89-27.69h12.17c1.12,0,2.12,0.23,3,0.68c0.88,0.46,1.62,1.05,2.22,1.79
		c0.6,0.74,1.06,1.59,1.38,2.55c0.33,0.96,0.49,1.95,0.49,2.96c0,0.91-0.13,1.81-0.39,2.71c-0.26,0.9-0.63,1.76-1.11,2.59
		c-0.48,0.83-1.06,1.61-1.74,2.32c-0.68,0.72-1.43,1.35-2.26,1.89l3.31,10.18h-8.58l-2.69-8.5h-2.3l-1.79,8.5H476.46z M491.51,82.29
		c0.21,0,0.44-0.09,0.7-0.27c0.26-0.18,0.51-0.44,0.74-0.78c0.23-0.34,0.43-0.74,0.58-1.21c0.16-0.47,0.23-0.98,0.23-1.52
		c0-0.68-0.12-1.2-0.37-1.58c-0.25-0.38-0.53-0.57-0.84-0.57h-4.02l-1.25,5.93H491.51z"/>
	<path class="st1" d="M516.51,69.73h7.6l-4.48,21.06h11.66l-1.4,6.63h-19.27L516.51,69.73z"/>
	<path class="st1" d="M545.21,69.73h6.98l3.08,27.69h-7.72L547.28,92h-6.63l-2.54,5.42h-7.76L545.21,69.73z M547.16,86.93
		l-0.31-8.58l-4.02,8.58H547.16z"/>
	<path class="st1" d="M567.79,97.66c-1.69,0-3.14-0.24-4.35-0.72c-1.21-0.48-2.19-1.15-2.94-2.01c-0.75-0.86-1.31-1.87-1.66-3.02
		c-0.35-1.16-0.53-2.41-0.53-3.76c0-1.33,0.16-2.72,0.47-4.17l3.04-14.23h7.6l-3.04,14.23c-0.21,1.04-0.31,1.96-0.31,2.77
		c0,1.22,0.24,2.22,0.72,3c0.48,0.78,1.29,1.17,2.44,1.17c0.78,0,1.48-0.19,2.11-0.58c0.62-0.39,1.18-0.9,1.68-1.54
		c0.49-0.64,0.9-1.37,1.23-2.2c0.32-0.83,0.59-1.7,0.8-2.61l3.04-14.23h7.6l-3.04,14.23c-0.42,1.92-1.04,3.72-1.87,5.4
		c-0.83,1.68-1.87,3.13-3.12,4.35c-1.25,1.22-2.7,2.18-4.35,2.89C571.66,97.31,569.82,97.66,567.79,97.66z"/>
	<path class="st1" d="M590.02,69.73h5.93l7.02,14.08l2.96-14.08h7.61l-5.89,27.69h-6.01l-7.02-13.61l-2.89,13.61h-7.6L590.02,69.73z
		"/>
	<path class="st1" d="M624.19,97.66c-1.69,0-3.19-0.33-4.49-0.99c-1.3-0.66-2.41-1.55-3.31-2.65c-0.91-1.1-1.6-2.37-2.07-3.78
		s-0.7-2.89-0.7-4.43c0-1.92,0.42-3.85,1.27-5.77c0.84-1.92,2.01-3.66,3.51-5.21c1.5-1.55,3.26-2.81,5.3-3.78
		c2.04-0.98,4.27-1.46,6.69-1.46c2.55,0,4.65,0.55,6.32,1.66c1.66,1.11,2.76,2.57,3.28,4.39l-6.67,4.13
		c-0.1-0.68-0.31-1.23-0.6-1.68c-0.3-0.44-0.66-0.79-1.09-1.05c-0.43-0.26-0.89-0.44-1.38-0.55c-0.49-0.1-0.97-0.16-1.44-0.16
		c-1.2,0-2.26,0.29-3.18,0.86c-0.92,0.57-1.7,1.3-2.32,2.18c-0.62,0.88-1.1,1.85-1.42,2.91c-0.33,1.05-0.49,2.06-0.49,3.02
		c0,0.75,0.09,1.48,0.27,2.16c0.18,0.69,0.46,1.29,0.82,1.79c0.36,0.51,0.82,0.91,1.36,1.21c0.55,0.3,1.2,0.45,1.95,0.45
		c0.47,0,0.97-0.06,1.5-0.18c0.53-0.12,1.05-0.31,1.56-0.58s0.99-0.62,1.44-1.05c0.45-0.43,0.85-0.96,1.19-1.58l5.42,3.7
		c-0.6,1.01-1.38,1.92-2.36,2.73c-0.98,0.81-2.04,1.48-3.2,2.03c-1.16,0.55-2.36,0.96-3.61,1.25
		C626.49,97.51,625.31,97.66,624.19,97.66z"/>
	<path class="st1" d="M644.2,69.73h7.6l-2.18,10.22h8.27l2.18-10.22h7.61l-5.89,27.69h-7.61l2.3-10.84h-8.27l-2.3,10.84h-7.61
		L644.2,69.73z"/>
	<path class="st1" d="M684.91,97.77c-0.96,0-1.94-0.08-2.92-0.23c-0.99-0.16-1.95-0.38-2.89-0.66c-0.94-0.29-1.83-0.62-2.69-1.01
		c-0.86-0.39-1.64-0.83-2.34-1.33l4.68-6.63c0.18,0.13,0.51,0.36,0.98,0.7c0.47,0.34,1.05,0.68,1.74,1.01
		c0.69,0.34,1.46,0.64,2.32,0.9c0.86,0.26,1.75,0.39,2.69,0.39c0.88,0,1.44-0.15,1.68-0.45c0.23-0.3,0.35-0.63,0.35-0.99
		c0-0.34-0.14-0.63-0.43-0.88c-0.29-0.25-0.66-0.47-1.13-0.68c-0.47-0.21-1.01-0.41-1.62-0.6c-0.61-0.19-1.24-0.42-1.89-0.68
		c-1.72-0.68-3-1.49-3.84-2.46s-1.27-2.18-1.27-3.67c0-1.74,0.35-3.3,1.05-4.66c0.7-1.37,1.63-2.52,2.77-3.45
		c1.14-0.94,2.44-1.65,3.88-2.15c1.44-0.49,2.91-0.74,4.39-0.74c0.96,0,1.89,0.1,2.79,0.29c0.9,0.19,1.74,0.44,2.54,0.74
		c0.79,0.3,1.53,0.62,2.2,0.98c0.68,0.35,1.27,0.68,1.79,0.99l-4.6,6.28c-0.03-0.03-0.23-0.18-0.6-0.45
		c-0.38-0.27-0.87-0.57-1.46-0.88c-0.6-0.31-1.27-0.59-2.03-0.84c-0.75-0.25-1.52-0.37-2.3-0.37c-0.57,0-1.06,0.13-1.46,0.39
		c-0.4,0.26-0.6,0.68-0.6,1.25c0,0.6,0.38,1.05,1.13,1.37c0.75,0.31,1.75,0.69,3,1.13c0.94,0.36,1.79,0.74,2.55,1.13
		c0.77,0.39,1.43,0.85,1.99,1.37c0.56,0.52,0.99,1.13,1.29,1.83c0.3,0.7,0.45,1.53,0.45,2.5c0,1.98-0.37,3.63-1.11,4.97
		c-0.74,1.34-1.7,2.42-2.87,3.26s-2.48,1.43-3.92,1.79C687.74,97.59,686.31,97.77,684.91,97.77z"/>
	<path class="st1" d="M710.34,69.73h6.98l3.08,27.69h-7.72L712.4,92h-6.63l-2.54,5.42h-7.76L710.34,69.73z M712.29,86.93l-0.31-8.58
		l-4.02,8.58H712.29z"/>
	<path class="st1" d="M728.43,69.73h7.6l-4.49,21.06h11.66l-1.4,6.63h-19.27L728.43,69.73z"/>
	<path class="st1" d="M750.43,69.73h18.49l-1.4,6.63h-10.88l-0.82,3.9h9.28l-1.33,6.16h-9.28l-0.94,4.37h11.23l-1.4,6.63h-18.84
		L750.43,69.73z"/>
	<path class="st1" d="M767.32,97.42l1.52-7.18h7.41l-1.52,7.18H767.32z M769.81,85.72l3.43-16.26h7.41l-3.43,16.26H769.81z"/>
</g>
<g>
	<path class="st1" d="M520.09,275.22h6.76l2.99,26.83h-7.48l-0.26-5.25h-6.42l-2.46,5.25h-7.52L520.09,275.22z M521.98,291.88
		l-0.3-8.31l-3.89,8.31H521.98z"/>
	<path class="st1" d="M537.62,275.22h7.37l-4.35,20.41h11.3l-1.36,6.42h-18.67L537.62,275.22z"/>
	<path class="st1" d="M558.93,275.22h7.37l-4.35,20.41h11.3l-1.36,6.42h-18.67L558.93,275.22z"/>
	<path class="st1" d="M587.61,275.22h7.37l-5.71,26.83h-7.37L587.61,275.22z"/>
	<path class="st1" d="M603.6,281.64h-7.22l1.36-6.42h21.77l-1.36,6.42h-7.18l-4.35,20.41h-7.37L603.6,281.64z"/>
	<path class="st1" d="M622.26,275.22h17.91l-1.36,6.42h-10.54l-0.79,3.78h8.99l-1.29,5.97h-8.99l-0.91,4.23h10.88l-1.36,6.42h-18.25
		L622.26,275.22z"/>
	<path class="st1" d="M643.99,275.22h8.05l2.46,12.62l7.86-12.62h8.01l-5.71,26.83h-7.37l2.99-14.13l-5.97,9.94h-3.89l-1.74-9.94
		l-3.02,14.13h-7.37L643.99,275.22z"/>
	<path class="st1" d="M678.64,302.39c-0.93,0-1.88-0.08-2.83-0.23c-0.96-0.15-1.89-0.37-2.8-0.64c-0.91-0.28-1.78-0.6-2.61-0.98
		c-0.83-0.38-1.59-0.81-2.27-1.28l4.53-6.42c0.18,0.13,0.49,0.35,0.95,0.68c0.45,0.33,1.01,0.66,1.68,0.98
		c0.67,0.33,1.42,0.62,2.25,0.87c0.83,0.25,1.7,0.38,2.61,0.38c0.86,0,1.4-0.14,1.63-0.43c0.23-0.29,0.34-0.61,0.34-0.96
		c0-0.33-0.14-0.61-0.42-0.85s-0.64-0.46-1.1-0.66c-0.45-0.2-0.98-0.4-1.57-0.59c-0.59-0.19-1.2-0.41-1.83-0.66
		c-1.66-0.66-2.9-1.45-3.72-2.38c-0.82-0.93-1.23-2.12-1.23-3.55c0-1.69,0.34-3.19,1.02-4.52c0.68-1.32,1.57-2.44,2.68-3.34
		c1.11-0.91,2.36-1.6,3.76-2.08s2.82-0.72,4.25-0.72c0.93,0,1.83,0.09,2.7,0.28c0.87,0.19,1.69,0.43,2.46,0.72
		c0.77,0.29,1.48,0.6,2.13,0.95c0.66,0.34,1.23,0.66,1.74,0.96l-4.46,6.08c-0.03-0.02-0.22-0.17-0.59-0.43s-0.84-0.55-1.42-0.85
		c-0.58-0.3-1.23-0.57-1.96-0.81c-0.73-0.24-1.47-0.36-2.23-0.36c-0.55,0-1.03,0.13-1.42,0.38s-0.59,0.66-0.59,1.21
		c0,0.58,0.37,1.02,1.1,1.32c0.73,0.3,1.7,0.67,2.91,1.1c0.91,0.35,1.73,0.72,2.48,1.1c0.74,0.38,1.38,0.82,1.93,1.32
		c0.54,0.5,0.96,1.1,1.25,1.78c0.29,0.68,0.43,1.49,0.43,2.42c0,1.92-0.36,3.52-1.08,4.82s-1.64,2.35-2.78,3.16
		c-1.13,0.81-2.4,1.39-3.8,1.74C681.38,302.21,680,302.39,678.64,302.39z"/>
</g>
<g>
	<linearGradient id="SVGID_1_" gradientUnits="userSpaceOnUse" x1="398.6755" y1="199.5823" x2="753.5142" y2="197.9694">
		<stop  offset="0" style="stop-color:#12C2E9"/>
		<stop  offset="0.5" style="stop-color:#C471ED"/>
		<stop  offset="1" style="stop-color:#F64F59"/>
	</linearGradient>
	<path class="st2" d="M447.5,214.65c0.81-1.93,1.82-3.67,3.01-5.22c1.19-1.55,2.62-2.94,4.27-4.16c1.65-1.22,3.6-2.39,5.83-3.51
		c3.05-1.53,5.45-2.75,7.21-3.66s3.08-1.68,3.97-2.29c0.89-0.61,1.45-1.16,1.68-1.64c0.23-0.48,0.34-1.05,0.34-1.72
		c0-1.93-1.09-2.9-3.28-2.9c-1.48,0-2.99,0.43-4.54,1.3c-1.55,0.86-3.34,2.26-5.38,4.19l-6.86-10.75c1.22-1.07,2.67-2.05,4.35-2.94
		c1.68-0.89,3.47-1.65,5.38-2.29c1.91-0.64,3.9-1.13,5.99-1.49c2.08-0.36,4.17-0.53,6.25-0.53c4.88,0,8.54,0.97,10.98,2.9
		c2.44,1.93,3.66,4.63,3.66,8.08c0,1.93-0.24,3.62-0.72,5.07c-0.48,1.45-1.16,2.77-2.02,3.96c-0.87,1.2-1.91,2.29-3.13,3.28
		c-1.22,0.99-2.59,1.97-4.12,2.94c-1.32,0.81-2.66,1.64-4,2.48c-1.35,0.84-2.81,1.72-4.38,2.63H487l-2.75,12.96h-38.74
		C446.02,218.82,446.68,216.59,447.5,214.65z"/>
	<linearGradient id="SVGID_2_" gradientUnits="userSpaceOnUse" x1="398.7036" y1="205.7583" x2="753.5423" y2="204.1454">
		<stop  offset="0" style="stop-color:#12C2E9"/>
		<stop  offset="0.5" style="stop-color:#C471ED"/>
		<stop  offset="1" style="stop-color:#F64F59"/>
	</linearGradient>
	<path class="st3" d="M503.92,232.73c-3.81,0-7.07-0.74-9.76-2.21c-2.69-1.48-4.58-3.58-5.64-6.33l9.84-9.15
		c1.02,1.58,2.27,2.81,3.77,3.7c1.5,0.89,3.01,1.33,4.54,1.33c1.98,0,3.57-0.66,4.77-1.98c1.19-1.32,1.79-3.02,1.79-5.11
		c0-1.22-0.29-2.21-0.88-2.97c-0.58-0.76-1.44-1.14-2.55-1.14c-0.92,0-1.79,0.24-2.63,0.72c-0.84,0.48-1.54,1.13-2.1,1.94h-12.35
		c2.29-5.64,4.49-11.26,6.6-16.85c2.11-5.59,4.33-11.21,6.67-16.85h25.85l-2.82,13.19h-15.4l-1.83,5.87
		c0.35-0.15,0.77-0.25,1.26-0.31c0.48-0.05,1-0.08,1.56-0.08c2.14,0,4.05,0.34,5.76,1.03c1.7,0.69,3.16,1.64,4.38,2.86
		c1.22,1.22,2.15,2.69,2.78,4.42c0.63,1.73,0.95,3.63,0.95,5.72c0,3.2-0.64,6.15-1.91,8.85c-1.27,2.69-3.01,5.03-5.22,7.02
		s-4.8,3.53-7.78,4.65C510.6,232.17,507.38,232.73,503.92,232.73z"/>
	<linearGradient id="SVGID_3_" gradientUnits="userSpaceOnUse" x1="398.6549" y1="195.0546" x2="753.4937" y2="193.4417">
		<stop  offset="0" style="stop-color:#12C2E9"/>
		<stop  offset="0.5" style="stop-color:#C471ED"/>
		<stop  offset="1" style="stop-color:#F64F59"/>
	</linearGradient>
	<path class="st4" d="M538.7,216.41l25.7-24.33l23.49-25.7l5.11,5.72l-24.63,23.56l-24.55,26.46L538.7,216.41z M550.82,190.56
		c-1.63,0-3.1-0.25-4.42-0.76c-1.32-0.51-2.45-1.22-3.39-2.13c-0.94-0.92-1.67-1.98-2.17-3.2c-0.51-1.22-0.76-2.54-0.76-3.97
		c0-1.88,0.44-3.67,1.33-5.38c0.89-1.7,2.06-3.2,3.51-4.5s3.13-2.31,5.03-3.05c1.91-0.74,3.9-1.11,5.99-1.11
		c1.58,0,3.02,0.25,4.35,0.76c1.32,0.51,2.47,1.22,3.43,2.13c0.96,0.92,1.7,1.98,2.21,3.2c0.51,1.22,0.76,2.54,0.76,3.97
		c0,1.93-0.45,3.74-1.33,5.41c-0.89,1.68-2.06,3.16-3.51,4.46c-1.45,1.3-3.14,2.31-5.07,3.05
		C554.83,190.19,552.85,190.56,550.82,190.56z M552.27,183.7c0.51,0,1.03-0.18,1.56-0.53c0.53-0.35,1.02-0.84,1.45-1.45
		c0.43-0.61,0.79-1.31,1.07-2.1c0.28-0.79,0.42-1.61,0.42-2.48c0-1.07-0.2-1.97-0.61-2.71c-0.41-0.74-0.97-1.11-1.68-1.11
		c-0.51,0-1.03,0.18-1.56,0.53c-0.53,0.36-1.02,0.84-1.45,1.45c-0.43,0.61-0.79,1.31-1.07,2.1c-0.28,0.79-0.42,1.61-0.42,2.48
		c0,1.07,0.2,1.97,0.61,2.71C551,183.33,551.56,183.7,552.27,183.7z M575.75,222.13c-1.63,0-3.1-0.26-4.42-0.76
		c-1.32-0.51-2.45-1.22-3.39-2.14c-0.94-0.92-1.67-1.98-2.17-3.2c-0.51-1.22-0.76-2.54-0.76-3.96c0-1.88,0.44-3.67,1.33-5.38
		c0.89-1.7,2.06-3.2,3.51-4.5s3.13-2.31,5.03-3.05c1.91-0.74,3.9-1.11,5.99-1.11c1.58,0,3.02,0.25,4.35,0.76
		c1.32,0.51,2.47,1.22,3.43,2.14c0.97,0.92,1.7,1.98,2.21,3.2c0.51,1.22,0.76,2.54,0.76,3.97c0,1.93-0.45,3.74-1.33,5.41
		c-0.89,1.68-2.06,3.16-3.51,4.46c-1.45,1.3-3.14,2.31-5.07,3.05C579.77,221.76,577.79,222.13,575.75,222.13z M577.2,215.26
		c0.51,0,1.03-0.18,1.56-0.53c0.53-0.35,1-0.84,1.41-1.45c0.41-0.61,0.75-1.31,1.03-2.1c0.28-0.79,0.42-1.61,0.42-2.48
		c0-1.07-0.19-1.97-0.57-2.71c-0.38-0.74-0.93-1.11-1.64-1.11c-0.51,0-1.03,0.18-1.56,0.53c-0.53,0.36-1.02,0.84-1.45,1.45
		c-0.43,0.61-0.79,1.31-1.07,2.1c-0.28,0.79-0.42,1.61-0.42,2.48c0,1.07,0.2,1.97,0.61,2.71
		C575.93,214.9,576.49,215.26,577.2,215.26z"/>
	<linearGradient id="SVGID_4_" gradientUnits="userSpaceOnUse" x1="398.6569" y1="195.4793" x2="753.4956" y2="193.8664">
		<stop  offset="0" style="stop-color:#12C2E9"/>
		<stop  offset="0.5" style="stop-color:#C471ED"/>
		<stop  offset="1" style="stop-color:#F64F59"/>
	</linearGradient>
	<path class="st5" d="M636.53,221.82c-3.35,0-6.34-0.64-8.96-1.91c-2.62-1.27-4.82-2.95-6.6-5.03c-1.78-2.08-3.13-4.5-4.04-7.24
		s-1.37-5.59-1.37-8.54c0-4.12,0.89-8.11,2.67-11.97c1.78-3.86,4.18-7.29,7.21-10.29c3.02-3,6.53-5.4,10.52-7.21
		c3.99-1.8,8.17-2.71,12.54-2.71c3.35,0,6.33,0.64,8.92,1.91c2.59,1.27,4.77,2.96,6.52,5.07c1.75,2.11,3.09,4.53,4,7.24
		c0.92,2.72,1.37,5.55,1.37,8.5c0,4.07-0.89,8.03-2.67,11.9c-1.78,3.86-4.17,7.3-7.17,10.29c-3,3-6.48,5.41-10.45,7.24
		C645.07,220.91,640.9,221.82,636.53,221.82z M639.43,208.63c2.44,0,4.58-0.57,6.41-1.72c1.83-1.14,3.37-2.59,4.61-4.35
		c1.25-1.75,2.17-3.69,2.78-5.8c0.61-2.11,0.92-4.16,0.92-6.14c0-1.42-0.17-2.77-0.5-4.04c-0.33-1.27-0.84-2.39-1.52-3.35
		c-0.69-0.97-1.59-1.73-2.71-2.29c-1.12-0.56-2.44-0.84-3.97-0.84c-2.39,0-4.5,0.56-6.33,1.68c-1.83,1.12-3.35,2.54-4.58,4.27
		c-1.22,1.73-2.15,3.65-2.78,5.76c-0.64,2.11-0.95,4.16-0.95,6.14c0,1.42,0.17,2.77,0.5,4.04c0.33,1.27,0.84,2.4,1.52,3.39
		c0.69,0.99,1.58,1.78,2.67,2.36C636.59,208.34,637.9,208.63,639.43,208.63z"/>
	<linearGradient id="SVGID_5_" gradientUnits="userSpaceOnUse" x1="398.6573" y1="195.5856" x2="753.4961" y2="193.9727">
		<stop  offset="0" style="stop-color:#12C2E9"/>
		<stop  offset="0.5" style="stop-color:#C471ED"/>
		<stop  offset="1" style="stop-color:#F64F59"/>
	</linearGradient>
	<path class="st6" d="M680.98,167.22h35.38l-2.75,12.96h-20.51l-1.91,9h16.62l-2.52,12.05h-16.7l-4.27,20.13h-14.87L680.98,167.22z"
		/>
	<linearGradient id="SVGID_6_" gradientUnits="userSpaceOnUse" x1="398.6582" y1="195.7748" x2="753.4969" y2="194.1619">
		<stop  offset="0" style="stop-color:#12C2E9"/>
		<stop  offset="0.5" style="stop-color:#C471ED"/>
		<stop  offset="1" style="stop-color:#F64F59"/>
	</linearGradient>
	<path class="st7" d="M722.62,167.22H758l-2.75,12.96h-20.51l-1.91,9h16.62l-2.52,12.05h-16.7l-4.27,20.13H711.1L722.62,167.22z"/>
</g>
<g>
	<path class="st1" d="M445.5,212.65c0.81-1.93,1.82-3.67,3.01-5.22c1.19-1.55,2.62-2.94,4.27-4.16c1.65-1.22,3.6-2.39,5.83-3.51
		c3.05-1.53,5.45-2.75,7.21-3.66s3.08-1.68,3.97-2.29c0.89-0.61,1.45-1.16,1.68-1.64c0.23-0.48,0.34-1.05,0.34-1.72
		c0-1.93-1.09-2.9-3.28-2.9c-1.48,0-2.99,0.43-4.54,1.3c-1.55,0.86-3.34,2.26-5.38,4.19l-6.86-10.75c1.22-1.07,2.67-2.05,4.35-2.94
		c1.68-0.89,3.47-1.65,5.38-2.29c1.91-0.64,3.9-1.13,5.99-1.49c2.08-0.36,4.17-0.53,6.25-0.53c4.88,0,8.54,0.97,10.98,2.9
		c2.44,1.93,3.66,4.63,3.66,8.08c0,1.93-0.24,3.62-0.72,5.07c-0.48,1.45-1.16,2.77-2.02,3.96c-0.87,1.2-1.91,2.29-3.13,3.28
		c-1.22,0.99-2.59,1.97-4.12,2.94c-1.32,0.81-2.66,1.64-4,2.48c-1.35,0.84-2.81,1.72-4.38,2.63H485l-2.75,12.96h-38.74
		C444.02,216.82,444.68,214.59,445.5,212.65z"/>
	<path class="st1" d="M501.92,230.73c-3.81,0-7.07-0.74-9.76-2.21c-2.69-1.48-4.58-3.58-5.64-6.33l9.84-9.15
		c1.02,1.58,2.27,2.81,3.77,3.7c1.5,0.89,3.01,1.33,4.54,1.33c1.98,0,3.57-0.66,4.77-1.98c1.19-1.32,1.79-3.02,1.79-5.11
		c0-1.22-0.29-2.21-0.88-2.97c-0.58-0.76-1.44-1.14-2.55-1.14c-0.92,0-1.79,0.24-2.63,0.72c-0.84,0.48-1.54,1.13-2.1,1.94h-12.35
		c2.29-5.64,4.49-11.26,6.6-16.85c2.11-5.59,4.33-11.21,6.67-16.85h25.85l-2.82,13.19h-15.4l-1.83,5.87
		c0.35-0.15,0.77-0.25,1.26-0.31c0.48-0.05,1-0.08,1.56-0.08c2.14,0,4.05,0.34,5.76,1.03c1.7,0.69,3.16,1.64,4.38,2.86
		c1.22,1.22,2.15,2.69,2.78,4.42c0.63,1.73,0.95,3.63,0.95,5.72c0,3.2-0.64,6.15-1.91,8.85c-1.27,2.69-3.01,5.03-5.22,7.02
		s-4.8,3.53-7.78,4.65C508.6,230.17,505.38,230.73,501.92,230.73z"/>
	<path class="st1" d="M536.7,214.41l25.7-24.33l23.49-25.7l5.11,5.72l-24.63,23.56l-24.55,26.46L536.7,214.41z M548.82,188.56
		c-1.63,0-3.1-0.25-4.42-0.76c-1.32-0.51-2.45-1.22-3.39-2.13c-0.94-0.92-1.67-1.98-2.17-3.2c-0.51-1.22-0.76-2.54-0.76-3.97
		c0-1.88,0.44-3.67,1.33-5.38c0.89-1.7,2.06-3.2,3.51-4.5s3.13-2.31,5.03-3.05c1.91-0.74,3.9-1.11,5.99-1.11
		c1.58,0,3.02,0.25,4.35,0.76c1.32,0.51,2.47,1.22,3.43,2.13c0.96,0.92,1.7,1.98,2.21,3.2c0.51,1.22,0.76,2.54,0.76,3.97
		c0,1.93-0.45,3.74-1.33,5.41c-0.89,1.68-2.06,3.16-3.51,4.46c-1.45,1.3-3.14,2.31-5.07,3.05
		C552.83,188.19,550.85,188.56,548.82,188.56z M550.27,181.7c0.51,0,1.03-0.18,1.56-0.53c0.53-0.35,1.02-0.84,1.45-1.45
		c0.43-0.61,0.79-1.31,1.07-2.1c0.28-0.79,0.42-1.61,0.42-2.48c0-1.07-0.2-1.97-0.61-2.71c-0.41-0.74-0.97-1.11-1.68-1.11
		c-0.51,0-1.03,0.18-1.56,0.53c-0.53,0.36-1.02,0.84-1.45,1.45c-0.43,0.61-0.79,1.31-1.07,2.1c-0.28,0.79-0.42,1.61-0.42,2.48
		c0,1.07,0.2,1.97,0.61,2.71C549,181.33,549.56,181.7,550.27,181.7z M573.75,220.13c-1.63,0-3.1-0.26-4.42-0.76
		c-1.32-0.51-2.45-1.22-3.39-2.14c-0.94-0.92-1.67-1.98-2.17-3.2c-0.51-1.22-0.76-2.54-0.76-3.96c0-1.88,0.44-3.67,1.33-5.38
		c0.89-1.7,2.06-3.2,3.51-4.5s3.13-2.31,5.03-3.05c1.91-0.74,3.9-1.11,5.99-1.11c1.58,0,3.02,0.25,4.35,0.76
		c1.32,0.51,2.47,1.22,3.43,2.14c0.97,0.92,1.7,1.98,2.21,3.2c0.51,1.22,0.76,2.54,0.76,3.97c0,1.93-0.45,3.74-1.33,5.41
		c-0.89,1.68-2.06,3.16-3.51,4.46c-1.45,1.3-3.14,2.31-5.07,3.05C577.77,219.76,575.79,220.13,573.75,220.13z M575.2,213.26
		c0.51,0,1.03-0.18,1.56-0.53c0.53-0.35,1-0.84,1.41-1.45c0.41-0.61,0.75-1.31,1.03-2.1c0.28-0.79,0.42-1.61,0.42-2.48
		c0-1.07-0.19-1.97-0.57-2.71c-0.38-0.74-0.93-1.11-1.64-1.11c-0.51,0-1.03,0.18-1.56,0.53c-0.53,0.36-1.02,0.84-1.45,1.45
		c-0.43,0.61-0.79,1.31-1.07,2.1c-0.28,0.79-0.42,1.61-0.42,2.48c0,1.07,0.2,1.97,0.61,2.71
		C573.93,212.9,574.49,213.26,575.2,213.26z"/>
	<path class="st1" d="M634.53,219.82c-3.35,0-6.34-0.64-8.96-1.91c-2.62-1.27-4.82-2.95-6.6-5.03c-1.78-2.08-3.13-4.5-4.04-7.24
		s-1.37-5.59-1.37-8.54c0-4.12,0.89-8.11,2.67-11.97c1.78-3.86,4.18-7.29,7.21-10.29c3.02-3,6.53-5.4,10.52-7.21
		c3.99-1.8,8.17-2.71,12.54-2.71c3.35,0,6.33,0.64,8.92,1.91c2.59,1.27,4.77,2.96,6.52,5.07c1.75,2.11,3.09,4.53,4,7.24
		c0.92,2.72,1.37,5.55,1.37,8.5c0,4.07-0.89,8.03-2.67,11.9c-1.78,3.86-4.17,7.3-7.17,10.29c-3,3-6.48,5.41-10.45,7.24
		C643.07,218.91,638.9,219.82,634.53,219.82z M637.43,206.63c2.44,0,4.58-0.57,6.41-1.72c1.83-1.14,3.37-2.59,4.61-4.35
		c1.25-1.75,2.17-3.69,2.78-5.8c0.61-2.11,0.92-4.16,0.92-6.14c0-1.42-0.17-2.77-0.5-4.04c-0.33-1.27-0.84-2.39-1.52-3.35
		c-0.69-0.97-1.59-1.73-2.71-2.29c-1.12-0.56-2.44-0.84-3.97-0.84c-2.39,0-4.5,0.56-6.33,1.68c-1.83,1.12-3.35,2.54-4.58,4.27
		c-1.22,1.73-2.15,3.65-2.78,5.76c-0.64,2.11-0.95,4.16-0.95,6.14c0,1.42,0.17,2.77,0.5,4.04c0.33,1.27,0.84,2.4,1.52,3.39
		c0.69,0.99,1.58,1.78,2.67,2.36C634.59,206.34,635.9,206.63,637.43,206.63z"/>
	<path class="st1" d="M678.98,165.22h35.38l-2.75,12.96h-20.51l-1.91,9h16.62l-2.52,12.05h-16.7l-4.27,20.13h-14.87L678.98,165.22z"
		/>
	<path class="st1" d="M720.62,165.22H756l-2.75,12.96h-20.51l-1.91,9h16.62l-2.52,12.05h-16.7l-4.27,20.13H709.1L720.62,165.22z"/>
</g>
<linearGradient id="SVGID_7_" gradientUnits="userSpaceOnUse" x1="889.4752" y1="256.7187" x2="904.485" y2="222.5076" gradientTransform="matrix(0.9157 -0.4018 0.4018 0.9157 -18.6698 425.9608)">
	<stop  offset="0" style="stop-color:#12C2E9"/>
	<stop  offset="0.5" style="stop-color:#C471ED"/>
	<stop  offset="1" style="stop-color:#F64F59"/>
</linearGradient>
<path class="st8" d="M914.06,266.38l-38.95,17.09c-0.37,0.16-0.54,0.6-0.38,0.97l8.25,18.8c0.16,0.37,0.6,0.54,0.97,0.38
	l38.95-17.09c0.37-0.16,0.54-0.6,0.38-0.97l-8.25-18.8C914.86,266.39,914.43,266.22,914.06,266.38z M921.63,285.48l-28.2,12.37
	l-0.29-0.67c-0.16-0.37-0.6-0.54-0.97-0.38c-0.37,0.16-0.54,0.6-0.38,0.97l0.29,0.67l-8.06,3.54l-7.66-17.46l8.06-3.54l0.29,0.67
	c0.16,0.37,0.6,0.54,0.97,0.38c0.37-0.16,0.54-0.6,0.38-0.97l-0.29-0.67l28.2-12.37L921.63,285.48z M887.24,283.75l0.29,0.67
	c0.16,0.37-0.01,0.8-0.38,0.97c-0.37,0.16-0.8-0.01-0.97-0.38l-0.29-0.67c-0.16-0.37,0.01-0.8,0.38-0.97
	C886.65,283.21,887.08,283.38,887.24,283.75z M888.71,287.11l0.29,0.67c0.16,0.37-0.01,0.8-0.38,0.97c-0.37,0.16-0.8-0.01-0.97-0.38
	l-0.29-0.67c-0.16-0.37,0.01-0.8,0.38-0.97C888.12,286.57,888.55,286.74,888.71,287.11z M890.19,290.47l0.29,0.67
	c0.16,0.37-0.01,0.8-0.38,0.97c-0.37,0.16-0.8-0.01-0.97-0.38l-0.29-0.67c-0.16-0.37,0.01-0.8,0.38-0.97
	C889.59,289.93,890.02,290.1,890.19,290.47z M891.66,293.83l0.29,0.67c0.16,0.37-0.01,0.8-0.38,0.97c-0.37,0.16-0.8-0.01-0.97-0.38
	l-0.29-0.67c-0.16-0.37,0.01-0.8,0.38-0.97C891.07,293.29,891.5,293.45,891.66,293.83z M894.85,295.63l24.18-10.61
	c0.37-0.16,0.54-0.6,0.38-0.97l-5.89-13.43c-0.16-0.37-0.6-0.54-0.97-0.38l-24.18,10.61c-0.37,0.16-0.54,0.6-0.38,0.97l5.89,13.43
	C894.05,295.62,894.48,295.79,894.85,295.63z M889.63,281.9l22.83-10.02l5.3,12.09l-22.83,10.02L889.63,281.9z M883.97,283.59
	c0.16,0.37-0.01,0.8-0.38,0.97l-4.03,1.77c-0.37,0.16-0.8-0.01-0.97-0.38s0.01-0.8,0.38-0.97l4.03-1.77
	C883.37,283.05,883.8,283.22,883.97,283.59z M885.14,286.27c0.16,0.37-0.01,0.8-0.38,0.97l-4.03,1.77c-0.37,0.16-0.8-0.01-0.97-0.38
	s0.01-0.8,0.38-0.97l4.03-1.77C884.55,285.73,884.98,285.9,885.14,286.27z M886.32,288.96c0.16,0.37-0.01,0.8-0.38,0.97l-4.03,1.77
	c-0.37,0.16-0.8-0.01-0.97-0.38s0.01-0.8,0.38-0.97l4.03-1.77C885.73,288.42,886.16,288.59,886.32,288.96z M887.5,291.65
	c0.16,0.37-0.01,0.8-0.38,0.97l-4.03,1.77c-0.37,0.16-0.8-0.01-0.97-0.38c-0.16-0.37,0.01-0.8,0.38-0.97l4.03-1.77
	C886.91,291.11,887.34,291.28,887.5,291.65z M888.68,294.33c0.16,0.37-0.01,0.8-0.38,0.97l-4.03,1.77c-0.37,0.16-0.8-0.01-0.97-0.38
	s0.01-0.8,0.38-0.97l4.03-1.77C888.08,293.79,888.52,293.96,888.68,294.33z M889.86,297.02c0.16,0.37-0.01,0.8-0.38,0.97l-4.03,1.77
	c-0.37,0.16-0.8-0.01-0.97-0.38s0.01-0.8,0.38-0.97l4.03-1.77C889.26,296.48,889.7,296.65,889.86,297.02z M896.18,282.23l2.95,6.72
	c0.16,0.37-0.01,0.8-0.38,0.97c-0.37,0.16-0.8-0.01-0.97-0.38l-2.24-5.09l-0.11,0.28c-0.15,0.38-0.57,0.56-0.95,0.42
	s-0.56-0.57-0.42-0.95l0.75-1.93c0.15-0.38,0.57-0.56,0.95-0.42C895.96,281.91,896.11,282.05,896.18,282.23z M899.25,280.09
	c-1.11,0.49-1.62,1.79-1.13,2.9l1.77,4.03c0.49,1.11,1.79,1.62,2.9,1.13c1.11-0.49,1.62-1.79,1.13-2.9l-1.77-4.03
	C901.66,280.11,900.36,279.6,899.25,280.09z M902.57,285.84c0.16,0.37-0.01,0.8-0.38,0.97c-0.37,0.16-0.8-0.01-0.97-0.38l-1.77-4.03
	c-0.16-0.37,0.01-0.8,0.38-0.97c0.37-0.16,0.8,0.01,0.97,0.38L902.57,285.84z M910.85,276.03c0.38,0.15,0.56,0.57,0.42,0.95
	c0,0,0,0,0,0l-3.02,7.73c-0.15,0.38-0.57,0.56-0.95,0.42s-0.56-0.57-0.42-0.95l3.02-7.73C910.04,276.07,910.47,275.89,910.85,276.03
	C910.85,276.03,910.85,276.03,910.85,276.03L910.85,276.03z M904.83,280.04c-0.16-0.37,0.01-0.8,0.38-0.97
	c0.37-0.16,0.8,0.01,0.97,0.38s-0.01,0.8-0.38,0.97C905.43,280.58,904.99,280.41,904.83,280.04z M913.31,281.12
	c0.16,0.37-0.01,0.8-0.38,0.97c-0.37,0.16-0.8-0.01-0.97-0.38s0.01-0.8,0.38-0.97C912.72,280.58,913.15,280.75,913.31,281.12z"/>
<linearGradient id="SVGID_8_" gradientUnits="userSpaceOnUse" x1="243.1726" y1="291.8957" x2="226.0259" y2="239.521" gradientTransform="matrix(0.9504 0.3111 -0.3111 0.9504 95.5738 -59.0918)">
	<stop  offset="0" style="stop-color:#12C2E9"/>
	<stop  offset="0.5" style="stop-color:#C471ED"/>
	<stop  offset="1" style="stop-color:#F64F59"/>
</linearGradient>
<path class="st9" d="M266.14,260.77c-0.15-0.24-0.4-0.41-0.69-0.44l-21.4-2.94c-0.46-0.06-0.9,0.21-1.05,0.66l-5.13,15.67
	c-3.35-1.66-7.4-0.29-9.06,3.06s-0.29,7.4,3.06,9.06c3.35,1.66,7.4,0.29,9.06-3.06c0.14-0.29,0.27-0.59,0.37-0.9l6.05-18.48
	l11.53,2.03l-3.28,10.02c-3.35-1.66-7.4-0.29-9.06,3.06c-1.66,3.35-0.29,7.4,3.06,9.06c3.35,1.66,7.4,0.29,9.06-3.06
	c0.14-0.29,0.27-0.59,0.37-0.9l7.21-22.03C266.33,261.31,266.3,261.01,266.14,260.77z M233.38,284.36
	c-2.53-0.83-3.92-3.56-3.09-6.09c0.83-2.53,3.56-3.92,6.09-3.09c2.53,0.83,3.92,3.56,3.09,6.09
	C238.64,283.81,235.91,285.19,233.38,284.36z M251.1,286.1c-2.53-0.83-3.92-3.56-3.09-6.09c0.83-2.53,3.56-3.92,6.09-3.09
	c2.53,0.83,3.92,3.56,3.09,6.09C256.36,285.54,253.64,286.92,251.1,286.1z M258.67,278.52c-0.35-0.72-0.83-1.36-1.41-1.91
	l3.81-11.64c0.17-0.51-0.11-1.05-0.62-1.22c-0.04-0.01-0.09-0.03-0.13-0.03l-13.45-2.37c-0.47-0.08-0.94,0.19-1.09,0.65l-4.84,14.79
	c-0.35-0.72-0.83-1.36-1.41-1.91l5.06-15.46l19.45,2.67L258.67,278.52z M236.1,240.76c-0.16-0.24-0.42-0.4-0.71-0.44l-13.75-1.45
	c-0.45-0.05-0.88,0.23-1.02,0.66l-5.43,16.59c-3.35-1.66-7.4-0.29-9.06,3.06c-1.66,3.35-0.29,7.4,3.06,9.06s7.4,0.29,9.06-3.06
	c0.14-0.29,0.27-0.59,0.37-0.9l6.29-19.21l9.09,0.85c0.45,0.04,0.87-0.23,1.01-0.66l1.2-3.67C236.3,241.31,236.26,241,236.1,240.76z
	 M210.68,266.77c-2.53-0.83-3.92-3.56-3.09-6.09c0.83-2.53,3.56-3.92,6.09-3.09c2.53,0.83,3.92,3.56,3.09,6.09
	C215.94,266.21,213.22,267.59,210.68,266.77z M233.41,243.92l-9.09-0.85c-0.45-0.04-0.87,0.23-1.01,0.66l-5.06,15.45
	c-0.35-0.72-0.83-1.36-1.41-1.91l5.37-16.4l11.79,1.25L233.41,243.92z M235.78,277.02c-1.52-0.5-3.16,0.33-3.66,1.85
	c-0.5,1.52,0.33,3.16,1.85,3.66s3.16-0.33,3.66-1.85C238.13,279.15,237.3,277.52,235.78,277.02z M234.58,280.69
	c-0.51-0.17-0.78-0.71-0.62-1.22c0.17-0.51,0.71-0.78,1.22-0.62c0.51,0.17,0.78,0.71,0.62,1.22
	C235.63,280.58,235.09,280.85,234.58,280.69z M253.51,278.75c-1.52-0.5-3.16,0.33-3.66,1.85c-0.5,1.52,0.33,3.16,1.85,3.66
	s3.16-0.33,3.66-1.85C255.86,280.89,255.03,279.25,253.51,278.75z M252.31,282.43c-0.51-0.17-0.78-0.71-0.62-1.22
	c0.17-0.51,0.71-0.78,1.22-0.62c0.51,0.17,0.78,0.71,0.62,1.22C253.36,282.32,252.81,282.59,252.31,282.43z M213.09,259.42
	c-1.52-0.5-3.16,0.33-3.66,1.85c-0.5,1.52,0.33,3.16,1.85,3.66c1.52,0.5,3.16-0.33,3.66-1.85
	C215.44,261.56,214.61,259.92,213.09,259.42z M211.89,263.1c-0.51-0.17-0.78-0.71-0.62-1.22c0.17-0.51,0.71-0.78,1.22-0.62
	c0.51,0.17,0.78,0.71,0.62,1.22C212.94,262.98,212.39,263.26,211.89,263.1z M220.58,289.32l6.61-20.19
	c0.17-0.51-0.11-1.05-0.62-1.22l-3.67-1.2c-0.51-0.17-1.05,0.11-1.22,0.62l-4.53,13.84c-3.35-1.66-7.4-0.29-9.06,3.06
	c-1.66,3.35-0.29,7.4,3.06,9.06c3.35,1.66,7.4,0.29,9.06-3.06C220.35,289.92,220.48,289.62,220.58,289.32z M223.22,268.84l1.84,0.6
	l-4.84,14.79c-0.35-0.72-0.83-1.36-1.41-1.91L223.22,268.84z M209.56,285.71c0.83-2.53,3.56-3.92,6.09-3.09s3.92,3.56,3.09,6.09
	c-0.83,2.53-3.56,3.92-6.09,3.09C210.12,290.97,208.74,288.24,209.56,285.71z M216.91,288.11c0.5-1.52-0.33-3.16-1.85-3.66
	c-1.52-0.5-3.16,0.33-3.66,1.85c-0.5,1.52,0.33,3.16,1.85,3.66C214.77,290.46,216.41,289.63,216.91,288.11z M213.23,286.91
	c0.17-0.51,0.71-0.78,1.22-0.62c0.51,0.17,0.78,0.71,0.62,1.22c-0.17,0.51-0.71,0.78-1.22,0.62
	C213.35,287.96,213.07,287.42,213.23,286.91z"/>
<linearGradient id="SVGID_9_" gradientUnits="userSpaceOnUse" x1="1036.8423" y1="91.1687" x2="1036.8423" y2="121.8752" gradientTransform="matrix(0.891 -0.4539 0.4539 0.891 59.7735 485.7188)">
	<stop  offset="0" style="stop-color:#12C2E9"/>
	<stop  offset="0.5" style="stop-color:#C471ED"/>
	<stop  offset="1" style="stop-color:#F64F59"/>
</linearGradient>
<path class="st10" d="M1025.48,125.38l0.93,1.82c0.64,1.26,2.18,1.76,3.44,1.12l18.24-9.29c1.26-0.64,1.76-2.18,1.12-3.44
	l-12.54-24.62c-0.13-0.25-0.44-0.35-0.69-0.22l-18.24,9.29c-0.25,0.13-0.35,0.44-0.22,0.69l11.38,22.34l-3.19,1.63
	C1025.45,124.82,1025.35,125.13,1025.48,125.38z M1023.22,98.39l8.21-4.18l4.18,8.21l-8.21,4.18L1023.22,98.39z M1018.66,100.72
	l3.65-1.86l4.41,8.66c0.13,0.25,0.44,0.35,0.69,0.22l9.12-4.65c0.25-0.13,0.35-0.44,0.22-0.69l-4.41-8.66l3.65-1.86l12.31,24.17
	c0.38,0.76,0.08,1.68-0.67,2.06c-0.76,0.38-1.68,0.08-2.06-0.67l-0.93-1.82c-0.13-0.25-0.44-0.35-0.69-0.22l-14.14,7.2
	L1018.66,100.72z M1026.62,125.38l17.33-8.83l0.7,1.37c0.25,0.49,0.66,0.89,1.15,1.14l-16.42,8.36c-0.76,0.38-1.68,0.08-2.06-0.67
	L1026.62,125.38z M1030.85,95.77c-0.15-0.03-0.31,0.01-0.43,0.12l-3.18,2.77c-0.18,0.15-0.23,0.41-0.12,0.62l1.2,2.36
	c-0.84,0.11-1.43,0.88-1.32,1.72c0.11,0.84,0.88,1.43,1.72,1.32c0.84-0.11,1.43-0.88,1.32-1.72c-0.02-0.17-0.07-0.34-0.15-0.5
	l-1.68-3.29l2.39-2.08l0.9,1.77c-0.84,0.11-1.43,0.88-1.32,1.72c0.11,0.84,0.88,1.43,1.72,1.32c0.84-0.11,1.43-0.88,1.32-1.72
	c-0.02-0.17-0.07-0.34-0.15-0.5l-1.86-3.65C1031.14,95.9,1031,95.8,1030.85,95.77z M1028.75,103.62c-0.25,0.13-0.56,0.03-0.69-0.22
	s-0.03-0.56,0.22-0.69s0.56-0.03,0.69,0.22C1029.1,103.18,1029,103.49,1028.75,103.62z M1031.93,100.85
	c-0.25,0.13-0.56,0.03-0.69-0.22c-0.13-0.25-0.03-0.56,0.22-0.69s0.56-0.03,0.69,0.22C1032.28,100.41,1032.18,100.72,1031.93,100.85
	z M1029.93,108.18c-0.13-0.25-0.03-0.56,0.22-0.69l4.56-2.32c0.25-0.13,0.56-0.03,0.69,0.22c0.13,0.25,0.03,0.56-0.22,0.69
	l-4.56,2.32C1030.36,108.54,1030.05,108.44,1029.93,108.18z M1038.61,106.06c0.13,0.25,0.03,0.56-0.22,0.69l-9.12,4.65
	c-0.25,0.13-0.56,0.03-0.69-0.22c-0.13-0.25-0.03-0.56,0.22-0.69l9.12-4.65C1038.17,105.71,1038.48,105.81,1038.61,106.06z
	 M1038.4,109.04l-7.3,3.72c-0.25,0.13-0.56,0.03-0.69-0.22c-0.13-0.25-0.03-0.56,0.22-0.69l7.3-3.72c0.25-0.13,0.56-0.03,0.69,0.22
	C1038.75,108.6,1038.65,108.91,1038.4,109.04z M1037.96,111.56c0.25-0.13,0.56-0.03,0.69,0.22c0.13,0.25,0.03,0.56-0.22,0.69
	l-4.56,2.32c-0.25,0.13-0.56,0.03-0.69-0.22c-0.13-0.25-0.03-0.56,0.22-0.69L1037.96,111.56z M1041.86,112.44
	c0.13,0.25,0.03,0.56-0.22,0.69l-9.12,4.65c-0.25,0.13-0.56,0.03-0.69-0.22c-0.13-0.25-0.03-0.56,0.22-0.69l9.12-4.65
	C1041.42,112.09,1041.73,112.19,1041.86,112.44z M1041.88,114.73c0.13,0.25,0.03,0.56-0.22,0.69l-7.3,3.72
	c-0.25,0.13-0.56,0.03-0.69-0.22c-0.13-0.25-0.03-0.56,0.22-0.69l7.3-3.72C1041.44,114.38,1041.75,114.48,1041.88,114.73z"/>
<linearGradient id="SVGID_10_" gradientUnits="userSpaceOnUse" x1="132.004" y1="61.5785" x2="159.9267" y2="7.2341" gradientTransform="matrix(0.8895 -0.457 0.457 0.8895 -17.1391 153.1409)">
	<stop  offset="0" style="stop-color:#27C1E6"/>
	<stop  offset="0.5" style="stop-color:#C275E9"/>
	<stop  offset="1" style="stop-color:#F2515D"/>
</linearGradient>
<path class="st11" d="M137.39,86.96l-38.55,19.81c-2.13,1.1-2.97,3.71-1.87,5.84l16.64,32.38c1.1,2.13,3.71,2.97,5.84,1.87
	l13.66-7.02l1.22,5.22l-1.71,0.88c-0.43,0.22-0.59,0.74-0.37,1.17s0.74,0.59,1.17,0.37l16.96-8.72c0.43-0.22,0.59-0.74,0.37-1.17
	s-0.74-0.59-1.17-0.37l-1.71,0.88l-3.53-4.03l13.66-7.02c2.13-1.1,2.97-3.71,1.87-5.84l-16.64-32.38
	C142.13,86.71,139.52,85.87,137.39,86.96z M135.91,144.25l-1.22-5.22l8.05-4.14l3.53,4.03L135.91,144.25z M158.32,122.01
	c0.65,1.28,0.15,2.84-1.12,3.5l-38.55,19.81c-1.28,0.65-2.84,0.15-3.5-1.12l-1.19-2.31l43.18-22.19L158.32,122.01z M156.34,118.16
	l-43.18,22.19l-12.68-24.67l43.18-22.19L156.34,118.16z M142.87,91.94L99.7,114.13l-1.19-2.31c-0.65-1.28-0.15-2.84,1.12-3.5
	l38.55-19.81c1.28-0.65,2.84-0.15,3.5,1.12L142.87,91.94z M101.59,110.23c0.22,0.43,0.05,0.95-0.37,1.17
	c-0.43,0.22-0.95,0.05-1.17-0.37c-0.22-0.43-0.05-0.95,0.37-1.17C100.85,109.64,101.37,109.81,101.59,110.23z M104.68,108.65
	c0.22,0.43,0.05,0.95-0.37,1.17c-0.43,0.22-0.95,0.05-1.17-0.37s-0.05-0.95,0.37-1.17C103.93,108.05,104.46,108.22,104.68,108.65z
	 M107.76,107.06c0.22,0.43,0.05,0.95-0.37,1.17c-0.43,0.22-0.95,0.05-1.17-0.37c-0.22-0.43-0.05-0.95,0.37-1.17
	C107.02,106.47,107.54,106.64,107.76,107.06z M140.07,118.73l4.46-2.29l3.06,3.34c0.32,0.35,0.87,0.38,1.22,0.05
	c0.16-0.15,0.27-0.36,0.28-0.58l0.22-3.35l1.77-2.85c0.25-0.41,0.13-0.94-0.28-1.19c-0.19-0.12-0.42-0.16-0.64-0.11l-0.92,0.19
	l-1.93-3.76c-0.22-0.43-0.74-0.59-1.17-0.37l-9.25,4.75c-0.43,0.22-0.59,0.74-0.37,1.17l2.38,4.63
	C139.12,118.78,139.64,118.95,140.07,118.73z M147.72,115.17c-0.08,0.12-0.12,0.26-0.13,0.4l-0.1,1.54l-2.32-2.54l3.37-0.71
	L147.72,115.17z M138.46,113.7l7.71-3.96l1.32,2.57l-4.16,0.88c-0.47,0.1-0.77,0.56-0.67,1.03c0.03,0.15,0.1,0.29,0.21,0.41
	l0.45,0.49l-3.27,1.68L138.46,113.7z M133.31,103.68c-0.22-0.43-0.05-0.95,0.37-1.17l6.17-3.17c0.43-0.22,0.95-0.05,1.17,0.37
	c0.22,0.43,0.05,0.95-0.37,1.17l-6.17,3.17C134.05,104.27,133.53,104.11,133.31,103.68z M133.35,107.56
	c-0.22-0.43-0.05-0.95,0.37-1.17l2.31-1.19c0.43-0.22,0.95-0.05,1.17,0.37s0.05,0.95-0.37,1.17l-2.31,1.19
	C134.09,108.15,133.57,107.98,133.35,107.56z M140.67,102.82l2.31-1.19c0.43-0.22,0.95-0.05,1.17,0.37
	c0.22,0.43,0.05,0.95-0.37,1.17l-2.31,1.19c-0.43,0.22-0.95,0.05-1.17-0.37C140.07,103.57,140.24,103.04,140.67,102.82z
	 M134.94,110.64c-0.22-0.43-0.05-0.95,0.37-1.17l2.31-1.19c0.43-0.22,0.95-0.05,1.17,0.37s0.05,0.95-0.37,1.17l-2.31,1.19
	C135.68,111.23,135.16,111.07,134.94,110.64z M145.73,105.09c0.22,0.43,0.05,0.95-0.37,1.17l-2.31,1.19
	c-0.43,0.22-0.95,0.05-1.17-0.37c-0.22-0.43-0.05-0.95,0.37-1.17l2.31-1.19C144.99,104.5,145.51,104.67,145.73,105.09z
	 M134.42,134.3c-0.22-0.43-0.05-0.95,0.37-1.17l3.08-1.58c0.43-0.22,0.95-0.05,1.17,0.37s0.05,0.95-0.37,1.17l-3.08,1.58
	C135.16,134.89,134.64,134.72,134.42,134.3z M111.25,129.79c-0.09,0.57,0,1.15,0.27,1.66c0.34,0.67,0.95,1.17,1.68,1.37l0.68,1.32
	c0.66,1.28,2.22,1.78,3.5,1.12l10.79-5.55c1.24-0.64,1.76-2.14,1.17-3.41c1.88-1.25,4.02-2.08,6.25-2.41
	c0.47-0.07,0.8-0.52,0.72-0.99c-0.01-0.07-0.03-0.14-0.06-0.21l-4.78-11.19c-0.19-0.44-0.7-0.64-1.14-0.46
	c-0.02,0.01-0.04,0.02-0.06,0.03l-1.98-3.86c-0.22-0.43-0.74-0.59-1.17-0.37l-2.31,1.19l-0.4-0.77c-0.22-0.43-0.74-0.59-1.17-0.37
	l-3.08,1.58c-0.43,0.22-0.59,0.74-0.37,1.17l0.4,0.77l-2.31,1.19c-0.43,0.22-0.59,0.74-0.37,1.17l1.3,2.54
	c-0.58,0.11-1.14,0.3-1.66,0.57l-4.63,2.38c-2.68,1.38-3.94,4.52-2.96,7.37l-0.06,0.03c-0.85,0.44-1.19,1.48-0.75,2.33
	C109.26,128.94,110.18,129.61,111.25,129.79z M127.75,127c0.22,0.43,0.05,0.95-0.37,1.17l-10.79,5.55
	c-0.43,0.22-0.95,0.05-1.17-0.37l-0.4-0.77l12.34-6.34L127.75,127z M126.7,124.62l-12.62,6.48c-0.35,0.18-0.81-0.02-1.03-0.45
	c-0.22-0.43-0.11-0.92,0.23-1.1l-0.01-0.01c0.09-0.04,0.17-0.07,0.26-0.12c0.73-0.37,1.32-0.98,1.66-1.73
	c1.66,0.32,3.33-0.54,4.04-2.07c1.66,0.32,3.33-0.54,4.04-2.07c0.81,0.16,1.65,0.03,2.38-0.34c0.08-0.04,0.17-0.09,0.25-0.14
	l0.01,0.01c0.35-0.18,0.81,0.02,1.03,0.45C127.16,123.95,127.05,124.44,126.7,124.62z M125.62,109.58l1.54-0.79l1.58,3.08
	l-1.54,0.79L125.62,109.58z M122.14,110.39l-0.4-0.77l1.54-0.79l2.38,4.63l-1.54,0.79L122.14,110.39z M130.25,113.05l3.99,9.34
	c-1.97,0.42-3.85,1.19-5.55,2.27c0.32-1.24-0.26-2.53-1.41-3.11c0.48-0.97,0.47-2.1-0.02-3.07c-0.44-0.85-1.48-1.19-2.33-0.75
	l-0.06,0.03c-0.35-0.5-0.78-0.93-1.26-1.3L130.25,113.05z M119.45,112.75l1.54-0.79l1.58,3.08l-0.85,0.44
	c-0.32-0.1-0.65-0.17-0.98-0.22L119.45,112.75z M113.33,119.8l4.63-2.38c1.83-0.94,4.07-0.46,5.36,1.14l-12.18,6.26
	C110.58,122.84,111.5,120.74,113.33,119.8z M125.73,119.27L125.73,119.27c0.44,0.85,0.05,1.92-0.86,2.39
	c-0.55,0.29-1.2,0.29-1.75,0.01c-0.42-0.22-0.95-0.06-1.17,0.36c-0.05,0.09-0.08,0.19-0.09,0.29c-0.17,1.05-1.15,1.77-2.21,1.61
	c-0.2-0.03-0.39-0.09-0.57-0.18c-0.42-0.22-0.95-0.06-1.17,0.36c-0.05,0.09-0.08,0.19-0.09,0.29c-0.17,1.05-1.15,1.77-2.21,1.61
	c-0.2-0.03-0.39-0.09-0.57-0.18c-0.42-0.22-0.95-0.06-1.17,0.36c-0.05,0.09-0.08,0.19-0.09,0.29c-0.09,0.61-0.47,1.14-1.02,1.42
	c-0.91,0.47-2.01,0.16-2.44-0.69L125.73,119.27z"/>
<linearGradient id="SVGID_11_" gradientUnits="userSpaceOnUse" x1="1686.1885" y1="1057.7499" x2="1686.1885" y2="1109.7465" gradientTransform="matrix(-0.6118 0.791 -0.791 -0.6118 1973.9076 -240.655)">
	<stop  offset="0" style="stop-color:#27C1E6"/>
	<stop  offset="0.5" style="stop-color:#C275E9"/>
	<stop  offset="1" style="stop-color:#F2515D"/>
</linearGradient>
<path class="st12" d="M96.34,436.58c-0.38-0.29-0.45-0.84-0.16-1.22s0.84-0.45,1.22-0.16c0.38,0.29,0.45,0.84,0.16,1.22
	S96.72,436.87,96.34,436.58z M85.25,436.76c-0.29,0.38-0.22,0.92,0.16,1.22c0.38,0.29,0.92,0.22,1.22-0.16
	c0.29-0.38,0.22-0.92-0.16-1.22C86.09,436.32,85.54,436.38,85.25,436.76z M88,414.79c-0.29,0.38-0.22,0.92,0.16,1.22
	c0.38,0.29,0.92,0.22,1.22-0.16c0.29-0.38,0.22-0.92-0.16-1.22S88.29,414.41,88,414.79z M79.74,422.64
	c-0.29,0.38-0.22,0.92,0.16,1.22c0.38,0.29,0.92,0.22,1.22-0.16c0.29-0.38,0.22-0.92-0.16-1.22S80.03,422.26,79.74,422.64z
	 M55.12,439.6c-0.41-0.05-0.72-0.39-0.75-0.8c-0.01-0.11-0.17-2.8,1-7.2c1.07-4.02,3.51-10.31,9.08-17.51s11.05-11.14,14.67-13.18
	c3.97-2.24,6.61-2.75,6.72-2.77c0.4-0.08,0.81,0.14,0.96,0.52l8.57,21.04c2.7,0.98,4.09,3.96,3.11,6.66
	c-0.06,0.16-0.13,0.32-0.2,0.48l7.42,18.22c0.18,0.44-0.03,0.95-0.48,1.13c-0.14,0.06-0.29,0.08-0.44,0.06l-6.6-0.88
	c-1.23,2.59-4.33,3.7-6.92,2.47c-1.52-0.72-2.6-2.13-2.89-3.78l-15.9-2.12c-0.03,0.07-0.07,0.14-0.11,0.2l-2.12,2.74
	c-0.29,0.38-0.84,0.45-1.22,0.16c-0.03-0.03-0.06-0.05-0.09-0.08c-0.82-0.91-1.45-1.96-1.87-3.11c-0.07-0.2-0.14-0.42-0.2-0.65
	L55.12,439.6z M70.63,441.5c-0.44-0.94-1.03-2.91,0.41-4.78c1.44-1.86,3.5-1.78,4.52-1.6l1.1-1.42c-1.53-0.54-4.63-1.1-6.99,1.96
	c-2.36,3.05-1.05,5.91-0.14,7.26L70.63,441.5z M77.11,435.95c1.51,1.18,3.7,0.9,4.87-0.61c1.18-1.51,0.9-3.7-0.61-4.87
	c-1.51-1.18-3.7-0.9-4.87,0.61c-0.16,0.21-0.3,0.44-0.41,0.68c0.82,0.17,1.62,0.46,2.36,0.85c0.42,0.24,0.56,0.77,0.33,1.18
	c-0.02,0.04-0.04,0.07-0.07,0.1L77.11,435.95z M96.22,445.25c1.17-1.51,0.89-3.69-0.62-4.86c-1.51-1.17-3.69-0.89-4.86,0.62
	c-1.17,1.51-0.89,3.69,0.62,4.86C92.87,447.04,95.04,446.76,96.22,445.25z M95.7,421.84c-1.51-1.17-3.69-0.89-4.86,0.62
	c-0.25,0.32-0.44,0.69-0.56,1.07c0.75,0.3,1.45,0.7,2.09,1.2c1.25,0.96,2.01,2.03,2.47,3.08c1.79-0.69,2.67-2.69,1.98-4.48
	C96.58,422.74,96.2,422.23,95.7,421.84z M90.24,427.48c1.86,1.44,1.78,3.5,1.6,4.52l1.42,1.1c0.54-1.53,1.1-4.63-1.96-6.99
	c-3.05-2.36-5.91-1.05-7.26-0.14l1.42,1.1C86.41,426.63,88.38,426.03,90.24,427.48z M93.36,419.39l-4.47-10.97
	c-1.72,0.54-3.39,1.25-4.97,2.13c2.19,1.86,2.45,5.14,0.59,7.33c-1.86,2.19-5.14,2.45-7.33,0.59c-0.55-0.47-1-1.05-1.32-1.71
	c-1.14,1.17-2.21,2.4-3.21,3.69c-0.1,0.13-0.2,0.26-0.3,0.39c3,0.19,4.93,2.09,5.02,2.18c0.28,0.28,0.33,0.71,0.13,1.05
	c-0.08,0.13-1.92,3.21-5.74,3.69c-1.46,0.19-2.59-0.08-3.42-0.5c-2.43,4.89-3.15,9.05-3.27,11.92l1.51,0.2
	c-0.02-1.43,0.38-3.09,1.69-4.78c1.91-2.47,4.22-3.06,6.01-3.05c0.91-2.73,3.86-4.21,6.59-3.3c2.73,0.91,4.21,3.86,3.3,6.59
	c-0.91,2.73-3.86,4.21-6.59,3.3c-0.76-0.25-1.44-0.67-2.01-1.23c-0.22-0.07-2.05-0.59-3.19,0.87c-0.62,0.81-0.61,1.67-0.45,2.32
	l16.38,2.19c0.46-2.83,3.13-4.76,5.96-4.3c2.72,0.44,4.63,2.93,4.34,5.68l4.87,0.65l-6.46-15.87c-0.51,0.45-1.1,0.8-1.74,1.03
	c0.1,0.64,0.12,1.29,0.07,1.93c-0.11,1.22-0.46,2.4-1.02,3.48c-0.24,0.42-0.77,0.56-1.18,0.33c-0.04-0.02-0.07-0.04-0.1-0.07
	l-2.74-2.12c-0.3-0.23-0.41-0.62-0.29-0.97c0.03-0.08,0.66-2.03-0.86-3.21c-1.54-1.19-3.3-0.04-3.32-0.03
	c-0.31,0.21-0.72,0.19-1.01-0.03l-2.74-2.12c-0.38-0.29-0.45-0.84-0.16-1.22c0.03-0.03,0.05-0.06,0.08-0.09
	c0.91-0.82,1.96-1.45,3.11-1.86c1.1-0.4,2.28-0.54,3.45-0.39C89.23,420.97,91.14,419.48,93.36,419.39L93.36,419.39z M71.13,422.61
	c-2.15,0.27-2.9,1.56-3.13,2.15c0.37,0.51,1.43,1.57,3.57,1.29c2.05-0.26,3.39-1.5,4.02-2.26
	C74.78,423.22,73.17,422.35,71.13,422.61z M78.43,417.25c1.51,1.17,3.69,0.89,4.86-0.62c1.17-1.51,0.89-3.69-0.62-4.86
	c-1.51-1.17-3.69-0.89-4.86,0.62C76.64,413.9,76.92,416.08,78.43,417.25z M56.09,437.98l7.27,0.97c0.16-3.1,0.96-7.56,3.59-12.75
	c-0.27-0.28-0.5-0.61-0.69-0.95c-0.08-0.17-0.11-0.36-0.07-0.54c0.16-0.65,0.45-1.26,0.87-1.78c0.57-0.74,1.51-1.51,3-1.89
	c0.39-0.55,0.8-1.1,1.22-1.65c1.25-1.62,2.61-3.15,4.07-4.58c-0.17-2.86,2.01-5.33,4.87-5.5c0.65-0.04,1.31,0.04,1.93,0.25
	c1.91-1.15,3.95-2.07,6.07-2.75l-2.77-6.8c-0.99,0.29-3,0.98-5.6,2.46c-3.46,1.97-8.7,5.76-14.06,12.69s-7.71,12.96-8.75,16.8
	C56.29,434.84,56.12,436.95,56.09,437.98z"/>
<linearGradient id="SVGID_12_" gradientUnits="userSpaceOnUse" x1="1030.491" y1="380.9578" x2="1039.1703" y2="335.3876" gradientTransform="matrix(0.9823 -0.1871 0.1871 0.9823 -21.6638 211.9994)">
	<stop  offset="0" style="stop-color:#27C1E6"/>
	<stop  offset="0.5" style="stop-color:#C275E9"/>
	<stop  offset="1" style="stop-color:#F2515D"/>
</linearGradient>
<path class="st13" d="M1052.39,356.02c0.08,0.4-0.18,0.78-0.58,0.85c-0.4,0.08-0.78-0.18-0.85-0.58c-0.08-0.4,0.18-0.78,0.58-0.85
	C1051.93,355.36,1052.31,355.62,1052.39,356.02z M1054.71,352.6c-0.4,0.08-0.66,0.46-0.58,0.85c0.08,0.4,0.46,0.66,0.85,0.58
	s0.66-0.46,0.58-0.85C1055.49,352.78,1055.11,352.52,1054.71,352.6z M1061.89,351.23c-0.4,0.08-0.66,0.46-0.58,0.85
	c0.08,0.4,0.46,0.66,0.85,0.58c0.4-0.08,0.66-0.46,0.58-0.85C1062.67,351.42,1062.29,351.16,1061.89,351.23z M1058.71,354.07
	c-0.4,0.08-0.66,0.46-0.58,0.85c0.08,0.4,0.46,0.66,0.85,0.58s0.66-0.46,0.58-0.85C1059.49,354.25,1059.11,353.99,1058.71,354.07z
	 M1065.89,352.7c-0.4,0.08-0.66,0.46-0.58,0.85c0.08,0.4,0.46,0.66,0.85,0.58c0.4-0.08,0.66-0.46,0.58-0.85
	C1066.67,352.89,1066.29,352.63,1065.89,352.7z M1079.63,367.41c0.23,0.16,0.35,0.43,0.31,0.7c-0.1,0.55-0.31,1.07-0.63,1.53
	c-0.44,0.64-1.04,1.15-1.73,1.48l0.17,0.9c0.1,0.53,0,1.08-0.28,1.54c0.43,0.33,0.72,0.8,0.82,1.33l0.68,3.59l0.72-0.14
	c0.4-0.08,0.78,0.18,0.85,0.58l0.55,2.87c0.68,3.57-1.66,7.01-5.23,7.69l-20.1,3.83c-3.57,0.68-7.01-1.66-7.69-5.23l-0.55-2.87
	c-0.08-0.4,0.18-0.78,0.58-0.85l0.72-0.14l-0.68-3.59c-0.1-0.53,0-1.08,0.28-1.54c-0.43-0.33-0.72-0.8-0.82-1.33l-0.14-0.72
	c-1.73,0.33-2.93-0.17-3.62-0.64c-0.46-0.31-0.86-0.71-1.15-1.19c-0.14-0.24-0.12-0.54,0.03-0.77l1.64-2.42
	c0.54-0.8,1.38-1.36,2.34-1.53l0.96-0.18l-0.27-1.44l-0.72,0.14c-0.4,0.08-0.78-0.18-0.85-0.58l-0.41-2.15l-0.72,0.14
	c-0.4,0.08-0.78-0.18-0.85-0.58l-0.68-3.59c-1.13-5.95,2.77-11.68,8.72-12.82l11.49-2.19c5.95-1.13,11.68,2.77,12.82,8.72l0.68,3.59
	c0.08,0.4-0.18,0.78-0.58,0.85l-0.72,0.14l0.41,2.15c0.08,0.4-0.18,0.78-0.58,0.85l-0.72,0.14l0.28,1.47
	c0.8-0.05,1.6,0.17,2.26,0.63L1079.63,367.41z M1073.24,363.95l-9.33,1.78l0.27,1.44l9.33-1.78L1073.24,363.95z M1074.13,360.8
	l-16.51,3.14l0.27,1.44l16.51-3.14L1074.13,360.8z M1045.14,364.84l30.15-5.74l-0.55-2.87c-0.99-5.15-5.96-8.53-11.11-7.55
	l-11.49,2.19c-5.15,0.99-8.53,5.96-7.55,11.11L1045.14,364.84z M1046.85,366l0.27,1.44l9.33-1.78l-0.27-1.44L1046.85,366z
	 M1049.1,370.03l13.64-2.6l-0.27-1.44l-13.64,2.6L1049.1,370.03z M1050.27,383.95l4.54-0.86l-4.27-3.65l-0.37,0.07
	c-0.4,0.08-0.66,0.46-0.58,0.85L1050.27,383.95z M1070.26,375.67l-17.89,3.41l5.54,4.74L1070.26,375.67z M1079.25,379.91
	l-17.95,3.42l-3.05,2.01c-0.27,0.18-0.63,0.16-0.88-0.05l-1.16-0.99l-7.12,1.36l0.41,2.15c0.53,2.77,3.21,4.59,5.98,4.07l20.1-3.83
	c2.77-0.53,4.59-3.21,4.07-5.98L1079.25,379.91z M1077.54,378.75l-0.68-3.59c-0.08-0.4-0.46-0.66-0.85-0.58l-2.01,0.38l-9.52,6.28
	L1077.54,378.75z M1076.18,371.57c-1.73,0.33-2.93-0.17-3.62-0.64c-0.09-0.06-0.17-0.12-0.25-0.19c-0.05,0.09-0.11,0.18-0.17,0.27
	c-0.48,0.7-1.4,1.6-3.13,1.93c-1.73,0.33-2.93-0.17-3.62-0.64c-0.09-0.06-0.17-0.12-0.25-0.19c-0.05,0.09-0.11,0.18-0.17,0.27
	c-0.48,0.7-1.4,1.6-3.13,1.93c-1.73,0.33-2.93-0.17-3.62-0.64c-0.09-0.06-0.17-0.12-0.25-0.19c-0.05,0.09-0.11,0.18-0.17,0.27
	c-0.48,0.7-1.4,1.6-3.13,1.93c-1.73,0.33-2.93-0.17-3.62-0.64c-0.09-0.06-0.17-0.12-0.25-0.19c-0.05,0.09-0.11,0.18-0.17,0.27
	c-0.44,0.64-1.04,1.15-1.73,1.48l0.17,0.9c0.08,0.4,0.46,0.66,0.85,0.58l25.84-4.92c0.4-0.07,0.66-0.46,0.58-0.85c0,0,0,0,0,0
	L1076.18,371.57z M1078.37,368.32l-1.98-1.35c-0.48-0.33-1.07-0.45-1.64-0.34l-27.77,5.29c-0.57,0.11-1.08,0.44-1.4,0.92l-1.35,1.98
	c0.41,0.43,1.34,1.09,2.96,0.78c2.33-0.44,2.59-2.2,2.59-2.22c0.05-0.4,0.42-0.68,0.82-0.63c0.23,0.03,0.43,0.17,0.54,0.37
	c0.03,0.06,0.94,1.54,3.23,1.11c2.33-0.44,2.59-2.2,2.59-2.22c0.05-0.4,0.42-0.68,0.82-0.63c0.23,0.03,0.43,0.17,0.54,0.37
	c0.03,0.06,0.94,1.54,3.22,1.11s2.58-2.15,2.59-2.22c0.05-0.4,0.42-0.68,0.82-0.62c0.23,0.03,0.43,0.17,0.54,0.37
	c0.03,0.06,0.94,1.54,3.23,1.11c2.29-0.44,2.58-2.15,2.59-2.22c0.05-0.4,0.42-0.68,0.82-0.62c0.23,0.03,0.43,0.17,0.54,0.37
	c0.03,0.06,0.94,1.54,3.22,1.11C1077.52,369.83,1078.14,368.88,1078.37,368.32z"/>
</svg>
