<svg id="Gradient" height="512" viewBox="0 0 512 512" width="512" xmlns="http://www.w3.org/2000/svg" xmlns:xlink="http://www.w3.org/1999/xlink"><linearGradient id="linear-gradient" gradientUnits="userSpaceOnUse" x1="256" x2="256" y1="496" y2="15.999"><stop offset="0" stop-color="#12c2e9"/><stop offset=".5" stop-color="#c471ed"/><stop offset="1" stop-color="#f64f59"/></linearGradient><path d="m280 232v180.261a47.974 47.974 0 1 0 16 35.739v-162.584l144-57.6v136.445a47.974 47.974 0 1 0 16 35.739v-232a8 8 0 0 0 -10.971-7.428l-160 64a8 8 0 0 0 -5.029 7.428zm-32 248a32 32 0 1 1 32-32 32.036 32.036 0 0 1 -32 32zm160-48a32 32 0 1 1 32-32 32.036 32.036 0 0 1 -32 32zm32-252.184v30.768l-144 57.6v-30.768zm-211.562-66.472c-36.819-24.544-77.138-92.711-77.538-93.397a8 8 0 0 0 -14.9 4.053v188.261a47.974 47.974 0 1 0 16 35.739v-196.583c15.778 23.354 41.873 58.113 67.562 75.239 17.015 11.344 24.6 26.1 22.56 43.852a64.5 64.5 0 0 1 -8.754 25.016l-.007.011-.017.027a8 8 0 1 0 13.312 8.874 79.919 79.919 0 0 0 11.282-31.446c2.105-16.834-1.305-40.849-29.5-59.646zm-124.438 166.656a32 32 0 1 1 32-32 32.036 32.036 0 0 1 -32 32zm280-224v16h16a8 8 0 0 1 0 16h-16v16a8 8 0 0 1 -16 0v-16h-16a8 8 0 0 1 0-16h16v-16a8 8 0 0 1 16 0zm-280 400v-16h-16a8 8 0 0 1 0-16h16v-16a8 8 0 0 1 16 0v16h16a8 8 0 0 1 0 16h-16v16a8 8 0 0 1 -16 0z" fill="url(#linear-gradient)"/></svg>