<?xml version="1.0" encoding="utf-8"?>
<!-- Generator: Adobe Illustrator 23.0.1, SVG Export Plug-In . SVG Version: 6.00 Build 0)  -->
<svg version="1.1" id="Layer_1" xmlns="http://www.w3.org/2000/svg" xmlns:xlink="http://www.w3.org/1999/xlink" x="0px" y="0px"
	 viewBox="0 0 100 100" style="enable-background:new 0 0 100 100;" xml:space="preserve">
<style type="text/css">
	.st0{fill:#FAA500;}
	.st1{fill:#F5F5F5;}
</style>
<path class="st0" d="M26.51,44.08c0.09-5.34,0.77-10.56,2.15-15.76c2.13-8.03,6.8-13.34,14.74-15.99c5.72-1.91,6.29-3.39,4.48-9.25
	c-0.29-0.92-1.42-1.85,0.08-2.7c1.01-0.58,2-0.48,3.05,0.01c3.07,1.44,3.8,4.38,4.09,7.2c0.31,3,1.81,4.57,4.27,5.9
	c10.53,5.72,13.58,13.44,9.93,25.21c-2.43,7.84-5.72,15.4-6.88,23.63c-1.45,10.25-1.51,20.32,2.48,30.1
	c0.9,2.21,1.28,4.54-0.56,6.41c-1.96,1.98-4.43,1.07-6.4,0.13c-10.99-5.25-18.8-13.81-24.43-24.43
	C28.47,65.02,26.82,54.69,26.51,44.08z"/>
<path class="st0" d="M945.47,634.53c0.1-5.83,0.85-11.54,2.35-17.22c2.33-8.77,7.43-14.57,16.1-17.46
	c6.25-2.08,6.87-3.71,4.89-10.11c-0.31-1.01-1.55-2.02,0.08-2.95c1.1-0.63,2.19-0.52,3.33,0.01c3.35,1.57,4.15,4.78,4.46,7.86
	c0.33,3.28,1.98,4.99,4.66,6.45c11.5,6.25,14.83,14.68,10.85,27.53c-2.65,8.56-6.25,16.82-7.52,25.81
	c-1.58,11.19-1.64,22.2,2.71,32.87c0.99,2.42,1.4,4.96-0.61,7c-2.14,2.17-4.83,1.17-6.99,0.14c-12-5.73-20.53-15.09-26.68-26.68
	C947.61,657.41,945.81,646.12,945.47,634.53z"/>
<path class="st1" d="M976.97,622.2c0.33,2.4,0.06,4.63-1.71,6.47c-3.17,2.73-8.17,2.57-10.85-0.35c-3.11-3.4-3.31-8.1-0.5-11.77
	c0.15-0.19,0.27-0.41,0.41-0.61c0.74-0.56,1.47-1.13,1.81-2.05c0.36-0.09,0.63-0.31,0.84-0.61c0.48-0.11,0.78-0.41,0.92-0.88
	c0.08-0.03,0.16-0.06,0.24-0.1c1.44-0.5,2.74-1.27,4.08-1.98c1.04-0.55,1.9-0.48,2.21,0.88c-0.02,0.08-0.05,0.17-0.07,0.25
	c-2.24,1.29-3.65,3.34-5.01,5.44c-0.29,0.44-0.5,0.98-0.58,1.5c-0.11,0.72,0.27,1.24,1.03,0.96c2.04-0.75,3.75,0.16,5.5,0.94
	c0.36,0.34,0.72,0.68,1.08,1.01c0.21,0.29,0.42,0.59,0.63,0.88L976.97,622.2z M967.55,624.65c-0.03,1.01,0.07,1.98,0.99,2.63
	c1.09,0.78,2.88,0.56,4.4-0.53c1.41-1.02,1.99-2.42,1.55-3.8c-0.24-0.76-0.58-1.46-1.37-1.82
	C970.62,619.99,967.58,621.91,967.55,624.65z"/>
<path class="st1" d="M57.03,31.07c0.34,2.41,0.06,4.67-1.72,6.52c-3.2,2.75-8.23,2.59-10.93-0.36c-3.14-3.42-3.34-8.16-0.51-11.85
	c0.15-0.2,0.27-0.41,0.41-0.62c0.74-0.57,1.48-1.14,1.82-2.07c0.37-0.09,0.64-0.31,0.84-0.62c0.49-0.11,0.78-0.42,0.92-0.89
	c0.08-0.03,0.16-0.06,0.24-0.1c1.45-0.51,2.76-1.28,4.11-1.99c1.05-0.55,1.92-0.48,2.23,0.89c-0.02,0.08-0.05,0.17-0.07,0.25
	c-2.25,1.3-3.68,3.37-5.04,5.48c-0.29,0.45-0.5,0.98-0.58,1.51c-0.11,0.73,0.27,1.24,1.04,0.96c2.05-0.76,3.78,0.16,5.54,0.94
	c0.36,0.34,0.73,0.68,1.09,1.02c0.21,0.3,0.42,0.59,0.63,0.89L57.03,31.07z M47.53,33.54c-0.03,1.02,0.08,1.99,1,2.65
	c1.1,0.79,2.9,0.57,4.43-0.53c1.42-1.02,2-2.44,1.56-3.83c-0.24-0.77-0.58-1.47-1.38-1.83C50.62,28.84,47.57,30.78,47.53,33.54z"/>
</svg>
