<?xml version="1.0" encoding="utf-8"?>
<!-- Generator: Adobe Illustrator 23.0.1, SVG Export Plug-In . SVG Version: 6.00 Build 0)  -->
<svg version="1.1"
	 id="svg2" xmlns:cc="http://creativecommons.org/ns#" xmlns:dc="http://purl.org/dc/elements/1.1/" xmlns:rdf="http://www.w3.org/1999/02/22-rdf-syntax-ns#" xmlns:svg="http://www.w3.org/2000/svg"
	 xmlns="http://www.w3.org/2000/svg" xmlns:xlink="http://www.w3.org/1999/xlink" x="0px" y="0px" viewBox="0 0 4581.2 1944.4"
	 style="enable-background:new 0 0 4581.2 1944.4;" xml:space="preserve">
<style type="text/css">
	.st0{fill:#077954;}
	.st1{fill:#FFFFFF;}
	.st2{fill:#DF2A27;}
</style>
<g id="g10" transform="matrix(1.3333333,0,0,-1.3333333,-0.3026036,1946.0634)">
	<g id="g12" transform="scale(0.1)">
		<g id="g14" transform="scale(2.10807)">
			<path id="path16" class="st0" d="M15701.9,3871.4c-1151,662.8-3804.4,1337.2-4926.6,1426.6l-845.3,67.8
				c-901.6,73.4-1399.3,112.7-1779.9,112.7c-380.7,0-2623.8-181.7-2623.8-181.7c-1122.8-89.4-3775.6-763.5-4927.1-1426.5
				C59.6,3560.3,1.1,3339.4,1.1,2606.9V739.3c0-151.9,18.3-372.8,176.7-540.5c182.5-193,419-193,692.8-193h14560.2
				c273.5,0,509.9,0,692.5,193c158.3,167.8,176.7,388.6,176.7,540.5v1868.5C16300,3340.4,16241.4,3560.3,15701.9,3871.4
				L15701.9,3871.4z"/>
		</g>
		<g id="g18" transform="scale(2.10807)">
			<path id="path20" d="M15701.9,3871.4c-1151,662.8-3804.4,1337.2-4926.6,1426.6l-845.3,67.8
				c-901.6,73.4-1399.3,112.7-1779.9,112.7c-380.7,0-2623.8-181.7-2623.8-181.7c-1122.8-89.4-3775.6-763.5-4927.1-1426.5
				C59.6,3560.3,1.1,3339.4,1.1,2606.9V739.3c0-151.9,18.3-372.8,176.7-540.5c182.5-193,419-193,692.8-193h14560.2
				c273.5,0,509.9,0,692.5,193c158.3,167.8,176.7,388.6,176.7,540.5v1868.5C16300,3340.4,16241.4,3560.3,15701.9,3871.4
				 M15701.9,3871.4c539.5-311.1,598.1-531,598.1-1263.5V739.3c0-151.9-18.4-372.7-176.7-540.5c-182.6-193-419-193-692.5-193H870.6
				c-273.9,0-510.3,0-692.8,193C19.4,366.6,1.1,587.4,1.1,739.3v1867.5c0,732.6,58.6,953.4,598.1,1263.4
				c1151.5,663,3804.4,1337.2,4927.1,1426.5c0,0,2243.1,181.7,2623.8,181.7c380.7,0,878.3-39.3,1779.9-112.7l845.3-67.8
				C11897.5,5208.6,14550.9,4534.2,15701.9,3871.4z"/>
		</g>
		<g id="g22" transform="scale(2.08509)">
			<path id="path24" class="st1" d="M16298.2,748.6c0-119.4-12.8-291.7-125.4-410.8c-131.5-139-316.1-139-571.9-138.7H880.8
				c-256.4,0-440.4,0-571.9,138.7C196.2,456.9,183.4,629.2,183.4,748.6v1888c0,715.6,61.7,850.5,510.2,1108.8
				c1143.9,659.5,3788.7,1330.6,4907.9,1419.5l854.6,68.7c908.8,104,1413.2,137.9,1791,137.9c377.7,0,950-23.9,1780.1-137.9
				l854.6-68.7c1119.8-88.9,3764.2-760,4908-1419.5c448.3-258.3,510.2-393.2,510.2-1108.8v-1888H16298.2z"/>
		</g>
		<g id="g26" transform="scale(2.08509)">
			<path id="path28" d="M16298.2,748.6c0-119.4-12.8-291.7-125.4-410.8c-131.5-139-316.1-139-571.9-138.7H880.8
				c-256.4,0-440.4,0-571.9,138.7C196.2,456.9,183.4,629.2,183.4,748.6v1888c0,715.6,61.7,850.5,510.2,1108.8
				c1143.9,659.5,3788.7,1330.6,4907.9,1419.5l854.6,68.7c908.8,104,1413.2,137.9,1791,137.9c377.7,0,950-23.9,1780.1-137.9
				l854.6-68.7c1119.8-88.9,3764.2-760,4908-1419.5c448.3-258.3,510.2-393.2,510.2-1108.8v-1888H16298.2 M16298.2,748.6h1.8v1888
				c0,715.6-61.9,850.4-510.2,1108.8c-1143.8,659.5-3788.2,1330.6-4908,1419.5l-854.6,68.7c-830.2,113.9-1402.4,137.9-1780.1,137.9
				c-377.8,0-882.2-33.9-1791-137.9l-854.6-68.7c-1119.2-88.9-3763.9-760-4907.9-1419.5c-448.5-258.3-510.2-393.2-510.2-1108.8
				v-1888c0-119.4,12.8-291.7,125.4-410.8c131.6-138.7,315.6-138.7,571.9-138.7h14720.1c255.8-0.3,440.4-0.3,571.9,138.7
				C16285.4,456.9,16298.2,629.2,16298.2,748.6L16298.2,748.6z"/>
		</g>
		<g id="g30" transform="scale(1.51017)">
			<path id="path32" class="st2" d="M16300,8294.6l-147.1,46.3c-39.3,11.1-988,268.3-1303.5,275.3l71.5,380
				c4.1,30.3-5.3,61-25.8,83.8c-133.8,182.1-1530.4,584.8-3533.6,584.8c-1978.3,0-3425.3-372.8-3561.8-536.9
				c-19.9-20.9-28.7-50.2-23.6-78.7l95.4-432.7c-314.6-9-1262-265.9-1303.4-275.3l-146.7-45.9l88.9-102.1l560.5-595l-121.5-1008.7
				l-15-137.5l128.2,32c118,29,248.1,68,386.6,109.4c320.6,95,683.9,202.8,938.4,202.8c2,0,190.7,4.1,376.9,20.1
				c65.1,5.9,100.6,24.8,108.6,58c21.1,87.2-196.7,236-253.4,270.8c98.3,86.3,1610,250.7,2741.8,245.2h49.2
				c1129.7,0,2607.3-161.6,2693.7-244.4c-55.7-35.6-275.3-184-254.4-271.6c8-33.2,43.2-52,108.6-57.9
				c185.9-16,374.8-20.1,377.1-20.1c254.2,0,617.6-107.8,938.2-202.8c138.2-39.3,269.4-78.7,386.1-109.4l128.7-32l-136.5,1146.2
				l560.9,595.5L16300,8294.6z"/>
		</g>
		<g id="g34" transform="scale(1.51017)">
			<path id="path36" d="M16300,8294.6l-147.1,46.3c-39.3,11.1-988,268.3-1303.5,275.3l71.5,380c4.1,30.3-5.3,61-25.8,83.8
				c-133.8,182.1-1530.4,584.8-3533.6,584.8c-1978.3,0-3425.3-372.8-3561.8-536.9c-19.9-20.9-28.7-50.2-23.6-78.7l95.4-432.7
				c-276.4-7.9-1041.4-207.2-1251.1-261.8c-29-7.5-47.3-12.3-52.4-13.5l-146.7-45.9l88.9-102.1l560.5-595l-121.5-1008.7l-15-137.5
				l128.2,32c116.2,28.6,244.4,66.9,380.5,107.6l6.1,1.8c0.3,0.1,0.4,0.1,0.8,0.2c320.4,95,683.4,202.6,937.6,202.6
				c2,0,190.7,4.1,376.9,20.1c65.1,5.9,100.6,24.8,108.6,58c21.1,87.2-196.7,236-253.4,270.8c98.3,86.3,1610,250.7,2741.8,245.2
				h49.2c1129.7,0,2607.3-161.6,2693.7-244.4c-55.7-35.6-275.3-184-254.4-271.6c8-33.2,43.2-52,108.6-57.9
				c185.9-16,374.8-20.1,377.1-20.1c254,0,616.9-107.6,937.2-202.5c-0.5,0.2,1.5-0.4,1-0.3c43.7-12.4,86.8-24.9,128.8-37.1
				c40.3-11.6,79.6-23,118-33.9c48.3-13.7,94.8-26.7,139.3-38.4l128.7-32l-136.5,1146.2l560.9,595.5L16300,8294.6 M16300,8294.6
				l-86.9-100.8l-560.9-595.5l136.5-1146.2l-128.7,32c-44.5,11.7-91,24.7-139.3,38.4c-38.4,10.9-77.7,22.3-118,33.9
				c-42,12.2-85.1,24.6-128.8,37.1c0.5-0.1-1.5,0.5-1,0.3c-320.3,95-683.2,202.5-937.2,202.5c-2.3,0-191.2,4.1-377.1,20.1
				c-65.4,5.9-100.6,24.8-108.6,57.9c-20.9,87.7,198.7,236,254.4,271.6c-86.4,82.8-1564,244.4-2693.7,244.4h-49.2
				c-1131.8,5.5-2643.4-159-2741.8-245.2c56.8-34.8,274.5-183.5,253.4-270.8c-8-33.2-43.4-52-108.6-58
				c-186.2-16-374.9-20.1-376.9-20.1c-254.2,0-617.3-107.6-937.6-202.6c-0.3-0.1-0.4-0.1-0.8-0.2l-6.1-1.8
				c-136.2-40.7-264.3-79-380.5-107.6l-128.2-32l15,137.5l121.5,1008.7l-560.5,595.1l-88.9,102.1l146.7,45.9
				c5,1.1,23.4,5.9,52.4,13.5c209.7,54.6,974.6,253.9,1251.1,261.8l-95.4,432.7c-5.1,28.5,3.7,57.7,23.6,78.7
				c136.5,164.1,1583.5,536.9,3561.8,536.9c2003.2,0,3399.8-402.8,3533.6-584.8c20.5-22.7,29.9-53.5,25.8-83.8l-71.5-380
				c315.5-7,1264.2-264.2,1303.5-275.3L16300,8294.6z"/>
		</g>
		<g id="g38" transform="scale(1.36158)">
			<path id="path40" class="st0" d="M15889.7,8031.4l-33.2,25.7c-130.9,126.5-1802.4,329-3222,309.4
				c-1422.1,20-3197-213.3-3291.3-349l-15.2-16.4l-10.9,43.6c-3.6,18.4-389.7,1806.9-411.5,1901.2c2,16.4,9.3,31.6,20.5,43.6
				c138.3,178.4,1760.6,526.9,3708,526.9c847.4-4.1,1692.8-82.2,2526.7-233.3c613.7-111.4,1053.5-229.1,1129-326.3
				c8.4-17,10.2-36.3,5.2-54.6c-21.8-93.8-363.3-1676.5-367-1694.3L15889.7,8031.4z"/>
		</g>
		<g id="g42" transform="scale(1.36158)">
			<path id="path44" d="M15889.7,8031.4l-33.2,25.7c-130.9,126.5-1802.4,329-3222,309.4c-1422.1,20-3197-213.3-3291.3-349
				l-15.2-16.4l-10.9,43.6c-3.6,18.4-389.6,1806.9-411.5,1901.2c2,16.4,9.3,31.6,20.5,43.6c138.3,178.4,1760.6,526.9,3708,526.9
				c847.4-4.1,1692.8-82.2,2526.7-233.3c613.7-111.4,1053.5-229.1,1129-326.3c8.4-17,10.2-36.3,5.2-54.6
				c-21.8-93.8-363.3-1676.5-367-1694.3L15889.7,8031.4 M15889.7,8031.4l38.3,176.7c3.7,17.8,345.2,1600.5,367,1694.3
				c5,18.2,3.2,37.5-5.2,54.6c-75.5,97.2-515.3,214.9-1129,326.3c-833.9,151.1-1679.3,229.2-2526.7,233.3
				c-1947.4,0-3569.7-348.5-3708-526.9c-11.2-12-18.4-27.3-20.5-43.6c21.8-94.3,407.8-1882.8,411.5-1901.2l10.9-43.6l15.2,16.4
				c94.4,135.6,1869.2,369,3291.3,349c1419.6,19.5,3091.1-182.9,3222-309.4L15889.7,8031.4z"/>
		</g>
		<path id="path46" class="st0" d="M12432.9,10644.4l-489.4,2124.6h-10.8c-376.4,0-1761.2-371.2-1761.2-371.2l787.7-831.5
			l-169.3-1468.3c0,0,475.2,123.5,694.5,183.5c249.4,69.6,484.5,134.9,687.1,178.1c126.2,26.4,254,43.4,382.4,50.5l101.7,7.1
			l-45.7,25.7L12432.9,10644.4z"/>
		<path id="path48" d="M12432.9,10644.4l-489.4,2124.6h-10.8c-376.4,0-1761.2-371.2-1761.2-371.2l787.7-831.5l-169.3-1468.3
			c0.1,0,475.2,123.5,694.5,183.5c249.4,69.6,484.5,134.9,687.1,178.1c126.2,26.4,254,43.4,382.4,50.5l101.7,7.1l-45.7,25.7
			L12432.9,10644.4 M12432.9,10644.4l177-101.5l45.7-25.7l-101.7-7.1c-128.4-7.1-256.2-24.1-382.4-50.5
			c-202.6-43.2-437.7-108.5-687.1-178.1c-219.3-60-694.4-183.5-694.5-183.5l169.3,1468.3l-787.7,831.5
			c0,0,1384.8,371.2,1761.2,371.2h10.8L12432.9,10644.4z"/>
		<g id="g50" transform="scale(1.48079)">
			<path id="path52" class="st0" d="M14773,7161.2l330.5,1435h7.4c254.2,0,1189.1-251.2,1189.1-251.2l-531.9-559l114.5-991.5
				c0,0-320.9,83.4-469,123.9c-168.4,46.6-327.4,90.7-464,120.3c-85.3,18.2-171.7,29.7-258.9,34.1l-68.1,5.3l31,17.3L14773,7161.2z"
				/>
		</g>
		<g id="g54" transform="scale(1.48079)">
			<path id="path56" d="M14773,7161.2l330.5,1435h7.4c254.2,0,1189.1-251.2,1189.1-251.2l-531.9-559l114.5-991.5
				c0.1,0-321,83.4-469,123.9l-3.4,0.9c-167.1,46.3-324.9,90-460.6,119.4c-85.3,18.2-171.8,29.7-258.9,34.1l-68.1,5.3l31,17.3
				L14773,7161.2 M14773,7161.2l-119.4-65.8l-31-17.3l68.1-5.3c87.1-4.4,173.6-15.9,258.9-34.1c135.7-29.4,293.5-73.1,460.6-119.4
				l3.4-0.9c148-40.5,469.1-123.9,469-123.9l-114.5,991.5l531.9,559c0,0-934.9,251.2-1189.1,251.2h-7.4L14773,7161.2z"/>
		</g>
		<path id="path58" class="st2" d="M2777.2,3583.2l-84.1-9.9c3.7-578.8,7.6-1157.3,11.7-1736.4l-1199.6-5.2v4591.5
			c416,155.6,834.3,304.7,1254.4,447.7c997.1,348.6,1619.3-4.1,1635.7-1286.3C4411.9,4315.2,3792.5,3691.5,2777.2,3583.2
			L2777.2,3583.2z M2841,5773.8l-162.8-42.7c2.1-399.7,5-798.8,8.1-1198.2l163.3,31c297,55.4,424.7,380.9,421.3,741.8
			C3267.3,5667.1,3137.9,5853.3,2841,5773.8L2841,5773.8z"/>
		<path id="path60" d="M2777.2,3583.2l-84.1-9.9c3.7-578.9,7.6-1157.2,11.7-1736.4l-1199.6-5.2v4591.5
			c416,155.5,834.4,304.7,1254.4,447.7c756,264.3,1296.5,125.5,1520.8-516c71.5-204.5,110.9-460.2,114.9-770.2
			C4411.9,4315.2,3792.5,3691.5,2777.2,3583.2 M2777.2,3583.2c1015.3,108.2,1634.7,731.9,1618,2001.3c-4,310-43.4,565.7-114.9,770.2
			c-224.3,641.6-764.8,780.4-1520.8,516c-420-142.9-838.4-292.1-1254.4-447.7V1831.6l1199.6,5.2c-4.1,579.3-8,1157.6-11.7,1736.4
			L2777.2,3583.2z M2841,5773.8l-162.8-42.7v-0.2c2.1-399.7,5-798.6,8.1-1198l163.3,31c297,55.4,424.7,380.9,421.3,741.8
			c-3.1,307.6-97.3,488.3-308.4,486.2C2925.6,5791.6,2885.1,5785.6,2841,5773.8 M2841,5773.8c44.1,11.8,84.6,17.8,121.5,18.1
			c211.2,2.1,305.4-178.5,308.4-486.2c3.4-361-124.3-686.4-421.3-741.8l-163.3-31c-3.1,399.4-5.9,798.3-8.1,1198v0.2L2841,5773.8z"
			/>
		<path id="path62" class="st2" d="M9041.8,4171.9l-108.6-7.7V1856.1l-1232.5,0l-9.6,6419.5c0,0,861.9,178.2,1294.4,256.8
			c1027.6,193.1,1813.4-361.9,1832.2-1960.1C10835.7,4991.7,10057.7,4277.8,9041.8,4171.9L9041.8,4171.9z M9079.8,7135.3
			c-54.4-7.8-144.1-25.7-144.1-25.7s-5.3-1069.1,0-1598.8c551.6,46.7,674.7,297,674.7,940.2
			C9612.9,6956.5,9382.3,7178.7,9079.8,7135.3z"/>
		<path id="path64" d="M9041.8,4171.9l-108.6-7.7V1856.1l-1232.5,0l-9.6,6419.5c0,0,862,178.2,1294.4,256.8
			c870.2,163.5,1566.9-209.4,1771.4-1297.9c37-197,57.9-417.3,60.8-662.2C10835.7,4991.7,10057.7,4277.8,9041.8,4171.9
			 M9041.8,4171.9c1015.9,105.8,1793.9,819.8,1775.9,2400.3c-2.9,244.8-23.8,465.2-60.8,662.2
			c-204.5,1088.5-901.2,1461.4-1771.4,1297.9c-432.5-78.5-1294.4-256.8-1294.4-256.8l9.6-6419.5l1232.5,0v2308.1L9041.8,4171.9z
			 M9079.8,7135.3c-54.4-7.8-144.1-25.7-144.1-25.7c0,0.4-2.4-475.5-2.4-948.9c0-236.8,0.6-473.4,2.4-649.9
			c551.6,46.7,674.7,297,674.7,940.2c2.3,463-190.9,688.3-455.9,689.6C9130.2,7140.7,9105.2,7139,9079.8,7135.3 M9079.8,7135.3
			c25.4,3.6,50.4,5.4,74.7,5.3c265-1.3,458.2-226.6,455.9-689.6c0-643.2-123-893.4-674.7-940.2c-1.8,176.5-2.4,413.1-2.4,649.9
			c0,473.4,2.4,949.3,2.4,948.9C8935.7,7109.7,9025.4,7127.6,9079.8,7135.3z"/>
		<g id="g66" transform="scale(1.8632)">
			<path id="path68" class="st2" d="M16147.9,3376.3c-87.3,16.1-174.8,31.9-262.7,47.5c21.4,212.5,49.2,432.2,70.4,641.4
				c114.6-31.9,230.8-70.3,344.4-104.3C16252.5,3771.5,16196.1,3575.2,16147.9,3376.3L16147.9,3376.3z"/>
		</g>
		<g id="g70" transform="scale(1.8632)">
			<path id="path72" d="M16147.9,3376.3c-87.3,16.1-174.8,31.9-262.7,47.5c10.9,108.3,23.5,218.5,36,328.1
				c12,105.3,24.1,210.9,34.4,313.3c71.9-20,144.4-42.5,216.5-65c42.9-13.3,85.5-26.6,127.9-39.3c-21-83.8-43.9-169.3-66.9-255.4
				c-23.5-88.1-47.4-177.6-69.9-267.3C16158,3417.6,16152.9,3397,16147.9,3376.3 M16147.9,3376.3c5,20.7,10.1,41.2,15.3,61.9
				c22.5,89.8,46.4,179.2,69.9,267.3c23,86.1,45.9,171.6,66.9,255.4c-42.4,12.7-85,25.9-127.9,39.3c-72.1,22.4-144.6,45-216.5,65
				c-10.3-102.3-22.4-207.9-34.4-313.3c-12.5-109.7-25.1-219.8-36-328.1C15973.1,3408.2,16060.6,3392.4,16147.9,3376.3z"/>
		</g>
		<g id="g74" transform="scale(1.8034)">
			<path id="path76" class="st2" d="M16300,1347.1c0,135,0,268.3,0,399.8v2503.1l-17.5,4.5c-201.6,52.5-329.4,86.1-540.4,139.6l-7,2
				c0-44,0-87.3,0-129.7V2699.4c-169.8,638.6-358.4,1160-552.4,1817.8c-10.8,0-21.9,2.6-32.9,4.3l-605.9,129.7V2541.4
				c-7.6-490.4-15.2-985.9-22.8-1509.6l649.3,0v1787.5c164.7-613.6,380.3-1211.1,539.1-1789.4l590.5,0L16300,1347.1z"/>
		</g>
		<g id="g78" transform="scale(1.8034)">
			<path id="path80" d="M16300,1347.1v2903l-17.5,4.5l-102.8,26.8l-86.3,22.5c-110.8,28.8-213.2,55.4-351.3,90.4l-7,2v-129.7V2699.4
				c-101.3,380.8-209.2,719.9-320.9,1071c-75.7,237.9-153.1,481-231.5,746.8c-8.1,0-16.4,1.5-24.6,2.9c-2.7,0.5-5.6,1-8.3,1.4
				l-605.9,129.7V2541.4l-0.2-14.7l-1.9-119.3l-1.8-119.9c-6.3-407.3-12.6-822.9-18.9-1255.7l649.3,0v1787.5
				c86.4-322.1,186.9-639.8,285.9-952.6c89.5-283,177.8-562.1,253.2-836.8l590.5,0V1347.1 M16300,1347.1v-317.2l-590.5,0
				c-75.4,274.6-163.7,553.8-253.2,836.8c-99,312.8-199.5,630.5-285.9,952.6V1031.8l-649.3,0c6.3,432.8,12.6,848.5,18.9,1255.7
				l1.8,119.9l1.9,119.3l0.2,14.7v2109.8l605.9-129.7c2.7-0.4,5.6-0.9,8.3-1.4c8.2-1.4,16.5-2.9,24.6-2.9
				c78.4-265.7,155.8-508.8,231.5-746.8c111.7-351.2,219.6-690.3,320.9-1071v1567.2v129.7l7-2c138.1-35,240.5-61.5,351.3-90.4
				l86.3-22.5l102.8-26.8l17.5-4.5V1347.1z"/>
		</g>
		<g id="g82" transform="scale(1.58404)">
			<path id="path84" class="st2" d="M16300,5338.8l-17.4,2.5c-262.5,45.5-766.7,121.9-766.7,121.9V3859.8h-573.4v1526.3
				c0,51.3,0,100.3,0,145.9l-97.8,13l-617.2,84.8l-97,13.5v-46.1c-7.3-778-4-1499.9,0-2202.5V1178.3h811.2v1646.6h574.6V1178.3
				h783.3L16300,5338.8z"/>
		</g>
		<g id="g86" transform="scale(1.58404)">
			<path id="path88" d="M16300,5338.8l-17.4,2.5c-262.5,45.5-766.7,121.9-766.7,121.9V3859.8h-573.4V5532l-97.8,13l-617.2,84.8
				l-97,13.5v-46.1c-7.3-778.3-4-1499.6,0-2202.5V1178.3h811.2v1646.6h574.6V1178.3h783.3L16300,5338.8 M16300,5338.8l-0.4-4160.5
				h-783.3v1646.6h-574.6V1178.3h-811.2v2216.3c-4,702.9-7.3,1424.2,0,2202.5v46.1l97-13.5l617.2-84.8l97.8-13V3859.8h573.4v1603.4
				c0,0,504.2-76.4,766.7-121.9L16300,5338.8z"/>
		</g>
		<g id="g90" transform="scale(2.02659)">
			<path id="path92" class="st2" d="M15656.4,2523.2c-96.2,102.6-152.9,188.5-152.9,260.3c0,79.1,29.3,148.4,119.5,143.6
				c106.1-5.9,123.3-138.6,128.4-226.2c0-19.7,2.6-39.8,3.8-58.6h533.7c-16.4,468.9-188,757.3-599.6,839.9
				c-391.9,78.6-768-98.1-774.1-586.2c-3.8-300.7,129.3-569.7,351.7-788.3c100.9-100.5,201.8-198.2,303-293.1
				c96.8-90.4,146.5-153.7,144.8-219.8c0-80.9-43.6-146.6-133.4-146.6c-108,0-155.8,109.6-160.5,201.3c-1.7,36.9-3.3,78.5-3.6,118.9
				h-536.4c0-26.7,0-53.3,0-80c-6.4-496.6,272.1-806.9,679.2-806.9c475.6,0,740,300.4,739.1,703.4c0,238.3-137.1,422-346.1,633.9
				C15853.8,2317,15754.9,2418.4,15656.4,2523.2L15656.4,2523.2z"/>
		</g>
		<g id="g94" transform="scale(2.02648)">
			<path id="path96" d="M15657.3,2523.3c-96.2,102.6-153,188.5-153,260.3c0,76.5,27.5,143.9,110.9,143.9c2.8,0,5.7-0.1,8.7-0.2
				c106.1-5.9,123.3-138.6,128.4-226.2c0-13.3,1.1-26.9,2.3-40c0.5-6.4,1.1-12.5,1.5-18.6h533.7c-16.4,469-188,757.4-599.7,840
				c-348.2,69.9-684-62-758.8-434.7c-9.3-46.7-14.6-97.2-15.3-151.6c-3.8-300.8,129.3-569.8,351.7-788.3
				c100.9-100.5,201.9-198.2,303-293.1c96.8-90.4,146.6-153.8,144.9-219.8c0-80.9-43.6-146.6-133.4-146.6
				c-108.1,0-155.9,109.6-160.6,201.3c-1.7,36.9-3.2,78.5-3.5,118.9h-536.4v-80c-6.4-492.4,267.3-801.7,668.8-806.9
				c3.5,0,6.9-0.1,10.3-0.1c474.9,0,739.2,299.4,739.2,701.4c0,0.9,0,1.1,0,2c0,238.3-137.1,422.1-346.1,634
				C15854.7,2317.2,15755.8,2418.5,15657.3,2523.3 M15657.3,2523.3c98.5-104.8,197.4-206.1,296.6-304.3
				c209-211.9,346.1-395.7,346.1-634c0-0.9,0-1.1,0-2c0-402-264.3-701.4-739.2-701.4c-3.4,0-6.8,0-10.3,0.1
				c-401.5,5.2-675.2,314.5-668.8,806.9v80h536.4c0.3-40.4,1.8-82,3.5-118.9c4.7-91.8,52.5-201.3,160.6-201.3
				c89.8,0,133.4,65.6,133.4,146.6c1.7,66.1-48.1,129.4-144.9,219.8c-101.1,94.9-202.1,192.7-303,293.1
				c-222.4,218.6-355.5,487.6-351.7,788.3c0.7,54.4,6,104.9,15.3,151.6c74.8,372.7,410.6,504.5,758.8,434.7
				c411.7-82.6,583.3-371,599.7-840h-533.7c-0.4,6.1-1,12.2-1.5,18.6c-1.2,13.2-2.3,26.7-2.3,40c-5.1,87.6-22.3,220.3-128.4,226.2
				c-3,0.2-5.9,0.2-8.7,0.2c-83.4,0-110.9-67.4-110.9-143.9C15504.3,2711.8,15561.1,2625.9,15657.3,2523.3L15657.3,2523.3z"/>
		</g>
		<path id="path98" class="st2" d="M6380.9,7986.4c-428.1-104-855.1-214.7-1280.7-332c-311.3-2029.6-625.8-3970.6-946-5811.2
			l1200.3,3.4c22.6,232.9,69.6,702.2,69.6,702.2h708.4c0,0,59.4-458.2,87.6-699.2h1239.6C7099.9,3971.5,6740.4,6017.3,6380.9,7986.4
			z M5529.3,3634.3c0,0,140.2,1425.5,205.4,2138.3l13,0c82.6-687.1,267.9-2138.3,267.9-2138.3L5529.3,3634.3z"/>
		<path id="path100" d="M6380.9,7986.4c-428.1-104-855.1-214.7-1280.7-332c-311.3-2029.6-625.8-3970.6-946-5811.2l1200.3,3.4
			c22.6,233,69.6,702.2,69.6,702.2h708.4c0.1-0.6-0.1,0.4,0-0.5c2.1-16.2,59.8-462,87.6-698.7h1239.6
			C7099.9,3971.5,6740.4,6017.3,6380.9,7986.4 M6380.9,7986.4c359.5-1969.1,718.9-4014.9,1078.8-6136.8H6220.1
			c-27.7,236.7-85.5,682.5-87.6,698.7c-0.1,0.9,0-0.1,0,0.5h-708.4c0-0.1-47-469.3-69.6-702.2l-1200.3-3.4
			c320.2,1840.7,634.7,3781.6,946,5811.2C5525.9,7771.7,5952.8,7882.4,6380.9,7986.4L6380.9,7986.4z M5529.3,3634.3
			c0,0.1,140.2,1425.4,205.4,2138.3l13,0c82.6-687.5,267.9-2138,267.9-2138.3L5529.3,3634.3 M5529.3,3634.3h486.4
			c0,0.4-185.3,1450.9-267.9,2138.3l-13,0C5669.5,5059.7,5529.3,3634.4,5529.3,3634.3L5529.3,3634.3z"/>
		<path id="path102" class="st2" d="M13194.9,9028.3c-451.3-49.5-1214.5-124.7-1674.3-173.5
			c-336.3-2399.1-667.5-4684.7-996.8-6995.3l1343,0l73,845.7h887.5c0,0,59.4-561.2,90.7-846.4h1366.1
			C13924.4,4293.2,13568,6655.8,13194.9,9028.3L13194.9,9028.3z M12077.8,3996.2l289.9,2580.7h22.9l345.8-2577.9L12077.8,3996.2z"/>
		<path id="path104" d="M13194.9,9028.3c-257.1-28.2-614.6-64.7-960.3-99.9c-261.2-26.6-516.2-52.6-714-73.6
			c-224.3-1600.6-446.1-3147.9-666.8-4688.7c-110.4-769.9-220.2-1536.3-330-2306.6l1343,0l73,845.7h887.5c0,0,59.4-561.2,90.7-846.4
			h1366.1C13924.4,4293,13568,6656,13194.9,9028.3 M13194.9,9028.3C13568,6656,13924.4,4293,14284.1,1858.9H12918
			c-31.3,285.2-90.7,846.4-90.7,846.4h-887.5l-73-845.7l-1343,0c109.8,770.3,219.6,1536.7,330,2306.6
			c220.7,1540.8,442.5,3088.1,666.8,4688.7c197.8,21,452.8,47,714,73.6C12580.3,8963.6,12937.8,9000.1,13194.9,9028.3
			L13194.9,9028.3z M12077.8,3996.2l289.9,2580.7h22.9l345.8-2577.9L12077.8,3996.2 M12077.8,3996.2l658.6,2.8l-345.8,2577.9h-22.9
			L12077.8,3996.2z"/>
		<g id="g106" transform="scale(1.34933)">
			<path id="path108" class="st2" d="M15008.5,6793c-720.6,25.2-1285-551.4-1287.6-1552.2c-2.7-772.6-5.3-1545.3-7.5-2317.9
				c-3-992.7,592.9-1604.7,1300.8-1603.3c707.8,1.4,1247.5,640.2,1257.6,1605.9c8,754.1,10.1,1467.5,18.1,2221.6
				C16300,6120.5,15827.2,6764.8,15008.5,6793L15008.5,6793z M15242.6,2624.9c0-121.6-98.6-220.1-220.1-220.1l-39.7,0
				c-121.5,0-220.1,98.5-220.1,220.1v2865.6c0,121.5,98.6,220.1,220.1,220.1h39.7c121.5,0,220.1-98.6,220.1-220.1V2624.9z"/>
		</g>
		<g id="g110" transform="scale(1.34933)">
			<path id="path112" d="M15008.5,6793c-700.1,24.5-1252.8-519-1286-1467.7c-1-27.9-1.5-55.9-1.6-84.5l-7.5-2317.9
				c-3-989.9,589.5-1601.2,1294.8-1603.3c2,0,4,0,6,0c707.8,1.4,1247.5,640.2,1257.6,1605.9c4,377.1,6.5,743.8,9,1110.7
				c2.6,367.1,5.1,733.4,9.1,1110.6v0.3C16300,6120.5,15827.2,6764.8,15008.5,6793 M15008.5,6793
				c818.7-28.2,1291.5-672.5,1281.4-1646v-0.3c-4-377.2-6.5-743.5-9.1-1110.6c-2.5-367-5-733.6-9-1110.7
				c-10.1-965.7-549.8-1604.4-1257.6-1605.9c-2,0-4,0-6,0c-705.3,2.1-1297.8,613.4-1294.8,1603.3l7.5,2317.9
				c0.1,28.6,0.6,56.6,1.6,84.5C13755.7,6274,14308.4,6817.5,15008.5,6793L15008.5,6793z M15242.6,2624.9
				c0-121.6-98.6-220.1-220.1-220.1l-39.7,0c-121.5,0-220.1,98.5-220.1,220.1v2865.6c0,121.5,98.6,220.1,220.1,220.1h39.7
				c121.5,0,220.1-98.6,220.1-220.1V2624.9 M15242.6,2624.9v2865.6c0,121.5-98.6,220.1-220.1,220.1h-39.7
				c-121.5,0-220.1-98.6-220.1-220.1V2624.9c0-121.6,98.6-220.1,220.1-220.1l39.7,0C15144,2404.7,15242.6,2503.3,15242.6,2624.9
				L15242.6,2624.9z"/>
		</g>
		<g id="g114" transform="scale(1.11254)">
			<path id="path116" class="st2" d="M15123.8,8260.7V3058.1c0-94-67.6-174.3-160.1-190.8c-4.8-0.3-9.5-0.3-14.5,0h-31.4
				c-106.5,0.3-193.1,86.8-193.3,193.3v659.3c-330,0-738.8-5.8-1067.8-10.6c0-160.2,0-530.6,0-689.3
				c0-831.2,507.8-1402.6,1266.9-1402.6c64.8,0.3,129.6,4.4,193.8,13c830.9,60.1,1174.6,611.2,1174.6,1857.2l8,4770.8
				L15123.8,8260.7z"/>
		</g>
		<g id="g118" transform="scale(1.11254)">
			<path id="path120" d="M15123.8,8260.7V3058.1c0-94-67.6-174.3-160.1-190.8c-4.8-0.3-9.5-0.3-14.5,0h-31.4
				c-106.5,0.3-193.1,86.8-193.3,193.3v659.3c-330,0-738.9-5.8-1067.8-10.6V3020c0-831.2,507.8-1402.6,1266.9-1402.6
				c64.8,0.3,129.6,4.4,193.8,13c830.9,60.1,1174.6,611.2,1174.6,1857.2l8,4770.8L15123.8,8260.7 M15123.8,8260.7l1176.2-2.2
				l-8-4770.8c0-1246-343.7-1797.2-1174.6-1857.2c-64.2-8.6-129-12.7-193.8-13c-759.1,0-1266.9,571.4-1266.9,1402.6v689.3
				c328.9,4.8,737.8,10.6,1067.8,10.6v-659.3c0.2-106.5,86.8-193,193.3-193.3h31.4c5-0.3,9.7-0.3,14.5,0
				c92.5,16.5,160.1,96.8,160.1,190.8V8260.7z"/>
		</g>
		<path id="path122" class="st1" d="M14085.2,11721.9l-224.9,1821.2l539.2,66.5c363.6,44.5,646.3-110.5,688.9-456.3
			c42.7-345.5-194.2-586.2-557.7-631.4l-142-17l91-733.8L14085.2,11721.9z M14492.7,12838.1c134.5,11.4,229.2,137,203.8,269.4
			c-16.7,136.7-118.8,200.2-259.5,183.1l-141.4-17.2l55.7-452.7L14492.7,12838.1z"/>
		<path id="path124" d="M14085.2,11721.9l-224.9,1821.2l539.2,66.5c363.6,44.5,646.3-110.5,688.9-456.3
			c42.7-345.5-194.2-586.2-557.7-631.4l-142-17l91-733.8L14085.2,11721.9 M14085.2,11721.9l394.5,49.2l-91,733.8l142,17
			c363.5,45.2,600.4,285.9,557.7,631.4c-42.6,345.8-325.3,500.8-688.9,456.3l-539.2-66.5L14085.2,11721.9z M14492.7,12838.1
			c126.4,10.7,217.6,122.2,207.1,245.4c-0.7,8-1.7,16-3.3,24c-16.7,136.7-118.8,200.2-259.5,183.1l-141.4-17.2l55.7-452.7
			L14492.7,12838.1 M14492.7,12838.1l-141.4-17.4l-55.7,452.7l141.4,17.2c140.7,17.1,242.8-46.4,259.5-183.1c1.6-8,2.6-16,3.3-24
			C14710.3,12960.3,14619.1,12848.8,14492.7,12838.1z"/>
		<path id="path126" class="st1" d="M15461.6,11891.1l-107.7,1832l398.8,22.9l106.7-1831.1L15461.6,11891.1z"/>
		<path id="path128" d="M15461.6,11891.1l-107.7,1832l398.8,22.9l106.7-1831.1L15461.6,11891.1 M15461.6,11891.1l397.8,23.8
			l-106.7,1831.1l-398.8-22.9L15461.6,11891.1z"/>
		<g id="g130" transform="scale(1.06881)">
			<path id="path132" class="st1" d="M15218.6,11173.9l-2.9,254.6l618,1163.7l-611.3-7.3l-3.8,305.6l1043.5,12.2l2.9-235
				l-625.2-1183.6l656.7,7.9l3.5-305.7L15218.6,11173.9z"/>
		</g>
		<g id="g134" transform="scale(1.06881)">
			<path id="path136" d="M15218.6,11173.9l-2.9,254.6l618,1163.7l-611.3-7.3l-3.8,305.6l1043.5,12.2l2.9-235l-625.2-1183.6
				l656.7,7.9l3.5-305.7L15218.6,11173.9 M15218.6,11173.9l1081.4,12.4l-3.5,305.7l-656.7-7.9l625.2,1183.6l-2.9,235l-1043.5-12.2
				l3.8-305.6l611.3,7.3l-618-1163.7L15218.6,11173.9z"/>
		</g>
		<g id="g138" transform="scale(1.16589)">
			<path id="path140" class="st1" d="M15245.2,10258.8l11.7,233.2l631.3,1030.1l-557.8,28.7l13.8,279.6l955.8-47.7l-11-215.2
				l-639.7-1047.9l601-29.9l-13.5-279.7L15245.2,10258.8z"/>
		</g>
		<g id="g142" transform="scale(1.16589)">
			<path id="path144" d="M15245.2,10258.8l11.7,233.2l631.3,1030.1l-557.8,28.7l13.8,279.6l955.8-47.7l-11-215.2l-639.7-1047.9
				l601-29.9l-13.5-279.7L15245.2,10258.8 M15245.2,10258.8l991.6-48.8l13.5,279.7l-601,29.9l639.7,1047.9l11,215.2l-955.8,47.7
				l-13.8-279.6l557.8-28.7l-631.3-1030.1L15245.2,10258.8z"/>
		</g>
		<g id="g146" transform="scale(1.2579)">
			<path id="path148" class="st1" d="M15971.2,9348.8l-10.4,180.7l-293.1,37.9l-55.3-172.9l-314.6,40.1l536.7,1402.5l316.7-40.6
				l148.8-1489.3L15971.2,9348.8z M15928.4,10340.4h-4.9l-179.3-546.7l211-27L15928.4,10340.4z"/>
		</g>
		<g id="g150" transform="scale(1.2579)">
			<path id="path152" d="M15971.2,9348.8l-10.4,180.7l-293.1,37.9l-55.3-172.9l-314.6,40.1l536.7,1402.5l316.7-40.6l148.8-1489.3
				L15971.2,9348.8 M15971.2,9348.8l328.8-41.5l-148.8,1489.3l-316.7,40.6l-536.7-1402.5l314.6-40.1l55.3,172.9l293.1-37.9
				L15971.2,9348.8z M15928.4,10340.4h-4.9l-179.3-546.7l211-27L15928.4,10340.4 M15928.4,10340.4l26.8-573.7l-211,27l179.3,546.7
				H15928.4z"/>
		</g>
	</g>
</g>
</svg>
