<?xml version="1.0" encoding="utf-8"?>
<!-- Generator: Adobe Illustrator 23.0.1, SVG Export Plug-In . SVG Version: 6.00 Build 0)  -->
<svg version="1.1" id="Layer_1" xmlns="http://www.w3.org/2000/svg" xmlns:xlink="http://www.w3.org/1999/xlink" x="0px" y="0px"
	 viewBox="0 0 15 15" style="enable-background:new 0 0 15 15;" xml:space="preserve">
<style type="text/css">
	.st0{fill:#FFFFFF;}
</style>
<path class="st0" d="M10.57,9.69c0.82-1.02,1.32-2.31,1.32-3.71c0-3.26-2.65-5.91-5.91-5.91c-3.26,0-5.91,2.65-5.91,5.91
	c0,3.26,2.65,5.91,5.91,5.91c1.41,0,2.7-0.5,3.71-1.32l4.34,4.34c0.12,0.12,0.32,0.12,0.44,0l0.44-0.44c0.12-0.12,0.12-0.32,0-0.44
	L10.57,9.69z M5.98,10.65c-2.57,0-4.66-2.09-4.66-4.66s2.09-4.66,4.66-4.66c2.57,0,4.66,2.09,4.66,4.66S8.55,10.65,5.98,10.65z"/>
</svg>
