<svg id="Gradient" height="512" viewBox="0 0 512 512" width="512" xmlns="http://www.w3.org/2000/svg" xmlns:xlink="http://www.w3.org/1999/xlink"><linearGradient id="linear-gradient" gradientUnits="userSpaceOnUse" x1="256" x2="256" y1="432" y2="80"><stop offset="0" stop-color="#12c2e9"/><stop offset=".5" stop-color="#c471ed"/><stop offset="1" stop-color="#f64f59"/></linearGradient><path d="m488 80h-464a8 8 0 0 0 -8 8v272a8 8 0 0 0 8 8h224v17.223l-185.316 30.886a8 8 0 0 0 1.308 15.891 8.088 8.088 0 0 0 1.324-.109l190.684-31.781 190.684 31.781a8.088 8.088 0 0 0 1.324.109 8 8 0 0 0 1.308-15.891l-185.316-30.886v-17.223h224a8 8 0 0 0 8-8v-272a8 8 0 0 0 -8-8zm-8 16v224h-448v-224zm-64 240v16h-16v-16zm-384 0h352v16h-352zm400 16v-16h16v16zm48 0h-16v-16h16z" fill="url(#linear-gradient)"/></svg>