<?xml version="1.0" encoding="utf-8"?>
<!-- Generator: Adobe Illustrator 23.0.1, SVG Export Plug-In . SVG Version: 6.00 Build 0)  -->
<svg version="1.1" id="Layer_1" xmlns="http://www.w3.org/2000/svg" xmlns:xlink="http://www.w3.org/1999/xlink" x="0px" y="0px"
	 viewBox="0 0 100 100" style="enable-background:new 0 0 100 100;" xml:space="preserve">
<style type="text/css">
	.st0{fill:#232323;}
</style>
<g>
	<path class="st0" d="M52.8,55.06l1.92-9.08c0.53-0.49,0.9-0.74,1.6-0.74s0.05,1.53,1.34,1.53c1.13,0,1.74-1,1.74-1.81
		c0-0.88-0.63-1.48-1.67-1.48c-0.97,0-1.9,0.51-2.73,1.16l0.25-1.16h-3.33l-0.61,2.89c-0.39,0.26-0.8,0.49-1.38,0.49
		c-0.32,0-0.53-0.07-0.67-0.21c-0.05-1.69-0.6-3.4-2.8-3.4c-3.2,0-6.09,2.45-6.09,8.15c0,2.76,1.07,3.8,3.54,3.8
		c2.32,0,4.84-2.29,5.28-6.95c0.68-0.19,1.33-0.48,1.9-0.84l-1.62,7.65H52.8z M47.48,48.48c-0.28,2.25-1.07,4.47-2.48,4.47
		c-0.9,0-1.55-0.37-1.55-1.76c0-1.85,0.93-6.58,3.1-6.58c0.65,0,0.9,0.44,0.97,1.2c-0.63,0.23-1.02,0.95-1.02,1.62
		C46.51,48,46.81,48.48,47.48,48.48z"/>
	<path class="st0" d="M96.68,46.6c0.09,0.01,0.17-0.01,0.25-0.02h2.42C97.95,20.95,76.66,0.54,50.7,0.54
		C23.83,0.54,1.97,22.4,1.97,49.27C1.97,76.14,23.83,98,50.7,98c7.02,0,13.7-1.5,19.73-4.19c-0.26-0.21-0.51-0.44-0.73-0.7
		c-0.11-0.13-0.22-0.27-0.34-0.41c0,0,0,0,0,0l-1.29-2.06c-0.01-0.02-0.02-0.04-0.02-0.06c-5.34,2.25-11.2,3.51-17.35,3.51
		C27.04,94.09,7.61,75.66,6,52.41c4.64,0.3,13.84-1.14,14.27-6.29c0,0,0,0,0,0c0,0,0-0.01,0-0.01c0-0.05,0-0.1,0-0.14
		c0.02-0.23,0.1-0.63,0.1-1.58c0-2.55,1.3-4.35,3.82-5.14v15.82h3.33l4.68-11.79v11.79h3.33l6.44-17.25h-1.62l-5.07,14.17V37.81
		h-2.94l-4.86,14.17l-0.21-14.24c-0.3-0.02-0.6-0.05-0.93-0.05c-3.87,0-8.13,2.94-8.13,6.02c0,0.74,0.1,1.28,0.34,1.67
		c0.08,2.63-3.79,4.16-5.76,4.79c-2.25,0.72-4.56,0.87-6.88,0.58c-0.02-0.49-0.04-0.99-0.04-1.48c0-24.72,20.11-44.82,44.82-44.82
		c23.24,0,42.39,17.78,44.59,40.45c-3.03,0.08-5.83,1.08-8.27,2.99c-3.56,2.8-6.62,4.92-10.9,5.16c0.01-0.04,0.03-0.08,0.05-0.13
		C75.98,53,75.73,53,75.57,53c-0.65,0-0.83-0.37-0.83-0.86c0-0.25,0.05-0.51,0.12-0.79l2.66-12.51l-3.4,0.46l-1.02,4.77
		c-0.42-0.32-1-0.58-1.55-0.58c-4.52,0-5.99,4.54-6.06,8.46c-0.63,0.53-1.28,0.99-1.84,0.99c-0.9,0-1.16-0.35-1.16-0.86
		c0-0.19,0.05-0.39,0.12-0.74l2.66-12.51l-3.43,0.46l-2.57,12.04c-0.09,0.44-0.14,0.83-0.14,1.18c0,1.74,1.09,2.52,2.87,2.52
		c1.06,0,2.39-1.05,3.53-2.14c0.19,1.17,0.95,2.28,2.82,2.28c1.39,0,2.43-0.93,3.13-1.88c0.23,1.04,0.95,1.74,2.29,1.74
		c0.39,0,0.82-0.03,1.23-0.3c3.27,0.09,6.51-0.71,9.29-2.52c1.87-1.22,3.35-2.96,5.29-4.09c1.84-1.07,3.81-1.54,5.88-1.57H96
		C96.23,46.58,96.46,46.58,96.68,46.6z M71.54,51.35c-0.07,0.28-0.12,0.53-0.14,0.79c-0.44,0.63-0.93,1.14-1.46,1.14
		c-0.58,0-1.34-0.26-1.34-1.64c0-3.15,1.39-6.83,3.13-6.83c0.32,0,0.76,0.09,1.13,0.39L71.54,51.35z"/>
	<path class="st0" d="M82.49,90.86c-2.27-3.69-4.55-7.37-6.81-11.06c-0.23-0.38-0.51-0.57-0.95-0.47c-0.09,0.05-0.18,0.11-0.27,0.16
		c-0.28,0.38-0.2,0.72,0.04,1.1c2.28,3.67,4.54,7.35,6.81,11.02c0.04,0.06,0.08,0.13,0.13,0.18c0.23,0.27,0.6,0.33,0.91,0.14
		c0.27-0.16,0.4-0.53,0.28-0.84C82.59,91.01,82.54,90.93,82.49,90.86z"/>
	<path class="st0" d="M87.62,84.3c-0.05-0.09-0.11-0.18-0.16-0.27c-0.41-0.34-0.81-0.29-1.25-0.01c-1.7,1.07-3.41,2.11-5.12,3.17
		c-0.06,0.04-0.12,0.07-0.18,0.11c0.28,0.46,0.56,0.91,0.84,1.37c0.03-0.02,0.06-0.03,0.08-0.04c1.82-1.12,3.64-2.24,5.45-3.36
		c0.3-0.18,0.42-0.51,0.36-0.86C87.62,84.37,87.62,84.33,87.62,84.3z"/>
	<path class="st0" d="M83.62,79.35c0.31-0.19,0.43-0.52,0.36-0.87c-0.01-0.04-0.01-0.08-0.02-0.12c-0.05-0.08-0.1-0.16-0.15-0.24
		c-0.49-0.35-0.7-0.35-1.21-0.04c-1.72,1.06-3.44,2.12-5.15,3.18c-0.06,0.04-0.13,0.08-0.2,0.12c0.29,0.46,0.56,0.91,0.84,1.36
		c0.04-0.02,0.07-0.03,0.1-0.05C80,81.58,81.81,80.47,83.62,79.35z"/>
	<path class="st0" d="M69.36,92.71C69.36,92.71,69.36,92.71,69.36,92.71c0.12,0.14,0.23,0.28,0.34,0.41
		c0.22,0.26,0.47,0.49,0.73,0.7c1.61,1.25,3.94,1.48,5.72,0.44c1.24-0.72,2.46-1.5,3.68-2.26c0.49-0.3,0.6-0.77,0.29-1.26
		c-1.81-2.94-3.63-5.89-5.45-8.83c-0.3-0.48-0.78-0.6-1.27-0.3c-1.15,0.71-2.31,1.42-3.46,2.13c-2.02,1.25-2.94,3.71-2.25,5.97
		c0.09,0.3,0.21,0.58,0.33,0.88c0.01,0.02,0.02,0.04,0.02,0.06L69.36,92.71z"/>
</g>
</svg>
