<?xml version="1.0" encoding="utf-8"?>
<!-- Generator: Adobe Illustrator 23.0.1, SVG Export Plug-In . SVG Version: 6.00 Build 0)  -->
<svg version="1.1" id="Layer_1" xmlns="http://www.w3.org/2000/svg" xmlns:xlink="http://www.w3.org/1999/xlink" x="0px" y="0px"
	 viewBox="0 0 100 100" style="enable-background:new 0 0 100 100;" xml:space="preserve">
<style type="text/css">
	.st0{fill:#FFFFFF;}
</style>
<g>
	<path class="st0" d="M77,86.5c2,3.5,1.9,3.5-1.5,5.6c-1.9,1.2-3.7,1.4-5.8,0.5c-0.5-0.2-1.3-0.1-1.9,0.1
		c-17.6,7.1-37.8,3.1-51.1-10.3C7,72.6,2.4,60.8,2.9,47C3.7,26.4,17.8,8.9,37.7,3.4c2.1-0.6,4.1-1,6.2-1.4c4.1,0,8.2,0,12.3,0
		c0.3,0.1,0.6,0.3,1,0.3c18.9,2.9,34.3,17.1,38.7,35.8c0.4,1.8,0.8,3.6,1.2,5.5c0,0.9,0,1.9,0,2.8c-0.5,0-0.9,0.1-1.4,0
		c-4.5-0.4-8.2,1.1-11.4,4.1c-2.7,2.5-6,3.7-9.7,3.7c-0.3,0-0.6,0-0.9,0.1c-1.4,0.4-2.7,0.4-3.5-1.1c-2.8,2.2-4.3,2-5.8-0.5
		c-0.7,0.5-1.3,1.2-2,1.3c-1,0.2-2.4,0.3-3.2-0.2c-0.6-0.3-0.9-1.8-0.8-2.6c0.7-3.8,1.5-7.5,2.4-11.2c0.1-0.4,0.6-0.8,1-0.9
		c0.7-0.2,1.5-0.2,2.5-0.3c-0.6,2.9-1.2,5.6-1.8,8.4c-0.2,1.1-0.5,2.2-0.7,3.4c-0.1,0.7-0.6,1.7,0.6,1.7c0.7,0,1.7-0.8,2-1.4
		c0.6-1.3,0.5-2.9,1.1-4.2c1.2-2.8,3.3-3.8,6.3-3c0.2-0.9,0.5-1.8,0.6-2.7c0.2-1.3,0.7-2,2.1-1.9c0.4,0,0.9-0.1,1.7-0.2
		c-0.6,2.7-1.1,5.4-1.7,8c-0.3,1.3-0.5,2.7-0.9,4c-0.4,1.4,0.3,1.9,1.6,1.7c1.4-0.2,2.8-0.6,4.1-1.1c1.3-0.5,2.5-1.2,3.5-2
		c3.1-2.3,6.2-4.7,10.6-4.7c-2-14.7-8.9-26-21.6-33.2C56.2,2.9,40.6,3.4,26,13.1C12.9,21.8,6.7,34.5,6.7,50.4
		c4.1,0.4,7.8-0.4,11-2.8c1-0.8,1.2-1.8,1.1-3.1c-0.1-1,0.1-2.2,0.6-3.1c1-2,4.9-4.2,8.1-3.5c0,4.2,0,8.4,0,12.6
		c0.1,0,0.3,0,0.4,0.1c0.8-2.3,1.6-4.7,2.4-7c0.4-1.1,0.8-2.3,1.2-3.4c0.8-2.4,0.8-2.4,3.6-2.3c0,4.2,0,8.4,0,12.7
		c0.1,0,0.2,0,0.3,0.1c0.5-1.3,0.9-2.6,1.4-3.9c0.9-2.6,1.9-5.1,2.7-7.7c0.3-1,0.8-1.5,2-1.1c-0.3,0.8-0.5,1.5-0.8,2.3
		c-1.5,4-3,8-4.4,11.9c-1,2.7-1.1,2.7-4.2,2.2c0-3.3,0-6.6,0-9.8c-0.1,0-0.2-0.1-0.3-0.1c-0.2,0.4-0.4,0.7-0.5,1.1
		c-0.9,2.4-2,4.7-2.8,7.2c-0.5,1.5-1.2,2.2-2.8,1.9c-0.4-0.1-0.7,0-1.2-0.1c0-5,0-10,0-14.9c-2.2,0.4-3.5,2-3.7,4.3
		c-0.4,4.5-1.4,5.9-5.8,7.2c-2.6,0.7-5.2,0.9-8.1,1.4C8.1,65.6,14,76.4,24.9,84.3C38,93.8,54.6,94.4,66.6,89
		c-0.1-0.8-0.2-1.5-0.3-2.3c-0.1-1.8,0.7-3.1,2.1-4.2c0.6-0.5,1.4-0.8,2-1.3c1.2-0.9,2.5-1.5,3.7-0.1c0.3,0.5,0.5,1,0.8,1.5
		C75.6,84,76.3,85.2,77,86.5z M67.1,50.9c0.4,0.6,0.7,1.6,1.3,1.8c1,0.3,1.5-0.6,1.7-1.5c0.4-1.7,0.8-3.5,1.1-5.2
		c0.1-0.3,0-0.9-0.2-1c-0.4-0.1-1-0.2-1.3,0c-0.5,0.3-1,0.8-1.2,1.4C68,47.7,67.7,49.2,67.1,50.9z"/>
	<path class="st0" d="M52.1,54.5c-1.1,0-2.1,0-3.3,0c0.5-2.3,0.9-4.5,1.4-6.9c-1.1,0-1.5,0.5-1.8,1.5c-0.6,1.6-1.3,3.2-2.3,4.5
		c-1.1,1.4-2.9,1.5-4.5,0.8c-1.5-0.6-1.7-2.1-1.6-3.5c0.1-1.4,0.3-2.8,0.7-4.1c0.2-0.8,0.8-1.6,1.4-2.2c1.3-1.3,2.9-1.7,4.6-1.4
		c1.7,0.4,1.7,1.9,2,3.2c1.6,0.4,1.9-0.6,2.1-1.8c0.1-0.5,0.5-1.2,0.8-1.3c0.9-0.1,1.9,0.1,2.8,0.1c0,0.2,0,0.3,0,0.5
		c0.6-0.2,1.1-0.5,1.7-0.6c0.9-0.2,2-0.2,2.1,0.9c0.1,0.6-0.4,1.7-0.9,2c-1.1,0.7-1.5-0.3-1.7-1.2c-1.3,0-1.7,0.7-1.9,1.7
		C53.2,49.4,52.7,52,52.1,54.5z M42.9,50.4c0.1,1.4,0.7,2.2,1.8,2.1c1.3-0.2,2.7-3.2,1.9-4.2c-0.8-0.9-0.6-1.5,0-2.4
		c0.2-0.3,0.1-0.7,0.1-1.1c-0.4,0-0.9-0.2-1.1-0.1c-0.5,0.3-1,0.7-1.2,1.2C43.8,47.4,43.3,48.9,42.9,50.4z"/>
	<path class="st0" d="M77,86.5c-0.7-1.3-1.4-2.5-2.1-3.8c-0.3-0.5-0.5-1-0.8-1.5c-0.3-0.6-0.8-1.1-1-1.8c-0.1-0.4,0-0.8,0-1.2
		c0.4,0.2,0.9,0.2,1.1,0.5c0.6,0.7,1.2,1.5,1.7,2.3l0,0c1.2,1.9,2.3,3.8,3.5,5.7l0,0c0.5,0.9,1,1.7,1.4,2.6c0.1,0.3,0,0.7,0,1.1
		c-0.4-0.1-0.9-0.1-1.1-0.4c-0.6-0.7-1-1.6-1.5-2.3C77.8,87.1,77.4,86.9,77,86.5z"/>
	<path class="st0" d="M79.4,86.6c0.2-0.4,0.3-1.1,0.6-1.3c1.3-0.9,2.7-1.8,4.1-2.6c0.4-0.2,1,0,1.5,0c-0.2,0.5-0.3,1.1-0.7,1.3
		c-1.3,0.9-2.7,1.8-4.1,2.5C80.5,86.8,79.9,86.6,79.4,86.6C79.4,86.6,79.4,86.6,79.4,86.6z"/>
	<path class="st0" d="M76,81c0.1-0.4,0.1-1.1,0.4-1.3c1.4-1,2.8-1.8,4.3-2.7c0.4-0.2,1,0,1.5,0.1c-0.2,0.4-0.3,1-0.6,1.2
		c-1.4,1-2.9,1.9-4.4,2.7C76.9,81.2,76.4,81,76,81C76,80.9,76,81,76,81z"/>
</g>
</svg>
