<?xml version="1.0" encoding="utf-8"?>
<!-- Generator: Adobe Illustrator 23.0.1, SVG Export Plug-In . SVG Version: 6.00 Build 0)  -->
<svg version="1.1" id="Layer_1" xmlns="http://www.w3.org/2000/svg" xmlns:xlink="http://www.w3.org/1999/xlink" x="0px" y="0px"
	 viewBox="0 0 100 100" style="enable-background:new 0 0 100 100;" xml:space="preserve">
<style type="text/css">
	.st0{fill:#FFFFFF;}
</style>
<g>
	<path class="st0" d="M66.81,72.39c1.22,2.17,1.2,2.15-0.94,3.48c-1.18,0.73-2.32,0.9-3.61,0.31c-0.31-0.14-0.82-0.06-1.17,0.08
		c-10.97,4.43-23.51,1.96-31.82-6.43c-6.02-6.07-8.92-13.47-8.59-22.03c0.5-12.81,9.29-23.74,21.67-27.11
		c1.28-0.35,2.58-0.6,3.87-0.89c2.55,0,5.09,0,7.64,0c0.2,0.07,0.4,0.17,0.61,0.2c11.77,1.79,21.37,10.64,24.11,22.25
		c0.27,1.13,0.49,2.27,0.73,3.4c0,0.59,0,1.17,0,1.76c-0.29,0.01-0.59,0.05-0.88,0.03c-2.78-0.26-5.09,0.66-7.11,2.57
		c-1.67,1.58-3.74,2.33-6.06,2.33c-0.19,0-0.4,0-0.58,0.06c-0.89,0.27-1.68,0.22-2.18-0.68c-1.73,1.34-2.69,1.25-3.62-0.29
		c-0.41,0.29-0.8,0.74-1.25,0.83c-0.65,0.13-1.47,0.19-2-0.11c-0.37-0.21-0.59-1.1-0.5-1.62c0.41-2.34,0.95-4.66,1.48-6.98
		c0.05-0.24,0.37-0.51,0.62-0.59c0.45-0.13,0.95-0.13,1.57-0.19c-0.38,1.8-0.73,3.51-1.09,5.22c-0.15,0.7-0.33,1.4-0.45,2.1
		c-0.07,0.41-0.35,1.08,0.36,1.05c0.44-0.02,1.08-0.47,1.25-0.88c0.35-0.82,0.32-1.8,0.66-2.62c0.72-1.75,2.06-2.36,3.95-1.89
		c0.13-0.56,0.3-1.12,0.37-1.69c0.1-0.8,0.43-1.24,1.3-1.18c0.28,0.02,0.58-0.07,1.03-0.13c-0.36,1.71-0.69,3.35-1.04,4.99
		c-0.17,0.83-0.33,1.66-0.53,2.48c-0.22,0.88,0.2,1.19,0.97,1.05c0.86-0.15,1.73-0.35,2.53-0.67c0.78-0.32,1.53-0.75,2.2-1.26
		c1.93-1.46,3.84-2.95,6.58-2.94c-1.24-9.15-5.54-16.21-13.47-20.67c-9.57-5.38-19.26-5.05-28.39,1
		c-8.14,5.4-11.96,13.31-11.98,23.18c2.58,0.27,4.84-0.22,6.83-1.73c0.62-0.47,0.77-1.09,0.66-1.91c-0.08-0.62,0.09-1.36,0.37-1.94
		c0.61-1.24,3.04-2.59,5.04-2.16c0,2.59,0,5.22,0,7.85c0.09,0.01,0.17,0.03,0.26,0.04c0.5-1.45,1.01-2.9,1.51-4.35
		c0.24-0.71,0.48-1.42,0.72-2.13c0.51-1.52,0.51-1.52,2.26-1.42c0,2.62,0,5.25,0,7.88c0.07,0.02,0.14,0.03,0.21,0.05
		c0.29-0.8,0.57-1.6,0.86-2.4c0.57-1.59,1.17-3.18,1.71-4.79c0.21-0.63,0.48-0.96,1.27-0.68c-0.16,0.47-0.32,0.95-0.49,1.42
		c-0.92,2.47-1.84,4.95-2.76,7.42c-0.62,1.66-0.68,1.7-2.63,1.36c0-2.03,0-4.08,0-6.12c-0.06-0.02-0.13-0.04-0.19-0.06
		c-0.11,0.23-0.23,0.45-0.33,0.68c-0.59,1.48-1.25,2.95-1.75,4.46c-0.31,0.93-0.77,1.36-1.75,1.17c-0.22-0.04-0.44-0.03-0.76-0.05
		c0-3.12,0-6.21,0-9.3c-1.38,0.24-2.19,1.23-2.31,2.69c-0.23,2.8-0.87,3.7-3.61,4.45c-1.59,0.43-3.25,0.57-5.04,0.87
		c0.8,8.19,4.49,14.86,11.24,19.77c8.16,5.94,18.46,6.29,25.93,2.93c-0.06-0.47-0.14-0.94-0.16-1.42c-0.05-1.1,0.45-1.95,1.31-2.59
		c0.39-0.29,0.85-0.49,1.24-0.79c0.77-0.59,1.53-0.96,2.31-0.04c0.16,0.32,0.32,0.64,0.49,0.95C65.93,70.81,66.37,71.6,66.81,72.39z
		 M60.66,50.24c0.25,0.37,0.44,0.98,0.78,1.09c0.64,0.2,0.94-0.35,1.07-0.95c0.23-1.08,0.48-2.15,0.7-3.23c0.04-0.2,0-0.57-0.1-0.6
		c-0.25-0.09-0.61-0.14-0.81-0.01c-0.31,0.2-0.62,0.52-0.75,0.86C61.22,48.26,60.99,49.17,60.66,50.24z"/>
	<path class="st0" d="M51.32,52.49c-0.7,0-1.31,0-2.04,0c0.3-1.45,0.58-2.83,0.88-4.29c-0.71,0.03-0.94,0.34-1.15,0.94
		c-0.35,0.99-0.78,2-1.43,2.8c-0.69,0.85-1.78,0.91-2.79,0.49c-0.95-0.4-1.04-1.3-0.98-2.16c0.06-0.87,0.21-1.74,0.46-2.57
		c0.15-0.5,0.51-0.99,0.88-1.38c0.78-0.81,1.79-1.08,2.87-0.85c1.03,0.23,1.06,1.18,1.23,2.02c0.99,0.22,1.18-0.38,1.32-1.11
		c0.06-0.3,0.3-0.76,0.5-0.78c0.57-0.07,1.16,0.05,1.74,0.09c-0.01,0.1-0.02,0.2-0.03,0.3c0.36-0.13,0.71-0.31,1.08-0.38
		c0.56-0.11,1.24-0.13,1.33,0.58c0.05,0.4-0.25,1.04-0.59,1.25c-0.69,0.45-0.93-0.21-1.08-0.77c-0.81-0.03-1.06,0.44-1.19,1.06
		C52,49.32,51.66,50.9,51.32,52.49z M45.56,49.92c0.08,0.9,0.44,1.36,1.1,1.28c0.79-0.1,1.69-2.01,1.17-2.62
		c-0.48-0.55-0.36-0.96-0.02-1.47c0.11-0.17,0.06-0.44,0.08-0.67c-0.24-0.02-0.54-0.15-0.71-0.04c-0.29,0.18-0.6,0.45-0.72,0.75
		C46.11,48.06,45.85,49,45.56,49.92z"/>
	<path class="st0" d="M66.81,72.39c-0.44-0.79-0.89-1.58-1.32-2.38c-0.17-0.31-0.33-0.63-0.49-0.95c-0.21-0.36-0.47-0.71-0.62-1.09
		c-0.08-0.22,0.02-0.51,0.03-0.77c0.24,0.1,0.56,0.13,0.71,0.3c0.39,0.45,0.72,0.96,1.07,1.44l-0.03-0.03
		c0.72,1.18,1.45,2.37,2.17,3.55l-0.03-0.03c0.29,0.53,0.61,1.05,0.85,1.61c0.08,0.19-0.02,0.46-0.03,0.69
		c-0.24-0.07-0.58-0.07-0.71-0.24c-0.36-0.45-0.61-0.99-0.94-1.46C67.29,72.78,67.03,72.6,66.81,72.39z"/>
	<path class="st0" d="M68.32,72.45c0.12-0.28,0.16-0.67,0.37-0.82c0.82-0.58,1.69-1.12,2.57-1.59c0.24-0.13,0.62,0,0.94,0
		c-0.13,0.29-0.19,0.68-0.42,0.84c-0.83,0.58-1.69,1.11-2.58,1.58c-0.23,0.12-0.61-0.02-0.92-0.05
		C68.29,72.43,68.32,72.45,68.32,72.45z"/>
	<path class="st0" d="M66.19,68.94c0.08-0.28,0.08-0.7,0.27-0.83c0.85-0.6,1.74-1.15,2.65-1.65c0.23-0.12,0.61,0.03,0.92,0.06
		c-0.12,0.26-0.17,0.63-0.37,0.77c-0.89,0.61-1.81,1.17-2.74,1.69c-0.18,0.1-0.5-0.04-0.76-0.07
		C66.16,68.91,66.19,68.94,66.19,68.94z"/>
</g>
</svg>
