<?xml version="1.0" encoding="utf-8"?>
<!-- Generator: Adobe Illustrator 23.0.1, SVG Export Plug-In . SVG Version: 6.00 Build 0)  -->
<svg version="1.1" id="Layer_1" xmlns="http://www.w3.org/2000/svg" xmlns:xlink="http://www.w3.org/1999/xlink" x="0px" y="0px"
	 viewBox="0 0 15 15" style="enable-background:new 0 0 15 15;" xml:space="preserve">
<style type="text/css">
	.st0{fill:#F2F2F2;}
</style>
<path class="st0" d="M12.57,3.36c-0.02-0.21-0.2-0.37-0.41-0.37h-1.74C10.4,1.39,9.1,0.11,7.5,0.11c-1.6,0-2.9,1.28-2.92,2.87H2.84
	c-0.21,0-0.39,0.16-0.4,0.37l-0.85,9.53c0,0.01,0,0.02,0,0.04c0,1.09,0.99,1.97,2.22,1.97h7.39c1.22,0,2.22-0.88,2.22-1.97
	c0-0.01,0-0.02,0-0.04L12.57,3.36z M7.5,0.93c1.15,0,2.08,0.92,2.1,2.06H5.4C5.42,1.85,6.35,0.93,7.5,0.93z M11.2,14.07H3.8
	c-0.77,0-1.39-0.51-1.4-1.13L3.21,3.8h1.37v1.24c0,0.23,0.18,0.41,0.41,0.41c0.23,0,0.41-0.18,0.41-0.41V3.8H9.6v1.24
	c0,0.23,0.18,0.41,0.41,0.41s0.41-0.18,0.41-0.41V3.8h1.37l0.81,9.14C12.59,13.57,11.96,14.07,11.2,14.07z"/>
</svg>
