<?xml version="1.0" encoding="utf-8"?>
<!-- Generator: Adobe Illustrator 23.0.1, SVG Export Plug-In . SVG Version: 6.00 Build 0)  -->
<svg version="1.1" id="Layer_1" xmlns="http://www.w3.org/2000/svg" xmlns:xlink="http://www.w3.org/1999/xlink" x="0px" y="0px"
	 viewBox="0 0 480 480" style="enable-background:new 0 0 480 480;" xml:space="preserve">
<style type="text/css">
	.st0{fill:none;}
	.st1{fill:url(#SVGID_1_);}
	.st2{fill:url(#SVGID_2_);}
	.st3{fill:url(#SVGID_3_);}
</style>
<g>
	<polygon class="st0" points="72,200.8 47.3,216 72,231.2 	"/>
	<polygon class="st0" points="408,200.8 408,231.2 432.7,216 	"/>
	<path class="st0" d="M392,241.1V24c0-4.4-3.6-8-8-8H96c-4.4,0-8,3.6-8,8v217.1l152,93.5L392,241.1z M115,95h255v16H115V95z
		 M115,148h255v16H115V148z"/>
	<path class="st0" d="M235.8,350.8L40,230.3V464h400V230.3L244.2,350.8C241.6,352.4,238.4,352.4,235.8,350.8z"/>
	<linearGradient id="SVGID_1_" gradientUnits="userSpaceOnUse" x1="239.1878" y1="567.1017" x2="241.8544" y2="-165.3428">
		<stop  offset="0" style="stop-color:#12C2E9"/>
		<stop  offset="0.5" style="stop-color:#C471ED"/>
		<stop  offset="1" style="stop-color:#F64F59"/>
	</linearGradient>
	<path class="st1" d="M455.7,213.9c0-0.2-0.2-0.4-0.2-0.5c-0.2-0.5-0.3-0.9-0.6-1.4c-0.1-0.2-0.3-0.4-0.4-0.6
		c-0.2-0.4-0.5-0.7-0.8-1.1c-0.2-0.2-0.4-0.4-0.7-0.5c-0.3-0.2-0.5-0.5-0.8-0.7L408,182V24c0-13.3-10.7-24-24-24H96
		C82.7,0,72,10.7,72,24v158l-44.2,27.2c-0.3,0.2-0.5,0.4-0.8,0.7c-0.2,0.2-0.5,0.3-0.7,0.5c-0.3,0.3-0.6,0.7-0.8,1.1
		c-0.1,0.2-0.3,0.4-0.4,0.6c-0.2,0.4-0.4,0.9-0.6,1.4c-0.1,0.2-0.2,0.4-0.2,0.5c-0.2,0.7-0.3,1.4-0.3,2.1v256c0,4.4,3.6,8,8,8h416
		c4.4,0,8-3.6,8-8V216C456,215.3,455.9,214.6,455.7,213.9z M408,200.8l24.7,15.2L408,231.2V200.8z M88,24c0-4.4,3.6-8,8-8h288
		c4.4,0,8,3.6,8,8v217.1l-152,93.5L88,241.1V24z M72,200.8v30.4L47.3,216L72,200.8z M440,464H40V230.3l195.8,120.5
		c2.6,1.6,5.8,1.6,8.4,0L440,230.3V464z"/>
	
		<linearGradient id="SVGID_2_" gradientUnits="userSpaceOnUse" x1="242.5" y1="59.6681" x2="242.5" y2="127.6653" gradientTransform="matrix(-1 0 0 -1 485 206)">
		<stop  offset="0" style="stop-color:#12C2E9"/>
		<stop  offset="0.5" style="stop-color:#C471ED"/>
		<stop  offset="1" style="stop-color:#F64F59"/>
	</linearGradient>
	<rect x="115" y="95" class="st2" width="255" height="16"/>
	
		<linearGradient id="SVGID_3_" gradientUnits="userSpaceOnUse" x1="242.5" y1="112.6681" x2="242.5" y2="180.6653" gradientTransform="matrix(-1 0 0 -1 485 312)">
		<stop  offset="0" style="stop-color:#12C2E9"/>
		<stop  offset="0.5" style="stop-color:#C471ED"/>
		<stop  offset="1" style="stop-color:#F64F59"/>
	</linearGradient>
	<rect x="115" y="148" class="st3" width="255" height="16"/>
</g>
</svg>
