<?xml version="1.0" encoding="UTF-8"?> <!-- Generator: Adobe Illustrator 23.1.1, SVG Export Plug-In . SVG Version: 6.00 Build 0) --> <svg xmlns="http://www.w3.org/2000/svg" xmlns:xlink="http://www.w3.org/1999/xlink" id="Layer_1" x="0px" y="0px" width="446px" height="192px" viewBox="0 0 446 192" style="enable-background:new 0 0 446 192;" xml:space="preserve"> <style type="text/css"> .st0{fill:#CE0A24;} .st1{fill:#FFFFFF;} </style> <g> <g> <path id="Nando_x27_s_1_" class="st0" d="M226.486,140.738c-0.255,0-0.51,0-0.765,0c-0.765,0-1.529,0.51-2.036,0.765 c-0.51,0.255-1.019,0.51-1.529,0.51l0,0c0,0-0.255,0-0.255-0.255c-0.765-0.765-0.255-3.82,0-5.092v-0.255 c0.51-3.056,1.019-6.621,1.274-9.677l0,0l0.255-1.529c0.255-1.781,0.765-5.092,0.765-5.857c0-2.546-0.51-3.056-1.274-3.82 l-0.255-0.255c-1.019-1.019-2.546-2.291-5.347-3.82c-0.765-0.51-1.781-1.019-2.546-0.765c-0.765,0-1.529,0.765-1.781,1.529 c-0.255,0.255-0.255,0.765-0.765,1.529V114c0,0-0.255,0-0.255,0.255c-0.255,0-0.51,0-0.765-0.255c-0.255,0-0.255-0.255-0.51-0.255 c-3.566-1.529-8.403-2.036-8.658-2.036c0,0-0.765,0-1.781,0c-1.019,0-1.781,0-2.801,0c-4.585,0.255-7.896,1.274-8.658,1.781 c-1.019,0.255-2.291,0.765-3.311,1.274c-5.347,2.546-9.422,6.621-11.713,11.968c-0.51,1.274-4.585,12.988,4.585,20.374 c0.255,0.255,0.255,0.255,0.51,0.51l0.255,0.255c0.255,0.255,0.51,0.51,0.765,0.51l0.255,0.255l0.255,0.255 c1.019,0.765,2.291,1.274,3.311,1.781l0.765,0.255l0,0c1.529,0.51,2.801,0.765,3.311,1.019h0.255 c1.274,0.255,3.82,0.51,4.837,0.51h0.255c5.857-0.255,9.677-1.529,11.968-2.801l0,0l0.51-0.51 c1.274-0.765,2.291-1.781,2.801-2.291l0,0l0,0c0,0.255,0.255,0.255,0.255,0.51l0,0c0.765,1.274,3.566,4.075,8.403,4.075l0,0 c0.51,0,1.274,0,1.781,0c2.546-0.255,7.386-1.529,8.658-6.366c0.255-0.51,0.51-1.781,0-2.546 C227.505,141.247,227.25,140.992,226.486,140.738z M210.442,121.384c0,0.765-0.765,8.148-1.529,11.206 c-0.255,1.529-1.274,5.602-3.311,7.641c-2.546,2.546-4.585,3.565-7.641,4.075c-0.255,0-0.765,0-1.274,0 c-1.529,0-3.056-0.51-4.585-1.781c-2.036-1.529-4.075-5.092-3.82-10.187c0-1.019,0.255-2.036,0.51-3.056l0,0 c0.255-1.274,0.765-2.291,1.529-3.311c4.33-7.386,12.478-7.896,12.478-7.896c0.765,0,1.274,0,2.036,0 C210.187,118.328,210.442,121.384,210.442,121.384z M287.604,129.534L287.604,129.534c0,1.529-0.51,6.876-3.311,10.951 c-3.311,4.837-7.641,7.641-10.697,9.422c-0.255,0.255-0.51,0.255-1.019,0.51c-1.781,1.019-3.82,2.036-6.366,2.546 c-0.255,0-0.255,0-0.51,0s-0.51,0-0.765-0.255l0,0c-0.51-0.255-1.019-0.51-1.019-1.274c0-0.255,0-0.51,0.51-1.529 c1.529-1.781,6.112-8.658,7.386-18.59c0.765-5.602,0-9.422-1.781-11.459c-1.274-1.274-3.056-2.036-5.347-2.036 c-0.255,0-0.765,0-1.019,0c-6.366,0.51-9.422,6.366-9.932,9.677c-0.765,3.565-1.529,8.912-2.291,12.733 c0,1.274-0.255,4.075,1.781,4.837c2.036,0.765,3.056,2.036,2.546,3.311c-0.255,1.019-1.019,1.781-2.291,1.781 c-1.529,0-3.311,0-4.837,0c-1.019,0-1.781,0-2.546,0c-1.529,0-3.311,0-4.837,0c-0.765,0-1.529,0-2.291,0c-0.255,0-0.51,0-0.765,0 c-0.51,0-0.765,0-1.019,0c-0.255,0-0.51,0-1.019,0c-0.255,0-0.51,0-0.765,0c-0.765,0-1.781,0-2.801,0 c-1.019,0-1.529-0.255-2.036-0.51c-0.51-0.51-0.51-1.274-0.51-1.529c0-0.765,0.255-1.529,0.765-2.036 c0.51-0.51,1.274-0.765,2.036-1.019c1.274-0.255,2.546-0.765,3.311-3.82c0.51-2.801,1.019-7.131,1.781-10.951 c0.51-3.82,1.274-7.386,1.529-9.422v-0.255c0-0.255,0-0.255,0-0.51c0,0-0.255,0-0.765,0c-0.255,0-4.075,0.255-4.585-1.781 c-0.765-2.546,0.765-3.056,1.781-3.565h0.255c1.019-0.255,10.187-3.056,11.968-3.056c0.255,0,0.51,0,0.765,0 c0.255,0,0.765,0,1.019,0c0.51,0,1.019,0.255,1.274,0.51c1.274,1.019,1.274,2.801,1.274,4.33 c2.291-2.291,6.112-4.837,11.459-5.092l0,0c0.255,0,1.019-0.255,2.546-0.255c0.255,0,0.255,0,0.51,0 c1.781,0,3.565,0.255,3.82,0.255c5.347,0.765,9.167,2.801,12.223,6.621C285.313,119.857,287.604,123.677,287.604,129.534z M172.754,101.777l-8.148,46.604l0,0c0,0.255-0.255,1.781-0.255,1.781c-0.255,1.274-1.529,2.036-2.546,2.036l0,0 c-2.546,0-5.347-3.82-5.602-4.075l-0.255-0.51c-3.056-4.075-20.628-31.068-24.191-36.417l-4.837,28.521 c0,0-1.019,4.33,1.529,5.347c3.82,1.529,3.82,3.056,3.311,4.075c-0.255,0.51-0.51,1.274-1.781,1.529h-0.255l0,0l0,0 c-0.255,0-0.765,0-1.019,0s-0.765,0-1.019,0h-0.255c-1.019,0-3.565-0.255-7.641-0.255c-2.801,0-5.602,0.255-7.386,0.51 c-0.765,0-1.529,0.255-2.036,0.255l0,0c0,0-0.255,0-0.51,0c-0.51,0-1.529,0-2.036-0.765c-0.51-0.51-0.765-1.274-0.51-2.291 c0-1.274,1.781-1.781,3.565-2.036h0.255c3.311-0.765,4.585-4.837,4.837-6.621l0,0c0.765-3.82,2.291-13.497,3.565-21.9 c1.274-7.896,2.291-14.514,2.546-16.043c0.51-2.546-0.255-4.585-2.546-5.857l0,0c-1.019-0.51-1.529-0.765-2.291-1.274 c-0.51-0.51-1.274-1.529-1.274-2.291c0-0.765,0.765-1.529,1.529-1.781l0,0l0,0l0,0l0,0c0,0,0.765,0,1.781-0.255l0,0l0,0l0,0l0,0 l0,0c1.529-0.255,2.801-0.255,4.33-0.255c0.51,0,1.019,0,1.529,0s0.765,0,1.274,0h0.255c0.51,0,1.274,0,2.036,0.255 c0.51,0,0.51,0,0.51,0l0,0c6.621,1.019,12.478,6.621,19.354,17.825c2.546,4.075,5.602,9.167,8.148,12.988 c0.765,1.529,1.781,2.801,2.291,3.82l3.82-23.429c0,0,0.765-4.837-2.546-6.366c-2.036-0.765-3.056-2.036-2.801-3.311 c0.255-1.529,1.274-2.291,3.056-2.036l0,0c0.255,0,0.51,0,0.51,0c0.255,0,0.765,0,1.019,0h0.255c1.019,0,3.566,0.255,7.641,0.255 c2.801,0,5.602-0.255,7.386-0.51c1.019,0,1.781-0.255,2.291-0.255c0.255,0,0.255,0,0.255,0l0,0c0.765,0,1.274,0.51,1.781,1.019 l0,0v0.255c0.255,2.036-1.019,3.311-4.075,4.075C173.518,96.173,172.754,101.522,172.754,101.777L172.754,101.777L172.754,101.777 z M346.431,140.992c-0.255,0-0.51,0-0.765,0l0,0c-0.765,0-1.529,0.51-2.036,0.765c-0.51,0.255-1.019,0.51-1.529,0.51 c0,0-0.255,0-0.255-0.255c-0.765-0.765-0.255-4.075,0-5.092v-0.255c0.255-1.781,0.51-3.82,1.019-6.621 c0.255-1.274,0.51-2.801,0.51-4.075c0.51-3.311,1.781-9.932,2.546-13.497c2.036-9.422,4.33-15.789,5.602-18.844 c0.51-1.529,0.765-2.036,0.765-2.291c0-0.51,0-2.036-1.274-2.546c-0.255,0-0.51-0.255-0.765-0.255 c-1.529,0-3.566,1.529-4.585,2.291c-9.167,6.621-12.733,18.335-14.007,22.665c0,0-0.255,0-0.51-0.255 c-0.255,0-0.255-0.255-0.51-0.255c-3.566-1.529-8.658-2.036-8.658-2.036s-0.765,0-1.781,0h-0.255c-1.019,0-1.781,0-2.801,0 c-4.837,0.255-7.896,1.529-8.912,1.781c-1.019,0.255-2.291,0.765-3.311,1.274c-5.347,2.546-9.422,6.621-11.713,12.223 c-0.51,1.274-4.585,12.988,4.585,20.628c0.255,0.255,0.255,0.255,0.51,0.51l0.255,0.255c0.255,0.255,0.51,0.51,0.765,0.51 l0.255,0.255l0.255,0.255c1.019,0.765,2.291,1.274,3.566,1.781l0,0l0,0c1.019,0.51,2.546,0.765,4.33,1.274 c1.274,0.255,3.82,0.51,4.837,0.51l0,0h0.255c5.857-0.255,9.932-1.529,12.223-3.056l0,0l0.51-0.51 c1.274-0.765,2.291-1.781,2.801-2.291c0,0.255,0.255,0.51,0.255,0.51l0,0c0.765,1.274,3.566,4.075,8.148,4.075 c0.765,0,1.529,0,2.036,0c2.546-0.255,7.386-1.529,8.912-6.366c0.255-0.51,0.51-1.781,0-2.546 C347.45,141.502,346.941,140.992,346.431,140.992z M307.978,132.845c0-1.019,0.255-2.036,0.51-3.056l0,0 c0.255-1.274,0.765-2.291,1.529-3.311c4.33-7.386,12.478-7.896,12.733-7.896c0.765,0,1.274,0,2.036,0 c4.075,0,5.092,1.781,5.347,2.546c0,0.255,0,0.51,0,0.51c0,0.765-0.765,8.403-1.529,11.459c-0.255,1.274-0.765,3.82-1.781,5.602 c-0.51,0.765-0.765,1.274-1.274,1.781c-2.546,2.801-4.585,3.82-7.896,4.075c-0.255,0-0.765,0-1.274,0 c-1.529,0-3.056-0.51-4.837-1.781C309.504,141.502,307.723,137.937,307.978,132.845z M312.56,151.689L312.56,151.689 L312.56,151.689L312.56,151.689z M446.002,138.701c0,2.801-1.529,5.857-4.075,8.403c-2.546,2.291-5.857,3.82-9.677,4.585 c-1.019,0.255-4.33,0.765-8.658,0.765l0,0c-3.056,0-6.112-0.255-8.658-1.019l0,0l-0.765-0.255 c-2.291-0.765-4.075-1.781-5.347-2.801c-0.255-0.255-0.51-0.51-0.765-0.765l0,0c-1.781-2.036-2.036-4.837-0.765-7.131 c0.765-1.529,2.036-2.546,3.566-3.311c2.546-1.019,4.837-1.019,5.347-1.019h0.255h0.255c1.019,0,2.801,0.255,3.565,1.274 c0.255,0.51,0.51,0.765,0.255,1.274c0,0.255-0.255,0.765-1.019,1.019c-1.781,1.019-3.056,1.781-3.311,2.546 c0,0.51,0,0.765,0.255,1.274c0.51,1.019,2.801,1.781,5.857,1.781h0.255c3.056,0,5.602-0.765,6.876-2.291 c0.51-0.765,0.765-1.529,0.765-2.036c0-0.255,0-0.51-0.255-0.765c-1.274-2.801-5.347-6.366-12.223-11.206 c-0.255-0.255-0.51-0.255-0.765-0.51c-4.33-3.056-4.075-5.602-4.075-6.366l0,0l0,0c0-1.019,0.255-1.781,0.255-1.781l0,0 c1.781-5.602,8.148-7.131,11.713-7.641c1.274-0.255,2.546-0.255,3.056-0.255h0.255c0.51,0,1.274,0,1.781,0 c3.056,0,5.347,0.255,6.366,0.51c0.51,0.255,1.019,0.255,1.529,0.255c1.529,0,2.036-0.765,2.546-1.529l0,0 c0.255-0.51,1.274-1.274,2.291-1.019h0.255c1.019,0,1.781,0.51,1.529,3.311c0,1.781-0.51,7.386-0.765,8.403 c0,1.019-0.255,1.529-0.765,2.036c-0.255,0.255-0.765,0.51-1.529,0.255c-1.019,0-1.781-1.529-2.036-1.781l0,0 c-0.51-1.529-2.801-3.311-7.131-3.311h-0.255c-2.291,0-3.056,0.51-3.311,0.765c-0.255,0.255-0.255,0.51,0,0.765l0,0 c0,0.765,1.274,1.529,2.291,2.291c0.51,0.255,0.765,0.51,1.019,0.765c2.291,1.781,4.075,3.056,5.347,4.075 c1.529,1.019,2.801,2.036,3.566,2.801C443.202,131.57,446.002,133.864,446.002,138.701z M408.059,112.981 c-0.255,0.255-0.765,0.255-1.274,0.51c-0.255,0-0.255,0-0.51,0c-0.51,0-0.765,0-1.274-0.255c-0.765-0.765-0.51-1.529-0.255-2.036 c2.546-3.82,2.036-9.677,1.274-12.478l0,0l0,0v-0.255c-0.255-0.765-0.255-1.274-0.255-2.036c0-3.056,1.781-4.33,2.036-4.33 c0,0,0.255,0,0.51-0.255l0,0h0.255c0,0,0.51-0.255,0.765-0.255s0.255,0,0.255,0h0.255c0,0,0,0,0.255,0 c1.019-0.255,2.291-0.255,3.82,0.51c0,0,0.255,0,0.255,0.255c0.765,0.255,1.274,0.765,2.036,1.529 c0.51,0.765,0.765,1.529,1.019,2.291c0.255,1.274,0.255,2.546,0.255,4.33c0,0-0.255,2.036-0.765,3.311l-0.51,1.274 c-0.51,1.019-0.51,1.529-1.274,2.546c0,0-0.255,0.255-0.255,0.51l-0.255,0.255c-0.51,0.765-0.765,1.019-1.274,1.529 c0,0.255-0.255,0.255-0.51,0.51l-0.255,0.255c-0.255,0.255-0.765,0.765-1.274,1.274 C409.84,112.216,408.823,112.726,408.059,112.981L408.059,112.981z M398.637,116.801c-5.347-5.092-12.988-5.857-17.318-5.857 c-2.291,0-3.82,0.255-3.82,0.255c-10.187,1.529-17.573,5.347-22.41,11.459c-4.585,6.112-4.585,12.223-4.33,14.007 c0.765,8.658,5.857,13.752,15.279,15.279l0,0c0,0,2.801,0.51,6.876,0.51c4.837,0,9.167-0.765,12.988-2.036 c4.075-1.274,6.621-3.566,6.876-3.566l0,0c5.092-3.82,7.386-7.896,7.386-8.148C403.219,132.335,405.513,123.677,398.637,116.801 L398.637,116.801z M366.04,136.665c0-0.255,0-0.765,0-1.019l0,0l0,0c0-2.036,0.765-5.092,1.019-5.857v-0.255 c0.765-2.291,1.019-3.056,2.291-4.837c1.781-2.801,2.546-3.565,4.585-4.837c1.781-1.274,4.075-1.529,4.33-1.529l0,0 c0.255,0,0.765,0,1.529,0c0.765,0,1.274,0,1.529,0l0,0c0.255,0,2.036,0.255,3.82,1.781c1.781,1.781,2.801,4.075,3.056,6.876 c0,1.529,0,2.546-0.255,4.585c-0.51,3.565-1.781,5.857-2.801,7.386c-1.529,2.036-2.801,3.565-4.837,4.837 c-1.019,0.51-2.801,1.529-5.857,1.529c-0.765,0-1.529,0-2.291-0.255c-1.019-0.255-2.291-1.019-2.291-1.019s-0.51-0.51-0.765-0.765 C367.312,141.757,366.55,139.466,366.04,136.665z"></path> </g> <g> <g> <path id="barci_black_2_" d="M75.218,95.918c0.255-3.311,0.51-11.459,1.019-17.825c0.765,1.019,1.781,1.781,3.565,1.529 c0.765-0.255,2.546-0.765,2.801-3.311c0-1.529-1.019-3.565-4.075-6.621c-0.255-0.255-0.51-0.51-0.765-0.51 c1.781-1.529,4.585-4.33,5.857-6.876l0.255-0.51l-0.51-0.51c-2.801-2.291-6.621-4.585-8.658-5.602 c-0.765-0.51-1.529-0.765-2.291-1.274l0.255-0.255c1.781-1.781,8.658-9.677,4.33-20.374 c-4.328-10.697-15.279-10.442-21.136-9.167c-2.036,0.51-4.075,1.529-5.092,2.291c-3.82,2.546-6.876,6.366-7.641,10.951 c-1.019,4.837,0.51,10.442,4.33,14.007c0.765,0.765,1.019,0.765,1.274,0.765c0,0,0.255-1.019,1.781-2.291 c0.51-0.51,3.311-2.801,7.131-1.529c2.291,0.765,3.311,1.781,3.82,3.566c0.255,0.765,0.51,1.781,0.51,2.546h-0.255 c-2.801,1.781-6.112,5.857-5.347,15.534c0.765,11.206,1.781,20.374,2.291,25.721c-1.781,0-3.311,0.255-4.837,0.51 c2.291-10.187,1.781-21.9-9.422-29.031C33.714,61.03,18.69,63.066,9.268,71.217s-11.713,21.9-6.621,33.106 c0.51,1.019,1.019,2.036,1.529,2.801c1.529,2.801,3.82,5.347,6.366,7.131c2.546,2.036,5.602,3.311,8.658,4.33 c2.036,0.51,3.82,1.019,5.857,1.529c0.255,0,0.51-0.255,0.255-0.51c-0.255-0.255-0.255-0.51-0.255-0.51 c-0.51-1.019-1.019-2.036-1.274-3.311c-0.765-4.075,0.51-8.912,4.075-11.459c3.311-2.291,7.641-2.546,10.951,0 c0.51,0.51,1.019,0.765,1.529,1.529c-1.781,4.075-1.781,8.658-1.274,11.459c0.255,2.036,0.765,2.801,1.019,3.565 c1.781,5.347,6.366,10.951,8.148,12.988c2.546,3.056,9.422,10.442,11.968,12.988v10.951c-1.019,0.51-6.876,4.33-9.422,9.932 c-0.255,0.51,0.255,1.274,1.019,1.019c4.585-0.765,10.187-1.019,15.789-1.019s10.697,0.51,15.279,1.019 c0.765,0,1.274-0.51,1.019-1.019c-2.546-5.602-8.658-9.422-9.422-9.932v-10.697c2.291-2.546,8.912-9.932,11.206-13.243 c1.529-2.036,7.896-10.187,8.912-16.553C95.337,110.69,94.318,96.682,75.218,95.918z M80.823,62.304 c-1.019,1.781-3.056,3.311-4.33,4.585c0-3.565-0.765-6.112-1.529-8.148C78.274,60.013,80.823,62.304,80.823,62.304z"></path> </g> <path id="barci_red_2_" class="st0" d="M79.803,75.547c0.255,0.765,0,1.529-0.51,1.781c-0.51,0.255-1.274,0-1.529-0.51l0,0l0,0 c0,0,0,0,0-0.255c0,0,0,0,0-0.255s-0.255-0.765-0.51-1.274c-0.255-0.765-0.51-2.546-0.765-3.311c0-0.255,0-0.51,0-0.51 s0,0,0.255,0.255c0.765,0.765,2.036,2.036,2.291,2.546C79.548,74.782,79.548,75.037,79.803,75.547 C79.803,75.292,79.803,75.292,79.803,75.547z M46.187,72.746c-3.056-3.056-7.386-4.837-11.459-5.602 C23.27,65.363,11.044,70.2,5.952,80.896c-4.33,8.912-2.546,21.39,4.585,28.521c3.311,3.311,6.621,5.092,10.697,6.112 c0,0-0.51-2.801,0.255-5.857c0.765-3.311,2.546-7.386,7.386-9.422c7.386-2.801,11.713,0.765,14.007,2.546 c1.529-1.781,2.801-2.546,4.585-3.311c1.274-0.765,2.291-1.019,3.311-1.274c1.529-3.311,2.036-9.422,1.529-12.988 C51.027,80.639,50.262,76.564,46.187,72.746z M74.201,107.889c-5.092-0.51-7.131,4.075-7.131,4.075 c0-0.255-2.036-4.585-7.131-4.075c-5.092,0.51-8.658,6.621-1.529,16.553c6.621,9.422,8.658,9.932,8.912,9.932l0,0l0,0l0,0l0,0 c0,0,2.036-0.51,8.912-9.932C82.859,114.765,79.294,108.398,74.201,107.889z M64.777,53.137L64.777,53.137c0,0.255,0,0.51,0,0.51 l0,0l0,0c1.529-0.255,3.311-0.255,4.585,0l0,0c2.801-2.291,4.837-5.857,5.602-9.932c0.765-4.585-0.255-8.912-2.801-11.713 c-2.801-3.058-6.366-4.84-10.949-4.84c-0.255,0-0.51,0-0.51,0c-4.33,0-6.876,1.019-9.932,3.566 c-1.274,1.019-4.075,3.82-4.585,8.403c-0.255,2.546,0,4.33,0.255,5.347c0,0.255,0,0.255,0.255,0.51 c0.255,1.019,0.51,1.781,1.529,3.056l0,0c1.274-1.274,2.801-2.036,4.33-2.546c1.019-0.255,2.291-0.255,3.566-0.255 c0.51,0,3.566,0.51,5.857,2.036C64.777,49.571,64.777,51.863,64.777,53.137z"></path> <g> <path id="barci_white_2_" class="st1" d="M66.306,71.981c0.51-0.765,1.274-1.274,2.036-0.765 c0.765,0.255,1.019,1.019,0.765,1.781l0,0l0,0c0,0,0,0,0,0.255c0,0,0,0,0,0.255c-0.255,0.255-0.51,0.765-0.765,1.274 c-0.51,0.765-2.036,2.291-2.801,3.056c-0.255,0.255-0.255,0.255-0.255,0.255s0,0,0-0.51c0.255-1.019,0.51-3.311,0.765-4.075 C65.796,73.001,66.051,72.491,66.306,71.981C66.051,71.981,66.051,71.981,66.306,71.981z M71.653,62.814 c0,2.291-2.036,4.33-4.33,4.33c-2.291,0-4.33-2.036-4.33-4.33c0-2.291,2.036-4.33,4.33-4.33 C69.617,58.484,71.653,60.265,71.653,62.814z M69.107,62.814c0-1.019-0.765-2.036-2.036-2.036c-1.019,0-2.036,0.765-2.036,2.036 s0.765,2.036,2.036,2.036C68.342,64.595,69.107,63.831,69.107,62.814z M74.964,58.739c1.019,2.036,1.529,4.585,1.529,8.148 c1.274-1.019,3.056-2.801,4.33-4.585C80.823,62.304,78.274,60.013,74.964,58.739z"></path> <g> <circle class="st1" cx="37.275" cy="74.018" r="2.036"></circle> <circle class="st1" cx="43.386" cy="79.367" r="2.036"></circle> <circle class="st1" cx="45.425" cy="87.005" r="2.036"></circle> <circle class="st1" cx="15.12" cy="106.614" r="2.036"></circle> <circle class="st1" cx="10.535" cy="100.503" r="2.036"></circle> <circle class="st1" cx="8.753" cy="92.862" r="2.036"></circle> <circle class="st1" cx="9.773" cy="85.224" r="2.036"></circle> <circle class="st1" cx="13.845" cy="78.348" r="2.036"></circle> <circle class="st1" cx="20.976" cy="74.018" r="2.036"></circle> <circle class="st1" cx="29.127" cy="72.236" r="2.036"></circle> <circle class="st1" cx="43.896" cy="94.391" r="2.036"></circle> </g> </g> </g> </g> </svg> 