<?xml version="1.0" encoding="utf-8"?>
<!-- Generator: Adobe Illustrator 23.0.1, SVG Export Plug-In . SVG Version: 6.00 Build 0)  -->
<svg version="1.1" id="Layer_1" xmlns="http://www.w3.org/2000/svg" xmlns:xlink="http://www.w3.org/1999/xlink" x="0px" y="0px"
	 viewBox="0 0 100 100" style="enable-background:new 0 0 100 100;" xml:space="preserve">
<style type="text/css">
	.st0{fill:#DA001B;}
	.st1{fill:#FAA500;}
	.st2{fill:#F5F5F5;}
	.st3{fill:#FDFAFB;}
	.st4{fill:#FCFAFB;}
</style>
<path class="st0" d="M26.51,44.08c0.09-5.34,0.77-10.56,2.15-15.76c2.13-8.03,6.8-13.34,14.74-15.99c5.72-1.91,6.29-3.39,4.48-9.25
	c-0.29-0.92-1.42-1.85,0.08-2.7c1.01-0.58,2-0.48,3.05,0.01c3.07,1.44,3.8,4.38,4.09,7.2c0.31,3,1.81,4.57,4.27,5.9
	c10.53,5.72,13.58,13.44,9.93,25.21c-2.43,7.84-5.72,15.4-6.88,23.63c-1.45,10.25-1.51,20.32,2.48,30.1
	c0.9,2.21,1.28,4.54-0.56,6.41c-1.96,1.98-4.43,1.07-6.4,0.13c-10.99-5.25-18.8-13.81-24.43-24.43
	C28.47,65.02,26.82,54.69,26.51,44.08z"/>
<path class="st1" d="M945.47,634.53c0.1-5.83,0.85-11.54,2.35-17.22c2.33-8.77,7.43-14.57,16.1-17.46
	c6.25-2.08,6.87-3.71,4.89-10.11c-0.31-1.01-1.55-2.02,0.08-2.95c1.1-0.63,2.19-0.52,3.33,0.01c3.35,1.57,4.15,4.78,4.46,7.86
	c0.33,3.28,1.98,4.99,4.66,6.45c11.5,6.25,14.83,14.68,10.85,27.53c-2.65,8.56-6.25,16.82-7.52,25.81
	c-1.58,11.19-1.64,22.2,2.71,32.87c0.99,2.42,1.4,4.96-0.61,7c-2.14,2.17-4.83,1.17-6.99,0.14c-12-5.73-20.53-15.09-26.68-26.68
	C947.61,657.41,945.81,646.12,945.47,634.53z"/>
<path class="st2" d="M976.97,622.2c0.33,2.4,0.06,4.63-1.71,6.47c-3.17,2.73-8.17,2.57-10.85-0.35c-3.11-3.4-3.31-8.1-0.5-11.77
	c0.15-0.19,0.27-0.41,0.41-0.61c0.74-0.56,1.47-1.13,1.81-2.05c0.36-0.09,0.63-0.31,0.84-0.61c0.48-0.11,0.78-0.41,0.92-0.88
	c0.08-0.03,0.16-0.06,0.24-0.1c1.44-0.5,2.74-1.27,4.08-1.98c1.04-0.55,1.9-0.48,2.21,0.88c-0.02,0.08-0.05,0.17-0.07,0.25
	c-2.24,1.29-3.65,3.34-5.01,5.44c-0.29,0.44-0.5,0.98-0.58,1.5c-0.11,0.72,0.27,1.24,1.03,0.96c2.04-0.75,3.75,0.16,5.5,0.94
	c0.36,0.34,0.72,0.68,1.08,1.01c0.21,0.29,0.42,0.59,0.63,0.88L976.97,622.2z M967.55,624.65c-0.03,1.01,0.07,1.98,0.99,2.63
	c1.09,0.78,2.88,0.56,4.4-0.53c1.41-1.02,1.99-2.42,1.55-3.8c-0.24-0.76-0.58-1.46-1.37-1.82
	C970.62,619.99,967.58,621.91,967.55,624.65z"/>
<g>
	<path class="st3" d="M42.44,18.7c3.41,0.77,4.45,4.18,4.31,7.28c-0.1,2.19-0.07,4.39-0.18,6.58c-0.03,0.55,0.05,1.11-0.05,1.65
		c-0.56,3.2-0.57,3.2,2.54,3.85C45.8,38.9,42.43,38.8,39.1,39c0,0,0.02,0,0.02,0c-0.42-0.59-1.23,0.05-1.7-0.62
		c0.51-1.09,1.82-1.02,2.62-1.69c1.34-0.87,0.48-1.98,0.33-3.02c-0.08-0.31-0.12-0.63-0.14-0.96c-0.04-2.29-0.01-4.58-0.03-6.86
		c0.06-0.71-0.39-0.83-0.97-1.03c-0.71-0.24-1.52,0.14-2.14-0.42c-0.52-0.67-0.44-1.2,0.31-1.64c0.69-0.4,1.4-0.8,1.74-1.58
		c0.37-0.15,0.72-0.32,0.87-0.73C41.09,20.24,41.45,19.04,42.44,18.7z"/>
	<path class="st4" d="M51.87,34.43c-1.43-1.98-1.46-4.28-1.49-6.57c0.49-1.27,0.43-2.75,1.46-3.81c1.21-0.02,1.3-1.1,1.62-1.85
		c1.24-2.94,5.96-4.25,8.68-2.53c4.04,2.55,4.5,8.46,3.44,11.85c-0.97-0.7-0.96-1.75-0.92-2.77c0.09-2.4-0.7-4.51-2.05-6.44
		c-1.49-1.45-2.68-1.48-4.35-0.09c-2.17,2.34-3.06,8.97-1.45,11.74c0.81,1.41,2.22,1.98,3.83,1.98c1.87,0.01,2.72-1.36,3.54-2.71
		c0.39-0.64,0.25-1.69,1.4-1.7c0.84,2.61-1.11,6.22-3.89,6.84c-3.67,0.83-6.83,0.28-8.78-3.6C52.64,34.23,52.23,34.49,51.87,34.43z"
		/>
</g>
</svg>
