<?xml version="1.0" encoding="utf-8"?>
<!-- Generator: Adobe Illustrator 23.0.1, SVG Export Plug-In . SVG Version: 6.00 Build 0)  -->
<svg version="1.1" id="Gradient" xmlns="http://www.w3.org/2000/svg" xmlns:xlink="http://www.w3.org/1999/xlink" x="0px" y="0px"
	 viewBox="0 0 512 512" style="enable-background:new 0 0 512 512;" xml:space="preserve">
<style type="text/css">
	.st0{fill:url(#SVGID_1_);}
	.st1{fill:none;}
	.st2{fill:url(#SVGID_2_);}
	.st3{fill:url(#SVGID_3_);}
	.st4{fill:url(#SVGID_4_);}
	.st5{fill:url(#SVGID_5_);}
	.st6{fill:url(#SVGID_6_);}
	.st7{fill:url(#SVGID_7_);}
	.st8{fill:url(#SVGID_8_);}
	.st9{fill:url(#SVGID_9_);}
	.st10{fill:url(#SVGID_10_);}
	.st11{fill:url(#SVGID_11_);}
	.st12{fill:url(#SVGID_12_);}
	.st13{fill:url(#SVGID_13_);}
	.st14{fill:url(#SVGID_14_);}
	.st15{fill:url(#SVGID_15_);}
</style>
<linearGradient id="SVGID_1_" gradientUnits="userSpaceOnUse" x1="248.7661" y1="-0.6339" x2="257.655" y2="514.9216" gradientTransform="matrix(1 0 0 -1 0 514)">
	<stop  offset="0" style="stop-color:#12C2E9"/>
	<stop  offset="0.5" style="stop-color:#C471ED"/>
	<stop  offset="1" style="stop-color:#F64F59"/>
</linearGradient>
<path class="st0" d="M144,336h304c3.8,0,7.1-2.7,7.8-6.4l40-192c0.9-4.3-1.9-8.6-6.2-9.5c-0.5-0.1-1.1-0.2-1.6-0.2H105.2L87.8,54.2
	C86.9,50.6,83.7,48,80,48H24c-4.4,0-8,3.6-8,8s3.6,8,8,8h49.7l60.6,257.5C121,325.8,112,338.1,112,352v16c0,17.7,14.3,32,32,32l0,0
	c-13.3,17.7-9.7,42.7,7.9,56c17.7,13.3,42.7,9.7,56-7.9c10.7-14.2,10.7-33.8,0-48.1h160c-13.3,17.7-9.7,42.7,7.9,56
	c17.7,13.3,42.7,9.7,56-7.9c10.7-14.2,10.7-33.8,0-48.1h32c4.4,0,8-3.6,8-8s-3.6-8-8-8H144c-8.8,0-16-7.2-16-16v-16
	C128,343.2,135.2,336,144,336L144,336z M150.3,320l-7.5-32h44.1l4,32H150.3L150.3,320z M323.7,240l-1.3,32h-52.7l-1.3-32H323.7z
	 M267.7,224l-1.3-32h59.3l-1.3,32H267.7z M253.7,272h-52.6l-4-32h55.3L253.7,272z M254.3,288l1.3,32H207l-4-32H254.3z M270.3,288
	h51.3l-1.3,32h-48.7L270.3,288z M337.7,288H389l-4,32h-48.6L337.7,288z M338.3,272l1.3-32h55.3l-4,32H338.3z M411.1,240h47.1
	l-6.7,32h-44.4L411.1,240z M413.1,224l4-32h51.1l-6.7,32H413.1z M396.9,224h-56.6l1.3-32h59.3L396.9,224z M342.3,176l1.3-32h63.3
	l-4,32H342.3z M326.3,176h-60.6l-1.3-32h63.3L326.3,176z M249.7,176h-60.6l-4-32h63.3L249.7,176z M250.3,192l1.3,32H195l-4-32H250.3
	z M178.9,224h-51.2l-7.5-32h54.7L178.9,224z M180.9,240l4,32H139l-7.5-32H180.9z M441.5,320h-40.4l4-32h43.1L441.5,320z M471.5,176
	h-52.4l4-32h55.1L471.5,176z M168.9,144l4,32h-56.5l-7.5-32H168.9z M200,424c0,13.3-10.7,24-24,24s-24-10.7-24-24s10.7-24,24-24
	C189.2,400,200,410.8,200,424z M424,424c0,13.3-10.7,24-24,24s-24-10.7-24-24s10.7-24,24-24C413.2,400,424,410.8,424,424z M168,424
	c0-4.4,3.6-8,8-8s8,3.6,8,8s-3.6,8-8,8S168,428.4,168,424z M392,424c0-4.4,3.6-8,8-8s8,3.6,8,8s-3.6,8-8,8S392,428.4,392,424z"/>
<g>
	<path class="st1" d="M326.9,150.1c-1.3,0.6-1.8,2.1-1.2,3.4c0.6,1.3,2.1,1.8,3.4,1.2c1.3-0.6,1.8-2.1,1.2-3.4
		C329.7,150,328.1,149.5,326.9,150.1z"/>
	
		<linearGradient id="SVGID_2_" gradientUnits="userSpaceOnUse" x1="418.1143" y1="253.1301" x2="399.2265" y2="-141.6236" gradientTransform="matrix(0.9077 -0.4195 0.4195 0.9077 -32.4662 338.327)">
		<stop  offset="0" style="stop-color:#12C2E9"/>
		<stop  offset="5.600001e-02" style="stop-color:#19BFE9"/>
		<stop  offset="0.137" style="stop-color:#2DB6EA"/>
		<stop  offset="0.235" style="stop-color:#4DA7EA"/>
		<stop  offset="0.344" style="stop-color:#7993EB"/>
		<stop  offset="0.462" style="stop-color:#B279ED"/>
		<stop  offset="0.497" style="stop-color:#C471ED"/>
		<stop  offset="1" style="stop-color:#F64F59"/>
	</linearGradient>
	<path class="st2" d="M324.7,145.4c-3.8,1.8-5.5,6.3-3.7,10.1c1.8,3.8,6.3,5.5,10.1,3.7c3.8-1.8,5.5-6.3,3.7-10.1
		C333,145.3,328.5,143.7,324.7,145.4z M329,154.6c-1.3,0.6-2.8,0-3.4-1.2c-0.6-1.3,0-2.8,1.2-3.4c1.3-0.6,2.8,0,3.4,1.2
		C330.8,152.5,330.3,154,329,154.6z"/>
	
		<linearGradient id="SVGID_3_" gradientUnits="userSpaceOnUse" x1="420.2094" y1="323.0299" x2="401.3216" y2="-71.7238" gradientTransform="matrix(0.9077 -0.4195 0.4195 0.9077 -61.8324 274.7847)">
		<stop  offset="0" style="stop-color:#12C2E9"/>
		<stop  offset="5.600001e-02" style="stop-color:#19BFE9"/>
		<stop  offset="0.137" style="stop-color:#2DB6EA"/>
		<stop  offset="0.235" style="stop-color:#4DA7EA"/>
		<stop  offset="0.344" style="stop-color:#7993EB"/>
		<stop  offset="0.462" style="stop-color:#B279ED"/>
		<stop  offset="0.497" style="stop-color:#C471ED"/>
		<stop  offset="1" style="stop-color:#F64F59"/>
	</linearGradient>
	<path class="st3" d="M301.4,94.9c-10.2,4.7-14.6,16.7-9.9,26.9c0.6,1.3,2.1,1.8,3.4,1.2c1.3-0.6,1.8-2.1,1.2-3.4
		c-3.5-7.6-0.2-16.7,7.4-20.2c7.6-3.5,16.7-0.2,20.2,7.4c3.5,7.7,0.2,16.7-7.4,20.2c-1.3,0.6-1.8,2.1-1.2,3.4l4.2,9.2
		c0.6,1.3,2.1,1.8,3.4,1.2c1.3-0.6,1.8-2.1,1.2-3.4l-3.3-7.1c8.7-5.4,11.9-16.4,7.6-25.7C323.6,94.6,311.5,90.2,301.4,94.9z"/>
</g>
<g>
	<path class="st1" d="M158,157.2c-1.6,0.7-2.3,2.6-1.5,4.1c0.7,1.6,2.6,2.3,4.1,1.5c1.6-0.7,2.3-2.6,1.5-4.1
		C161.4,157.1,159.5,156.4,158,157.2z"/>
	
		<linearGradient id="SVGID_4_" gradientUnits="userSpaceOnUse" x1="160.9084" y1="494.8914" x2="137.7587" y2="11.0631" gradientTransform="matrix(0.9092 -0.4163 0.4163 0.9092 -40.4841 72.0971)">
		<stop  offset="0" style="stop-color:#12C2E9"/>
		<stop  offset="5.600001e-02" style="stop-color:#19BFE9"/>
		<stop  offset="0.137" style="stop-color:#2DB6EA"/>
		<stop  offset="0.235" style="stop-color:#4DA7EA"/>
		<stop  offset="0.344" style="stop-color:#7993EB"/>
		<stop  offset="0.462" style="stop-color:#B279ED"/>
		<stop  offset="0.497" style="stop-color:#C471ED"/>
		<stop  offset="1" style="stop-color:#F64F59"/>
	</linearGradient>
	<path class="st4" d="M155.4,151.5c-4.7,2.1-6.7,7.7-4.6,12.3s7.7,6.7,12.3,4.6c4.7-2.1,6.7-7.7,4.6-12.3
		C165.5,151.4,160,149.3,155.4,151.5z M160.5,162.8c-1.6,0.7-3.4,0-4.1-1.5c-0.7-1.6,0-3.4,1.5-4.1s3.4,0,4.1,1.5
		C162.8,160.2,162.1,162,160.5,162.8z"/>
	
		<linearGradient id="SVGID_5_" gradientUnits="userSpaceOnUse" x1="163.4763" y1="564.7686" x2="140.3266" y2="80.9403" gradientTransform="matrix(0.9092 -0.4163 0.4163 0.9092 -69.627 8.4521)">
		<stop  offset="0" style="stop-color:#12C2E9"/>
		<stop  offset="5.600001e-02" style="stop-color:#19BFE9"/>
		<stop  offset="0.137" style="stop-color:#2DB6EA"/>
		<stop  offset="0.235" style="stop-color:#4DA7EA"/>
		<stop  offset="0.344" style="stop-color:#7993EB"/>
		<stop  offset="0.462" style="stop-color:#B279ED"/>
		<stop  offset="0.497" style="stop-color:#C471ED"/>
		<stop  offset="1" style="stop-color:#F64F59"/>
	</linearGradient>
	<path class="st5" d="M127,89.4c-12.5,5.7-17.9,20.4-12.2,32.9c0.7,1.6,2.6,2.3,4.1,1.5c1.6-0.7,2.3-2.6,1.5-4.1
		c-4.3-9.3-0.2-20.4,9.2-24.7c9.3-4.3,20.4-0.2,24.7,9.2c4.3,9.4,0.2,20.4-9.2,24.7c-1.6,0.7-2.3,2.6-1.5,4.1l5.2,11.3
		c0.7,1.6,2.6,2.3,4.1,1.5c1.6-0.7,2.3-2.6,1.5-4.1l-4-8.7c10.6-6.6,14.7-20.1,9.5-31.5C154.2,89.2,139.4,83.7,127,89.4z"/>
</g>
<g>
	<path class="st1" d="M221.7,118.6c-1.3-0.6-2.9,0-3.5,1.3s0,2.9,1.3,3.5c1.3,0.6,2.9,0,3.5-1.3S223,119.3,221.7,118.6z"/>
	
		<linearGradient id="SVGID_6_" gradientUnits="userSpaceOnUse" x1="252.7222" y1="409.0781" x2="233.4172" y2="5.605" gradientTransform="matrix(0.9086 0.4178 -0.4178 0.9086 58.3524 -99.2993)">
		<stop  offset="0" style="stop-color:#12C2E9"/>
		<stop  offset="5.600001e-02" style="stop-color:#19BFE9"/>
		<stop  offset="0.137" style="stop-color:#2DB6EA"/>
		<stop  offset="0.235" style="stop-color:#4DA7EA"/>
		<stop  offset="0.344" style="stop-color:#7993EB"/>
		<stop  offset="0.462" style="stop-color:#B279ED"/>
		<stop  offset="0.497" style="stop-color:#C471ED"/>
		<stop  offset="1" style="stop-color:#F64F59"/>
	</linearGradient>
	<path class="st6" d="M223.9,113.9c-3.9-1.8-8.5-0.1-10.3,3.8s-0.1,8.5,3.8,10.3c3.9,1.8,8.5,0.1,10.3-3.8
		C229.5,120.3,227.8,115.7,223.9,113.9z M219.6,123.3c-1.3-0.6-1.9-2.1-1.3-3.5c0.6-1.3,2.1-1.9,3.5-1.3c1.3,0.6,1.9,2.1,1.3,3.5
		S220.9,123.9,219.6,123.3z"/>
	
		<linearGradient id="SVGID_7_" gradientUnits="userSpaceOnUse" x1="254.8636" y1="478.9757" x2="235.5587" y2="75.5026" gradientTransform="matrix(0.9086 0.4178 -0.4178 0.9086 87.596 -162.8981)">
		<stop  offset="0" style="stop-color:#12C2E9"/>
		<stop  offset="5.600001e-02" style="stop-color:#19BFE9"/>
		<stop  offset="0.137" style="stop-color:#2DB6EA"/>
		<stop  offset="0.235" style="stop-color:#4DA7EA"/>
		<stop  offset="0.344" style="stop-color:#7993EB"/>
		<stop  offset="0.462" style="stop-color:#B279ED"/>
		<stop  offset="0.497" style="stop-color:#C471ED"/>
		<stop  offset="1" style="stop-color:#F64F59"/>
	</linearGradient>
	<path class="st7" d="M247.7,62.2c-10.4-4.8-22.7-0.2-27.5,10.2c-0.6,1.3,0,2.9,1.3,3.5c1.3,0.6,2.9,0,3.5-1.3
		c3.6-7.8,12.8-11.2,20.6-7.6c7.8,3.6,11.2,12.8,7.6,20.6s-12.8,11.2-20.6,7.6c-1.3-0.6-2.9,0-3.5,1.3l-4.3,9.4
		c-0.6,1.3,0,2.9,1.3,3.5c1.3,0.6,2.9,0,3.5-1.3l3.3-7.2c9.9,3.1,20.7-1.6,25-11.1C262.6,79.3,258.1,67,247.7,62.2z"/>
</g>
<g>
	<path class="st1" d="M377.1,150.4c-2.5-0.9-5.3,0.4-6.2,2.9c-0.9,2.5,0.4,5.3,2.9,6.2c2.5,0.9,5.3-0.4,6.2-2.9
		C381,154.1,379.6,151.3,377.1,150.4z"/>
	
		<linearGradient id="SVGID_8_" gradientUnits="userSpaceOnUse" x1="438.7762" y1="822.8535" x2="403.0516" y2="76.2114" gradientTransform="matrix(0.9431 0.3325 -0.3325 0.9431 88.1349 -275.8578)">
		<stop  offset="0" style="stop-color:#12C2E9"/>
		<stop  offset="5.600001e-02" style="stop-color:#19BFE9"/>
		<stop  offset="0.137" style="stop-color:#2DB6EA"/>
		<stop  offset="0.235" style="stop-color:#4DA7EA"/>
		<stop  offset="0.344" style="stop-color:#7993EB"/>
		<stop  offset="0.462" style="stop-color:#B279ED"/>
		<stop  offset="0.497" style="stop-color:#C471ED"/>
		<stop  offset="1" style="stop-color:#F64F59"/>
	</linearGradient>
	<path class="st8" d="M380.3,141.3c-7.5-2.6-15.7,1.3-18.3,8.8s1.3,15.7,8.8,18.3c7.5,2.6,15.7-1.3,18.3-8.8
		C391.7,152.2,387.8,144,380.3,141.3z M374,159.4c-2.5-0.9-3.8-3.6-2.9-6.2s3.6-3.8,6.2-2.9c2.5,0.9,3.8,3.6,2.9,6.2
		C379.2,159,376.5,160.3,374,159.4z"/>
	
		<linearGradient id="SVGID_9_" gradientUnits="userSpaceOnUse" x1="442.7389" y1="892.6639" x2="407.0144" y2="146.0218" gradientTransform="matrix(0.9431 0.3325 -0.3325 0.9431 111.407 -341.8761)">
		<stop  offset="0" style="stop-color:#12C2E9"/>
		<stop  offset="5.600001e-02" style="stop-color:#19BFE9"/>
		<stop  offset="0.137" style="stop-color:#2DB6EA"/>
		<stop  offset="0.235" style="stop-color:#4DA7EA"/>
		<stop  offset="0.344" style="stop-color:#7993EB"/>
		<stop  offset="0.462" style="stop-color:#B279ED"/>
		<stop  offset="0.497" style="stop-color:#C471ED"/>
		<stop  offset="1" style="stop-color:#F64F59"/>
	</linearGradient>
	<path class="st9" d="M415.3,42c-20-7-41.8,3.4-48.9,23.4c-0.9,2.5,0.4,5.3,2.9,6.2c2.5,0.9,5.3-0.4,6.2-2.9
		c5.3-14.9,21.7-22.9,36.7-17.6c14.9,5.3,22.9,21.7,17.6,36.7c-5.3,15-21.7,22.9-36.7,17.6c-2.5-0.9-5.3,0.4-6.2,2.9l-6.4,18.1
		c-0.9,2.5,0.4,5.3,2.9,6.2c2.5,0.9,5.3-0.4,6.2-2.9l4.9-13.9c18.9,4.1,37.8-6.6,44.2-24.7C445.8,70.9,435.3,49.1,415.3,42z"/>
</g>
<g>
	<path class="st1" d="M188.5,101.8c-1.8,0.8-2.6,2.8-1.8,4.6c0.8,1.8,2.8,2.6,4.6,1.8c1.8-0.8,2.6-2.8,1.8-4.6
		C192.2,101.8,190.2,101,188.5,101.8z"/>
	
		<linearGradient id="SVGID_10_" gradientUnits="userSpaceOnUse" x1="366.2946" y1="210.7649" x2="340.6268" y2="-325.691" gradientTransform="matrix(0.9179 -0.3967 0.3967 0.9179 -67.9076 387.5388)">
		<stop  offset="0" style="stop-color:#12C2E9"/>
		<stop  offset="5.600001e-02" style="stop-color:#19BFE9"/>
		<stop  offset="0.137" style="stop-color:#2DB6EA"/>
		<stop  offset="0.235" style="stop-color:#4DA7EA"/>
		<stop  offset="0.344" style="stop-color:#7993EB"/>
		<stop  offset="0.462" style="stop-color:#B279ED"/>
		<stop  offset="0.497" style="stop-color:#C471ED"/>
		<stop  offset="1" style="stop-color:#F64F59"/>
	</linearGradient>
	<path class="st10" d="M185.7,95.4c-5.2,2.3-7.6,8.3-5.4,13.5c2.3,5.2,8.3,7.6,13.5,5.4c5.2-2.3,7.6-8.3,5.4-13.5
		C197,95.6,190.9,93.2,185.7,95.4z M191.2,108.1c-1.8,0.8-3.8,0-4.6-1.8s0-3.8,1.8-4.6c1.8-0.8,3.8,0,4.6,1.8
		C193.7,105.3,192.9,107.3,191.2,108.1z"/>
	
		<linearGradient id="SVGID_11_" gradientUnits="userSpaceOnUse" x1="369.1418" y1="280.6287" x2="343.4741" y2="-255.8273" gradientTransform="matrix(0.9179 -0.3967 0.3967 0.9179 -95.6767 323.2824)">
		<stop  offset="0" style="stop-color:#12C2E9"/>
		<stop  offset="5.600001e-02" style="stop-color:#19BFE9"/>
		<stop  offset="0.137" style="stop-color:#2DB6EA"/>
		<stop  offset="0.235" style="stop-color:#4DA7EA"/>
		<stop  offset="0.344" style="stop-color:#7993EB"/>
		<stop  offset="0.462" style="stop-color:#B279ED"/>
		<stop  offset="0.497" style="stop-color:#C471ED"/>
		<stop  offset="1" style="stop-color:#F64F59"/>
	</linearGradient>
	<path class="st11" d="M155.7,26c-14,6-20.4,22.2-14.3,36.2c0.8,1.8,2.8,2.6,4.6,1.8c1.8-0.8,2.6-2.8,1.8-4.6
		c-4.5-10.4,0.3-22.7,10.8-27.2c10.4-4.5,22.7,0.3,27.2,10.8c4.5,10.5-0.3,22.7-10.8,27.2c-1.8,0.8-2.6,2.8-1.8,4.6l5.5,12.6
		c0.8,1.8,2.8,2.6,4.6,1.8c1.8-0.8,2.6-2.8,1.8-4.6l-4.2-9.7c11.9-7.1,16.7-21.9,11.2-34.6C185.9,26.4,169.7,19.9,155.7,26z"/>
</g>
<g>
	<path class="st1" d="M280.7,89.4c-1.5-1.2-3.7-0.9-4.9,0.6s-0.9,3.7,0.6,4.9c1.5,1.2,3.7,0.9,4.9-0.6
		C282.6,92.8,282.3,90.6,280.7,89.4z"/>
	
		<linearGradient id="SVGID_12_" gradientUnits="userSpaceOnUse" x1="501.8185" y1="271.0316" x2="476.1508" y2="-265.4243" gradientTransform="matrix(0.7937 0.6084 -0.6084 0.7937 -164.5949 -125.4979)">
		<stop  offset="0" style="stop-color:#12C2E9"/>
		<stop  offset="5.600001e-02" style="stop-color:#19BFE9"/>
		<stop  offset="0.137" style="stop-color:#2DB6EA"/>
		<stop  offset="0.235" style="stop-color:#4DA7EA"/>
		<stop  offset="0.344" style="stop-color:#7993EB"/>
		<stop  offset="0.462" style="stop-color:#B279ED"/>
		<stop  offset="0.497" style="stop-color:#C471ED"/>
		<stop  offset="1" style="stop-color:#F64F59"/>
	</linearGradient>
	<path class="st12" d="M285,83.9c-4.5-3.5-11-2.6-14.4,1.9c-3.5,4.5-2.6,11,1.9,14.4c4.5,3.5,11,2.6,14.4-1.9
		C290.3,93.9,289.5,87.4,285,83.9z M276.6,94.9c-1.5-1.2-1.8-3.3-0.6-4.9s3.3-1.8,4.9-0.6s1.8,3.3,0.6,4.9
		C280.3,95.8,278.1,96,276.6,94.9z"/>
	
		<linearGradient id="SVGID_13_" gradientUnits="userSpaceOnUse" x1="504.6657" y1="340.8954" x2="478.998" y2="-195.5605" gradientTransform="matrix(0.7937 0.6084 -0.6084 0.7937 -122.0093 -181.0539)">
		<stop  offset="0" style="stop-color:#12C2E9"/>
		<stop  offset="5.600001e-02" style="stop-color:#19BFE9"/>
		<stop  offset="0.137" style="stop-color:#2DB6EA"/>
		<stop  offset="0.235" style="stop-color:#4DA7EA"/>
		<stop  offset="0.344" style="stop-color:#7993EB"/>
		<stop  offset="0.462" style="stop-color:#B279ED"/>
		<stop  offset="0.497" style="stop-color:#C471ED"/>
		<stop  offset="1" style="stop-color:#F64F59"/>
	</linearGradient>
	<path class="st13" d="M331,23.9c-12.1-9.3-29.3-7-38.6,5.1c-1.2,1.5-0.9,3.7,0.6,4.9c1.5,1.2,3.7,0.9,4.9-0.6
		c6.9-9,19.9-10.8,29-3.8c9,6.9,10.8,19.9,3.8,29s-19.9,10.8-29,3.8c-1.5-1.2-3.7-0.9-4.9,0.6l-8.4,10.9c-1.2,1.5-0.9,3.7,0.6,4.9
		s3.7,0.9,4.9-0.6l6.4-8.4c12,7,27.3,3.9,35.7-7.1C345.3,50.4,343.1,33.2,331,23.9z"/>
</g>
<g>
	<path class="st1" d="M371.3,99.7c-0.6,0.9-0.4,2.1,0.5,2.7c0.9,0.6,2.1,0.4,2.7-0.5c0.6-0.9,0.4-2.1-0.5-2.7
		C373.1,98.6,371.9,98.8,371.3,99.7z"/>
	
		<linearGradient id="SVGID_14_" gradientUnits="userSpaceOnUse" x1="548.5929" y1="65.2638" x2="534.0316" y2="-239.0667" gradientTransform="matrix(0.5802 -0.8145 0.8145 0.5802 177.1835 622.7836)">
		<stop  offset="0" style="stop-color:#12C2E9"/>
		<stop  offset="5.600001e-02" style="stop-color:#19BFE9"/>
		<stop  offset="0.137" style="stop-color:#2DB6EA"/>
		<stop  offset="0.235" style="stop-color:#4DA7EA"/>
		<stop  offset="0.344" style="stop-color:#7993EB"/>
		<stop  offset="0.462" style="stop-color:#B279ED"/>
		<stop  offset="0.497" style="stop-color:#C471ED"/>
		<stop  offset="1" style="stop-color:#F64F59"/>
	</linearGradient>
	<path class="st14" d="M368.1,97.5c-1.9,2.6-1.3,6.3,1.4,8.1c2.6,1.9,6.3,1.3,8.1-1.4s1.3-6.3-1.4-8.1
		C373.6,94.2,369.9,94.8,368.1,97.5z M374.4,102c-0.6,0.9-1.9,1.1-2.7,0.5c-0.9-0.6-1.1-1.9-0.5-2.7c0.6-0.9,1.9-1.1,2.7-0.5
		S375,101.1,374.4,102z"/>
	
		<linearGradient id="SVGID_15_" gradientUnits="userSpaceOnUse" x1="550.2081" y1="135.1865" x2="535.6469" y2="-169.144" gradientTransform="matrix(0.5802 -0.8145 0.8145 0.5802 120.1708 582.1688)">
		<stop  offset="0" style="stop-color:#12C2E9"/>
		<stop  offset="5.600001e-02" style="stop-color:#19BFE9"/>
		<stop  offset="0.137" style="stop-color:#2DB6EA"/>
		<stop  offset="0.235" style="stop-color:#4DA7EA"/>
		<stop  offset="0.344" style="stop-color:#7993EB"/>
		<stop  offset="0.462" style="stop-color:#B279ED"/>
		<stop  offset="0.497" style="stop-color:#C471ED"/>
		<stop  offset="1" style="stop-color:#F64F59"/>
	</linearGradient>
	<path class="st15" d="M333.1,72.6c-5,7-3.4,16.8,3.7,21.8c0.9,0.6,2.1,0.4,2.7-0.5c0.6-0.9,0.4-2.1-0.5-2.7
		c-5.2-3.7-6.5-11.1-2.8-16.4c3.7-5.2,11.1-6.5,16.4-2.8c5.3,3.8,6.5,11.1,2.8,16.4c-0.6,0.9-0.4,2.1,0.5,2.7l6.4,4.5
		c0.9,0.6,2.1,0.4,2.7-0.5c0.6-0.9,0.4-2.1-0.5-2.7l-4.9-3.5c3.7-6.9,1.7-15.6-4.7-20.1C347.8,63.9,338.1,65.5,333.1,72.6z"/>
</g>
</svg>
