<?xml version="1.0"?>
<svg xmlns="http://www.w3.org/2000/svg" xmlns:xlink="http://www.w3.org/1999/xlink" id="Gradient" viewBox="0 0 512 512" width="512" height="512"><defs><linearGradient id="linear-gradient" x1="256" y1="496" x2="256" y2="16" gradientUnits="userSpaceOnUse"><stop offset="0" stop-color="#12c2e9"/><stop offset="0.5" stop-color="#c471ed"/><stop offset="1" stop-color="#f64f59"/></linearGradient></defs><path d="M40.79,323.465A8,8,0,0,0,48,328H72V488a8,8,0,0,0,8,8H432a8,8,0,0,0,8-8V328h24a8,8,0,0,0,6.247-13l-32-40A8,8,0,0,0,432,272H80a8,8,0,0,0-6.247,3l-32,40A8,8,0,0,0,40.79,323.465ZM428.155,288l19.2,24H307.845l-19.2-24ZM280,302.806,297.753,325A8,8,0,0,0,304,328H424V480H280ZM264,480H88V328H240a8,8,0,0,0,6.247-3L264,302.806ZM83.845,288h171.51l-19.2,24H64.645ZM440,176a7.976,7.976,0,0,0,5.657-2.343l24-24a8,8,0,0,0,0-11.314l-24-24a8,8,0,0,0-11.314,0l-24,24a8,8,0,0,0,0,11.314l24,24A7.976,7.976,0,0,0,440,176Zm0-44.687L452.687,144,440,156.687,427.313,144ZM98.343,77.657a8,8,0,0,0,11.314,0l24-24a8,8,0,0,0,0-11.314l-24-24a8,8,0,0,0-11.314,0l-24,24a8,8,0,0,0,0,11.314ZM104,35.313,116.687,48,104,60.687,91.313,48ZM320,208H192a24.012,24.012,0,1,0,22.624,16h66.752a24,24,0,1,0,44.927-.846,24,24,0,0,0,3.074-45.245l14.43-72.152L350.246,80H368a8,8,0,0,0,0-16H344a8,8,0,0,0-7.761,6.06L329.754,96H176a8,8,0,0,0-7.845,9.569l16,80A8,8,0,0,0,192,192H320a8,8,0,0,1,0,16ZM192,240a8,8,0,1,1,8-8A8.009,8.009,0,0,1,192,240Zm112,0a8,8,0,1,1,8-8A8.009,8.009,0,0,1,304,240ZM190.558,136l-4.8-24h23l2.4,24Zm8,40-4.8-24h19l2.4,24ZM248,176H231.24l-2.4-24H248Zm0-40H227.24l-2.4-24H248Zm32.76,40H264V152h19.16Zm4-40H264V112h23.16Zm28.681,40h-16.6l2.4-24h19Zm8-40h-20.6l2.4-24h23Z" style="fill:url(#linear-gradient)"/></svg>
