<?xml version="1.0" encoding="utf-8"?>
<!-- Generator: Adobe Illustrator 23.0.1, SVG Export Plug-In . SVG Version: 6.00 Build 0)  -->
<svg version="1.1" id="Layer_1" xmlns="http://www.w3.org/2000/svg" xmlns:xlink="http://www.w3.org/1999/xlink" x="0px" y="0px"
	 viewBox="0 0 512 512" style="enable-background:new 0 0 512 512;" xml:space="preserve">
<style type="text/css">
	.st0{fill:url(#SVGID_1_);}
</style>
<g>
	<linearGradient id="SVGID_1_" gradientUnits="userSpaceOnUse" x1="256" y1="492.9143" x2="256" y2="19.0857">
		<stop  offset="0" style="stop-color:#12C2E9"/>
		<stop  offset="5.600001e-02" style="stop-color:#19BFE9"/>
		<stop  offset="0.137" style="stop-color:#2DB6EA"/>
		<stop  offset="0.235" style="stop-color:#4DA7EA"/>
		<stop  offset="0.344" style="stop-color:#7993EB"/>
		<stop  offset="0.462" style="stop-color:#B279ED"/>
		<stop  offset="0.497" style="stop-color:#C471ED"/>
		<stop  offset="1" style="stop-color:#F64F59"/>
	</linearGradient>
	<path class="st0" d="M256.1,492.9c-0.1,0-0.2,0-0.3,0c-2,0-4.2-0.2-6.3-0.7l-0.6-0.1c-39-10-75.1-29.8-107.4-58.6
		c-21.4-19.1-33.3-35.9-39.7-45l-1.8-2.5c-4.3-6-8-11.7-11.3-17.4c-36.1-62.5-53.7-133.7-51-205.8c0.1-10.1,4.9-19.7,13-25.7
		c20-15.1,61.3-55.8,61.3-85.4c0-18.3,14.1-32.6,32-32.6H368c17.9,0,32,14.3,32,32.6c0,29.6,41.4,70.4,61.4,85.5
		c8,6,12.9,15.6,13,25.7c2.7,72.1-14.9,143.3-51,205.8c-3.3,5.7-7,11.3-11.3,17.4l-1.8,2.6c-6.4,9.1-18.3,25.9-39.7,45
		c-32.3,28.8-68.4,48.6-107.4,58.6l-0.6,0.1C260.4,492.7,258.3,492.9,256.1,492.9z M255.9,465c0.3,0,0.6,0,0.8,0
		c34.5-9,66.5-26.5,95.4-52.3c19-17,29.3-31.6,35.5-40.3c0.7-1,1.3-1.9,1.9-2.7c3.8-5.3,7-10.2,9.8-15.1
		c33.5-58,49.8-124.1,47.2-191l0-0.5c0-1.5-0.7-2.8-1.8-3.7c-0.8-0.6-72.4-55.2-72.5-107.7c0-2.4-1.4-4.7-4.2-4.7H144
		c-2.7,0-4.2,2.4-4.2,4.7c-0.1,52.5-71.7,107.1-72.4,107.7c-1.2,0.9-1.9,2.3-1.9,3.7l0,0.5c-2.6,66.9,13.8,133,47.2,191
		c2.8,4.9,6,9.8,9.8,15.1c0.6,0.8,1.2,1.7,1.9,2.7c6.2,8.7,16.5,23.3,35.5,40.3c28.8,25.7,60.9,43.3,95.4,52.3
		C255.5,465,255.7,465,255.9,465z"/>
</g>
</svg>
